CooperHewittInterpol1-HeavyItalic.ufo
<glyph name="quotedbl" format="1">
  <advance width="480"/>
  <unicode hex="0022"/>
  <outline>
    <contour>
      <point x="313" y="780" type="line" smooth="yes"/>
      <point x="276" y="440" type="line" smooth="yes"/>
      <point x="420" y="440" type="line" smooth="yes"/>
      <point x="493" y="780" type="line" smooth="yes"/>
    </contour>
    <contour>
      <point x="93" y="780" type="line" smooth="yes"/>
      <point x="76" y="440" type="line" smooth="yes"/>
      <point x="220" y="440" type="line" smooth="yes"/>
      <point x="273" y="780" type="line" smooth="yes"/>
    </contour>
  </outline>
</glyph>
<glyph name="dollar" format="1">
  <advance width="596"/>
  <unicode hex="0024"/>
  <outline>
    <contour>
      <point x="286" y="200" type="line" smooth="yes"/>
      <point x="281" y="200" type="line" smooth="yes"/>
      <point x="224" y="222" type="line" smooth="yes"/>
      <point x="212" y="283" type="line" smooth="yes"/>
      <point x="25" y="283" type="line" smooth="yes"/>
      <point x="24" y="278" type="line" smooth="yes"/>
      <point x="36" y="148" type="line" smooth="yes"/>
      <point x="118" y="75" type="line" smooth="yes"/>
      <point x="69" y="-60" type="line" smooth="yes"/>
      <point x="209" y="-60" type="line" smooth="yes"/>
      <point x="249" y="49" type="line" smooth="yes"/>
      <point x="261" y="49" type="line" smooth="yes"/>
      <point x="463" y="107" type="line" smooth="yes"/>
      <point x="549" y="262" type="line" smooth="yes"/>
      <point x="550" y="273" type="line" smooth="yes"/>
      <point x="501" y="408" type="line" smooth="yes"/>
      <point x="359" y="459" type="line" smooth="yes"/>
      <point x="272" y="481" type="line" smooth="yes"/>
      <point x="249" y="520" type="line" smooth="yes"/>
      <point x="266" y="562" type="line" smooth="yes"/>
      <point x="321" y="581" type="line" smooth="yes"/>
      <point x="326" y="581" type="line" smooth="yes"/>
      <point x="381" y="552" type="line" smooth="yes"/>
      <point x="388" y="490" type="line" smooth="yes"/>
      <point x="573" y="490" type="line" smooth="yes"/>
      <point x="575" y="503" type="line" smooth="yes"/>
      <point x="563" y="630" type="line" smooth="yes"/>
      <point x="491" y="703" type="line" smooth="yes"/>
      <point x="542" y="840" type="line" smooth="yes"/>
      <point x="402" y="840" type="line" smooth="yes"/>
      <point x="362" y="731" type="line" smooth="yes"/>
      <point x="352" y="732" type="line" smooth="yes"/>
      <point x="341" y="732" type="line" smooth="yes"/>
      <point x="147" y="674" type="line" smooth="yes"/>
      <point x="62" y="522" type="line" smooth="yes"/>
      <point x="61" y="511" type="line" smooth="yes"/>
      <point x="103" y="376" type="line" smooth="yes"/>
      <point x="245" y="325" type="line" smooth="yes"/>
      <point x="328" y="304" type="line" smooth="yes"/>
      <point x="360" y="257" type="line" smooth="yes"/>
      <point x="343" y="218" type="line" smooth="yes"/>
    </contour>
  </outline>
</glyph>
<glyph name="ampersand" format="1">
  <advance width="700"/>
  <unicode hex="0026"/>
  <outline>
    <contour>
      <point x="280" y="602" type="line" smooth="yes"/>
      <point x="293" y="632" type="line" smooth="yes"/>
      <point x="320" y="643" type="line" smooth="yes"/>
      <point x="326" y="643" type="line" smooth="yes"/>
      <point x="351" y="632" type="line" smooth="yes"/>
      <point x="358" y="602" type="line" smooth="yes"/>
      <point x="357" y="594" type="line" smooth="yes"/>
      <point x="336" y="552" type="line" smooth="yes"/>
      <point x="290" y="518" type="line" smooth="yes"/>
      <point x="280" y="555" type="line" smooth="yes"/>
      <point x="279" y="594" type="line" smooth="yes"/>
    </contour>
    <contour>
      <point x="247" y="144" type="line" smooth="yes"/>
      <point x="193" y="165" type="line" smooth="yes"/>
      <point x="182" y="228" type="line" smooth="yes"/>
      <point x="183" y="236" type="line" smooth="yes"/>
      <point x="193" y="272" type="line" smooth="yes"/>
      <point x="212" y="300" type="line" smooth="yes"/>
      <point x="313" y="153" type="line" smooth="yes"/>
      <point x="283" y="146" type="line" smooth="yes"/>
      <point x="252" y="144" type="line" smooth="yes"/>
    </contour>
    <contour>
      <point x="205" y="-14" type="line" smooth="yes"/>
      <point x="311" y="-3" type="line" smooth="yes"/>
      <point x="398" y="28" type="line" smooth="yes"/>
      <point x="418" y="0" type="line" smooth="yes"/>
      <point x="639" y="0" type="line" smooth="yes"/>
      <point x="548" y="132" type="line" smooth="yes"/>
      <point x="642" y="263" type="line" smooth="yes"/>
      <point x="684" y="395" type="line" smooth="yes"/>
      <point x="489" y="395" type="line" smooth="yes"/>
      <point x="488" y="388" type="line" smooth="yes"/>
      <point x="475" y="333" type="line" smooth="yes"/>
      <point x="449" y="276" type="line" smooth="yes"/>
      <point x="368" y="394" type="line" smooth="yes"/>
      <point x="479" y="466" type="line" smooth="yes"/>
      <point x="542" y="592" type="line" smooth="yes"/>
      <point x="544" y="605" type="line" smooth="yes"/>
      <point x="508" y="736" type="line" smooth="yes"/>
      <point x="333" y="794" type="line" smooth="yes"/>
      <point x="160" y="740" type="line" smooth="yes"/>
      <point x="94" y="613" type="line" smooth="yes"/>
      <point x="92" y="599" type="line" smooth="yes"/>
      <point x="94" y="505" type="line" smooth="yes"/>
      <point x="125" y="430" type="line" smooth="yes"/>
      <point x="39" y="350" type="line" smooth="yes"/>
      <point x="-8" y="224" type="line" smooth="yes"/>
      <point x="-10" y="207" type="line" smooth="yes"/>
      <point x="35" y="46" type="line" smooth="yes"/>
    </contour>
  </outline>
</glyph>
<glyph name="parenleft" format="1">
  <advance width="380"/>
  <unicode hex="0028"/>
  <outline>
    <contour>
      <point x="32" y="346" type="line" smooth="yes"/>
      <point x="42" y="74" type="line" smooth="yes"/>
      <point x="111" y="-120" type="line" smooth="yes"/>
      <point x="301" y="-120" type="line" smooth="yes"/>
      <point x="230" y="89" type="line" smooth="yes"/>
      <point x="217" y="346" type="line" smooth="yes"/>
      <point x="220" y="375" type="line" smooth="yes"/>
      <point x="295" y="636" type="line" smooth="yes"/>
      <point x="427" y="840" type="line" smooth="yes"/>
      <point x="235" y="840" type="line" smooth="yes"/>
      <point x="108" y="647" type="line" smooth="yes"/>
      <point x="35" y="375" type="line" smooth="yes"/>
    </contour>
  </outline>
</glyph>
<glyph name="parenright" format="1">
  <advance width="374"/>
  <unicode hex="0029"/>
  <outline>
    <contour>
      <point x="345" y="374" type="line" smooth="yes"/>
      <point x="335" y="646" type="line" smooth="yes"/>
      <point x="266" y="840" type="line" smooth="yes"/>
      <point x="76" y="840" type="line" smooth="yes"/>
      <point x="147" y="631" type="line" smooth="yes"/>
      <point x="160" y="374" type="line" smooth="yes"/>
      <point x="157" y="345" type="line" smooth="yes"/>
      <point x="82" y="84" type="line" smooth="yes"/>
      <point x="-50" y="-120" type="line" smooth="yes"/>
      <point x="142" y="-120" type="line" smooth="yes"/>
      <point x="269" y="73" type="line" smooth="yes"/>
      <point x="342" y="345" type="line" smooth="yes"/>
    </contour>
  </outline>
</glyph>
<glyph name="zero" format="1">
  <advance width="597"/>
  <unicode hex="0030"/>
  <outline>
    <contour>
      <point x="353" y="220" type="line" smooth="yes"/>
      <point x="328" y="167" type="line" smooth="yes"/>
      <point x="273" y="148" type="line" smooth="yes"/>
      <point x="269" y="148" type="line" smooth="yes"/>
      <point x="217" y="168" type="line" smooth="yes"/>
      <point x="205" y="220" type="line" smooth="yes"/>
      <point x="250" y="560" type="line" smooth="yes"/>
      <point x="275" y="613" type="line" smooth="yes"/>
      <point x="330" y="632" type="line" smooth="yes"/>
      <point x="334" y="632" type="line" smooth="yes"/>
      <point x="386" y="612" type="line" smooth="yes"/>
      <point x="398" y="560" type="line" smooth="yes"/>
    </contour>
    <contour>
      <point x="584" y="560" type="line" smooth="yes"/>
      <point x="534" y="728" type="line" smooth="yes"/>
      <point x="345" y="794" type="line" smooth="yes"/>
      <point x="146" y="730" type="line" smooth="yes"/>
      <point x="64" y="560" type="line" smooth="yes"/>
      <point x="19" y="220" type="line" smooth="yes"/>
      <point x="69" y="52" type="line" smooth="yes"/>
      <point x="258" y="-14" type="line" smooth="yes"/>
      <point x="457" y="51" type="line" smooth="yes"/>
      <point x="539" y="220" type="line" smooth="yes"/>
    </contour>
  </outline>
</glyph>
<glyph name="one" format="1">
  <advance width="600"/>
  <unicode hex="0031"/>
  <outline>
    <contour>
      <point x="516" y="0" type="line" smooth="yes"/>
      <point x="537" y="162" type="line" smooth="yes"/>
      <point x="375" y="162" type="line" smooth="yes"/>
      <point x="456" y="780" type="line" smooth="yes"/>
      <point x="316" y="780" type="line" smooth="yes"/>
      <point x="51" y="615" type="line" smooth="yes"/>
      <point x="125" y="481" type="line" smooth="yes"/>
      <point x="240" y="552" type="line" smooth="yes"/>
      <point x="189" y="162" type="line" smooth="yes"/>
      <point x="27" y="162" type="line" smooth="yes"/>
      <point x="6" y="0" type="line" smooth="yes"/>
    </contour>
  </outline>
</glyph>
<glyph name="two" format="1">
  <advance width="598"/>
  <unicode hex="0032"/>
  <outline>
    <contour>
      <point x="342" y="162" type="line" smooth="yes"/>
      <point x="272" y="161" type="line" smooth="yes"/>
      <point x="470" y="353" type="line" smooth="yes"/>
      <point x="549" y="445" type="line" smooth="yes"/>
      <point x="584" y="555" type="line" smooth="yes"/>
      <point x="586" y="573" type="line" smooth="yes"/>
      <point x="544" y="720" type="line" smooth="yes"/>
      <point x="344" y="794" type="line" smooth="yes"/>
      <point x="144" y="730" type="line" smooth="yes"/>
      <point x="61" y="537" type="line" smooth="yes"/>
      <point x="59" y="520" type="line" smooth="yes"/>
      <point x="245" y="520" type="line" smooth="yes"/>
      <point x="275" y="608" type="line" smooth="yes"/>
      <point x="326" y="632" type="line" smooth="yes"/>
      <point x="336" y="632" type="line" smooth="yes"/>
      <point x="383" y="612" type="line" smooth="yes"/>
      <point x="396" y="543" type="line" smooth="yes"/>
      <point x="395" y="533" type="line" smooth="yes"/>
      <point x="375" y="484" type="line" smooth="yes"/>
      <point x="338" y="440" type="line" smooth="yes"/>
      <point x="6" y="117" type="line" smooth="yes"/>
      <point x="-9" y="0" type="line" smooth="yes"/>
      <point x="511" y="0" type="line" smooth="yes"/>
      <point x="532" y="162" type="line" smooth="yes"/>
    </contour>
  </outline>
</glyph>
<glyph name="three" format="1">
  <advance width="598"/>
  <unicode hex="0033"/>
  <outline>
    <contour>
      <point x="204" y="250" type="line" smooth="yes"/>
      <point x="18" y="250" type="line" smooth="yes"/>
      <point x="17" y="243" type="line" smooth="yes"/>
      <point x="65" y="54" type="line" smooth="yes"/>
      <point x="265" y="-14" type="line" smooth="yes"/>
      <point x="474" y="60" type="line" smooth="yes"/>
      <point x="543" y="203" type="line" smooth="yes"/>
      <point x="545" y="223" type="line" smooth="yes"/>
      <point x="533" y="334" type="line" smooth="yes"/>
      <point x="479" y="399" type="line" smooth="yes"/>
      <point x="546" y="454" type="line" smooth="yes"/>
      <point x="583" y="551" type="line" smooth="yes"/>
      <point x="586" y="573" type="line" smooth="yes"/>
      <point x="546" y="716" type="line" smooth="yes"/>
      <point x="343" y="794" type="line" smooth="yes"/>
      <point x="146" y="729" type="line" smooth="yes"/>
      <point x="61" y="536" type="line" smooth="yes"/>
      <point x="59" y="520" type="line" smooth="yes"/>
      <point x="245" y="520" type="line" smooth="yes"/>
      <point x="276" y="608" type="line" smooth="yes"/>
      <point x="330" y="632" type="line" smooth="yes"/>
      <point x="340" y="632" type="line" smooth="yes"/>
      <point x="383" y="613" type="line" smooth="yes"/>
      <point x="397" y="563" type="line" smooth="yes"/>
      <point x="396" y="552" type="line" smooth="yes"/>
      <point x="372" y="497" type="line" smooth="yes"/>
      <point x="314" y="479" type="line" smooth="yes"/>
      <point x="214" y="479" type="line" smooth="yes"/>
      <point x="192" y="317" type="line" smooth="yes"/>
      <point x="295" y="317" type="line" smooth="yes"/>
      <point x="347" y="298" type="line" smooth="yes"/>
      <point x="359" y="243" type="line" smooth="yes"/>
      <point x="358" y="232" type="line" smooth="yes"/>
      <point x="332" y="168" type="line" smooth="yes"/>
      <point x="281" y="148" type="line" smooth="yes"/>
      <point x="271" y="148" type="line" smooth="yes"/>
      <point x="219" y="169" type="line" smooth="yes"/>
    </contour>
  </outline>
</glyph>
<glyph name="six" format="1">
  <advance width="600"/>
  <unicode hex="0036"/>
  <outline>
    <contour>
      <point x="294" y="331" type="line" smooth="yes"/>
      <point x="299" y="331" type="line" smooth="yes"/>
      <point x="349" y="312" type="line" smooth="yes"/>
      <point x="363" y="247" type="line" smooth="yes"/>
      <point x="362" y="236" type="line" smooth="yes"/>
      <point x="332" y="172" type="line" smooth="yes"/>
      <point x="275" y="148" type="line" smooth="yes"/>
      <point x="269" y="148" type="line" smooth="yes"/>
      <point x="218" y="176" type="line" smooth="yes"/>
      <point x="206" y="261" type="line" smooth="yes"/>
      <point x="209" y="286" type="line" smooth="yes"/>
      <point x="250" y="321" type="line" smooth="yes"/>
    </contour>
    <contour>
      <point x="580" y="794" type="line" smooth="yes"/>
      <point x="356" y="769" type="line" smooth="yes"/>
      <point x="176" y="658" type="line" smooth="yes"/>
      <point x="68" y="494" type="line" smooth="yes"/>
      <point x="24" y="296" type="line" smooth="yes"/>
      <point x="22" y="277" type="line" smooth="yes"/>
      <point x="68" y="67" type="line" smooth="yes"/>
      <point x="267" y="-14" type="line" smooth="yes"/>
      <point x="465" y="53" type="line" smooth="yes"/>
      <point x="547" y="234" type="line" smooth="yes"/>
      <point x="549" y="254" type="line" smooth="yes"/>
      <point x="511" y="430" type="line" smooth="yes"/>
      <point x="362" y="492" type="line" smooth="yes"/>
      <point x="304" y="484" type="line" smooth="yes"/>
      <point x="252" y="457" type="line" smooth="yes"/>
      <point x="275" y="511" type="line" smooth="yes"/>
      <point x="307" y="551" type="line" smooth="yes"/>
      <point x="411" y="613" type="line" smooth="yes"/>
      <point x="558" y="630" type="line" smooth="yes"/>
    </contour>
  </outline>
</glyph>
<glyph name="seven" format="1">
  <advance width="600"/>
  <unicode hex="0037"/>
  <outline>
    <contour>
      <point x="46" y="500" type="line" smooth="yes"/>
      <point x="208" y="500" type="line" smooth="yes"/>
      <point x="224" y="618" type="line" smooth="yes"/>
      <point x="305" y="618" type="line" smooth="yes"/>
      <point x="395" y="620" type="line" smooth="yes"/>
      <point x="52" y="0" type="line" smooth="yes"/>
      <point x="251" y="0" type="line" smooth="yes"/>
      <point x="608" y="665" type="line" smooth="yes"/>
      <point x="623" y="780" type="line" smooth="yes"/>
      <point x="83" y="780" type="line" smooth="yes"/>
    </contour>
  </outline>
</glyph>
<glyph name="eight" format="1">
  <advance width="598"/>
  <unicode hex="0038"/>
  <outline>
    <contour>
      <point x="306" y="479" type="line" smooth="yes"/>
      <point x="263" y="498" type="line" smooth="yes"/>
      <point x="249" y="548" type="line" smooth="yes"/>
      <point x="250" y="559" type="line" smooth="yes"/>
      <point x="274" y="614" type="line" smooth="yes"/>
      <point x="330" y="632" type="line" smooth="yes"/>
      <point x="340" y="632" type="line" smooth="yes"/>
      <point x="383" y="613" type="line" smooth="yes"/>
      <point x="397" y="563" type="line" smooth="yes"/>
      <point x="396" y="552" type="line" smooth="yes"/>
      <point x="372" y="497" type="line" smooth="yes"/>
      <point x="316" y="479" type="line" smooth="yes"/>
    </contour>
    <contour>
      <point x="294" y="317" type="line" smooth="yes"/>
      <point x="345" y="298" type="line" smooth="yes"/>
      <point x="359" y="243" type="line" smooth="yes"/>
      <point x="358" y="232" type="line" smooth="yes"/>
      <point x="330" y="168" type="line" smooth="yes"/>
      <point x="276" y="148" type="line" smooth="yes"/>
      <point x="266" y="148" type="line" smooth="yes"/>
      <point x="215" y="167" type="line" smooth="yes"/>
      <point x="201" y="222" type="line" smooth="yes"/>
      <point x="202" y="233" type="line" smooth="yes"/>
      <point x="230" y="298" type="line" smooth="yes"/>
      <point x="284" y="317" type="line" smooth="yes"/>
    </contour>
    <contour>
      <point x="265" y="-14" type="line" smooth="yes"/>
      <point x="474" y="60" type="line" smooth="yes"/>
      <point x="543" y="203" type="line" smooth="yes"/>
      <point x="545" y="223" type="line" smooth="yes"/>
      <point x="533" y="334" type="line" smooth="yes"/>
      <point x="479" y="399" type="line" smooth="yes"/>
      <point x="546" y="454" type="line" smooth="yes"/>
      <point x="583" y="551" type="line" smooth="yes"/>
      <point x="586" y="573" type="line" smooth="yes"/>
      <point x="546" y="716" type="line" smooth="yes"/>
      <point x="343" y="794" type="line" smooth="yes"/>
      <point x="135" y="723" type="line" smooth="yes"/>
      <point x="68" y="586" type="line" smooth="yes"/>
      <point x="65" y="564" type="line" smooth="yes"/>
      <point x="78" y="464" type="line" smooth="yes"/>
      <point x="127" y="399" type="line" smooth="yes"/>
      <point x="53" y="334" type="line" smooth="yes"/>
      <point x="16" y="228" type="line" smooth="yes"/>
      <point x="14" y="208" type="line" smooth="yes"/>
      <point x="61" y="58" type="line" smooth="yes"/>
    </contour>
  </outline>
</glyph>
<glyph name="nine" format="1">
  <advance width="597"/>
  <unicode hex="0039"/>
  <outline>
    <contour>
      <point x="305" y="449" type="line" smooth="yes"/>
      <point x="255" y="469" type="line" smooth="yes"/>
      <point x="241" y="533" type="line" smooth="yes"/>
      <point x="242" y="544" type="line" smooth="yes"/>
      <point x="272" y="608" type="line" smooth="yes"/>
      <point x="329" y="632" type="line" smooth="yes"/>
      <point x="335" y="632" type="line" smooth="yes"/>
      <point x="386" y="604" type="line" smooth="yes"/>
      <point x="398" y="519" type="line" smooth="yes"/>
      <point x="395" y="494" type="line" smooth="yes"/>
      <point x="354" y="460" type="line" smooth="yes"/>
      <point x="310" y="449" type="line" smooth="yes"/>
    </contour>
    <contour>
      <point x="24" y="-14" type="line" smooth="yes"/>
      <point x="248" y="11" type="line" smooth="yes"/>
      <point x="428" y="122" type="line" smooth="yes"/>
      <point x="536" y="287" type="line" smooth="yes"/>
      <point x="580" y="484" type="line" smooth="yes"/>
      <point x="582" y="503" type="line" smooth="yes"/>
      <point x="536" y="713" type="line" smooth="yes"/>
      <point x="337" y="794" type="line" smooth="yes"/>
      <point x="139" y="727" type="line" smooth="yes"/>
      <point x="57" y="546" type="line" smooth="yes"/>
      <point x="55" y="526" type="line" smooth="yes"/>
      <point x="93" y="350" type="line" smooth="yes"/>
      <point x="242" y="288" type="line" smooth="yes"/>
      <point x="300" y="296" type="line" smooth="yes"/>
      <point x="352" y="323" type="line" smooth="yes"/>
      <point x="329" y="269" type="line" smooth="yes"/>
      <point x="297" y="229" type="line" smooth="yes"/>
      <point x="193" y="167" type="line" smooth="yes"/>
      <point x="46" y="150" type="line" smooth="yes"/>
    </contour>
  </outline>
</glyph>
<glyph name="less" format="1">
  <advance width="600"/>
  <unicode hex="003C"/>
  <outline>
    <contour>
      <point x="54" y="480" type="line" smooth="yes"/>
      <point x="30" y="300" type="line" smooth="yes"/>
      <point x="524" y="104" type="line" smooth="yes"/>
      <point x="548" y="286" type="line" smooth="yes"/>
      <point x="263" y="390" type="line" smooth="yes"/>
      <point x="576" y="494" type="line" smooth="yes"/>
      <point x="599" y="676" type="line" smooth="yes"/>
    </contour>
  </outline>
</glyph>
<glyph name="question" format="1">
  <advance width="510"/>
  <unicode hex="003F"/>
  <outline>
    <contour>
      <point x="321" y="190" type="line" smooth="yes"/>
      <point x="131" y="190" type="line" smooth="yes"/>
      <point x="106" y="0" type="line" smooth="yes"/>
      <point x="296" y="0" type="line" smooth="yes"/>
    </contour>
    <contour>
      <point x="294" y="632" type="line" smooth="yes"/>
      <point x="327" y="619" type="line" smooth="yes"/>
      <point x="337" y="588" type="line" smooth="yes"/>
      <point x="255" y="459" type="line" smooth="yes"/>
      <point x="167" y="240" type="line" smooth="yes"/>
      <point x="297" y="240" type="line" smooth="yes"/>
      <point x="426" y="423" type="line" smooth="yes"/>
      <point x="526" y="621" type="line" smooth="yes"/>
      <point x="481" y="741" type="line" smooth="yes"/>
      <point x="304" y="794" type="line" smooth="yes"/>
      <point x="117" y="731" type="line" smooth="yes"/>
      <point x="41" y="539" type="line" smooth="yes"/>
      <point x="39" y="520" type="line" smooth="yes"/>
      <point x="225" y="520" type="line" smooth="yes"/>
      <point x="247" y="606" type="line" smooth="yes"/>
    </contour>
  </outline>
</glyph>
<glyph name="at" format="1">
  <advance width="995"/>
  <unicode hex="0040"/>
  <outline>
    <contour>
      <point x="461" y="187" type="line" smooth="yes"/>
      <point x="413" y="208" type="line" smooth="yes"/>
      <point x="405" y="277" type="line" smooth="yes"/>
      <point x="410" y="313" type="line" smooth="yes"/>
      <point x="433" y="380" type="line" smooth="yes"/>
      <point x="484" y="403" type="line" smooth="yes"/>
      <point x="528" y="390" type="line" smooth="yes"/>
      <point x="551" y="366" type="line" smooth="yes"/>
      <point x="532" y="224" type="line" smooth="yes"/>
      <point x="506" y="200" type="line" smooth="yes"/>
    </contour>
    <contour>
      <point x="453" y="-96" type="line" smooth="yes"/>
      <point x="198" y="-6" type="line" smooth="yes"/>
      <point x="131" y="270" type="line" smooth="yes"/>
      <point x="136" y="310" type="line" smooth="yes"/>
      <point x="277" y="586" type="line" smooth="yes"/>
      <point x="553" y="676" type="line" smooth="yes"/>
      <point x="559" y="676" type="line" smooth="yes"/>
      <point x="780" y="624" type="line" smooth="yes"/>
      <point x="856" y="401" type="line" smooth="yes"/>
      <point x="852" y="371" type="line" smooth="yes"/>
      <point x="804" y="225" type="line" smooth="yes"/>
      <point x="686" y="178" type="line" smooth="yes"/>
      <point x="715" y="396" type="line" smooth="yes"/>
      <point x="742" y="530" type="line" smooth="yes"/>
      <point x="597" y="530" type="line" smooth="yes"/>
      <point x="579" y="474" type="line" smooth="yes"/>
      <point x="531" y="524" type="line" smooth="yes"/>
      <point x="451" y="544" type="line" smooth="yes"/>
      <point x="309" y="480" type="line" smooth="yes"/>
      <point x="242" y="313" type="line" smooth="yes"/>
      <point x="237" y="277" type="line" smooth="yes"/>
      <point x="263" y="110" type="line" smooth="yes"/>
      <point x="392" y="46" type="line" smooth="yes"/>
      <point x="474" y="65" type="line" smooth="yes"/>
      <point x="532" y="115" type="line" smooth="yes"/>
      <point x="535" y="60" type="line" smooth="yes"/>
      <point x="658" y="60" type="line" smooth="yes"/>
      <point x="862" y="126" type="line" smooth="yes"/>
      <point x="974" y="371" type="line" smooth="yes"/>
      <point x="978" y="401" type="line" smooth="yes"/>
      <point x="875" y="704" type="line" smooth="yes"/>
      <point x="553" y="794" type="line" smooth="yes"/>
      <point x="198" y="670" type="line" smooth="yes"/>
      <point x="16" y="310" type="line" smooth="yes"/>
      <point x="11" y="270" type="line" smooth="yes"/>
      <point x="108" y="-90" type="line" smooth="yes"/>
      <point x="456" y="-214" type="line" smooth="yes"/>
      <point x="643" y="-189" type="line" smooth="yes"/>
      <point x="861" y="-77" type="line" smooth="yes"/>
      <point x="805" y="15" type="line" smooth="yes"/>
      <point x="641" y="-68" type="line" smooth="yes"/>
      <point x="459" y="-96" type="line" smooth="yes"/>
    </contour>
  </outline>
</glyph>
<glyph name="B" format="1">
  <advance width="641"/>
  <unicode hex="0042"/>
  <outline>
    <contour>
      <point x="354" y="616" type="line" smooth="yes"/>
      <point x="396" y="605" type="line" smooth="yes"/>
      <point x="411" y="553" type="line" smooth="yes"/>
      <point x="410" y="542" type="line" smooth="yes"/>
      <point x="382" y="491" type="line" smooth="yes"/>
      <point x="336" y="480" type="line" smooth="yes"/>
      <point x="254" y="480" type="line" smooth="yes"/>
      <point x="272" y="616" type="line" smooth="yes"/>
    </contour>
    <contour>
      <point x="327" y="316" type="line" smooth="yes"/>
      <point x="373" y="304" type="line" smooth="yes"/>
      <point x="391" y="246" type="line" smooth="yes"/>
      <point x="390" y="235" type="line" smooth="yes"/>
      <point x="358" y="177" type="line" smooth="yes"/>
      <point x="307" y="164" type="line" smooth="yes"/>
      <point x="212" y="164" type="line" smooth="yes"/>
      <point x="232" y="316" type="line" smooth="yes"/>
    </contour>
    <contour>
      <point x="103" y="780" type="line" smooth="yes"/>
      <point x="1" y="0" type="line" smooth="yes"/>
      <point x="281" y="0" type="line" smooth="yes"/>
      <point x="470" y="40" type="line" smooth="yes"/>
      <point x="581" y="232" type="line" smooth="yes"/>
      <point x="583" y="252" type="line" smooth="yes"/>
      <point x="571" y="347" type="line" smooth="yes"/>
      <point x="519" y="403" type="line" smooth="yes"/>
      <point x="572" y="455" type="line" smooth="yes"/>
      <point x="601" y="537" type="line" smooth="yes"/>
      <point x="604" y="559" type="line" smooth="yes"/>
      <point x="546" y="743" type="line" smooth="yes"/>
      <point x="378" y="780" type="line" smooth="yes"/>
    </contour>
  </outline>
</glyph>
<glyph name="D" format="1">
  <advance width="662"/>
  <unicode hex="0044"/>
  <outline>
    <contour>
      <point x="212" y="164" type="line" smooth="yes"/>
      <point x="272" y="616" type="line" smooth="yes"/>
      <point x="317" y="616" type="line" smooth="yes"/>
      <point x="438" y="564" type="line" smooth="yes"/>
      <point x="448" y="410" type="line" smooth="yes"/>
      <point x="443" y="372" type="line" smooth="yes"/>
      <point x="397" y="217" type="line" smooth="yes"/>
      <point x="267" y="164" type="line" smooth="yes"/>
    </contour>
    <contour>
      <point x="641" y="410" type="line" smooth="yes"/>
      <point x="600" y="696" type="line" smooth="yes"/>
      <point x="348" y="780" type="line" smooth="yes"/>
      <point x="103" y="780" type="line" smooth="yes"/>
      <point x="1" y="0" type="line" smooth="yes"/>
      <point x="256" y="0" type="line" smooth="yes"/>
      <point x="524" y="85" type="line" smooth="yes"/>
      <point x="636" y="372" type="line" smooth="yes"/>
    </contour>
  </outline>
</glyph>
<glyph name="L" format="1">
  <advance width="530"/>
  <unicode hex="004C"/>
  <outline>
    <contour>
      <point x="466" y="0" type="line" smooth="yes"/>
      <point x="487" y="164" type="line" smooth="yes"/>
      <point x="212" y="164" type="line" smooth="yes"/>
      <point x="293" y="780" type="line" smooth="yes"/>
      <point x="103" y="780" type="line" smooth="yes"/>
      <point x="1" y="0" type="line" smooth="yes"/>
    </contour>
  </outline>
</glyph>
<glyph name="M" format="1">
  <advance width="890"/>
  <unicode hex="004D"/>
  <outline>
    <contour>
      <point x="665" y="450" type="line" smooth="yes"/>
      <point x="640" y="300" type="line" smooth="yes"/>
      <point x="601" y="0" type="line" smooth="yes"/>
      <point x="791" y="0" type="line" smooth="yes"/>
      <point x="893" y="780" type="line" smooth="yes"/>
      <point x="610" y="780" type="line" smooth="yes"/>
      <point x="439" y="330" type="line" smooth="yes"/>
      <point x="386" y="780" type="line" smooth="yes"/>
      <point x="103" y="780" type="line" smooth="yes"/>
      <point x="1" y="0" type="line" smooth="yes"/>
      <point x="191" y="0" type="line" smooth="yes"/>
      <point x="230" y="300" type="line" smooth="yes"/>
      <point x="245" y="450" type="line" smooth="yes"/>
      <point x="298" y="0" type="line" smooth="yes"/>
      <point x="494" y="0" type="line" smooth="yes"/>
    </contour>
  </outline>
</glyph>
<glyph name="Q" format="1">
  <advance width="672"/>
  <unicode hex="0051"/>
  <outline>
    <contour>
      <point x="386" y="273" type="line" smooth="yes"/>
      <point x="246" y="273" type="line" smooth="yes"/>
      <point x="277" y="153" type="line" smooth="yes"/>
      <point x="221" y="223" type="line" smooth="yes"/>
      <point x="225" y="370" type="line" smooth="yes"/>
      <point x="230" y="408" type="line" smooth="yes"/>
      <point x="272" y="570" type="line" smooth="yes"/>
      <point x="368" y="630" type="line" smooth="yes"/>
      <point x="379" y="630" type="line" smooth="yes"/>
      <point x="460" y="571" type="line" smooth="yes"/>
      <point x="459" y="410" type="line" smooth="yes"/>
      <point x="454" y="372" type="line" smooth="yes"/>
      <point x="436" y="272" type="line" smooth="yes"/>
      <point x="406" y="199" type="line" smooth="yes"/>
    </contour>
    <contour>
      <point x="385" y="794" type="line" smooth="yes"/>
      <point x="146" y="702" type="line" smooth="yes"/>
      <point x="37" y="408" type="line" smooth="yes"/>
      <point x="32" y="370" type="line" smooth="yes"/>
      <point x="74" y="77" type="line" smooth="yes"/>
      <point x="300" y="-14" type="line" smooth="yes"/>
      <point x="310" y="-14" type="line" smooth="yes"/>
      <point x="320" y="-13" type="line" smooth="yes"/>
      <point x="342" y="-100" type="line" smooth="yes"/>
      <point x="487" y="-100" type="line" smooth="yes"/>
      <point x="455" y="16" type="line" smooth="yes"/>
      <point x="582" y="141" type="line" smooth="yes"/>
      <point x="647" y="372" type="line" smooth="yes"/>
      <point x="652" y="410" type="line" smooth="yes"/>
      <point x="611" y="703" type="line" smooth="yes"/>
    </contour>
  </outline>
</glyph>
<glyph name="V" format="1">
  <advance width="650"/>
  <unicode hex="0056"/>
  <outline>
    <contour>
      <point x="406" y="0" type="line" smooth="yes"/>
      <point x="694" y="780" type="line" smooth="yes"/>
      <point x="490" y="780" type="line" smooth="yes"/>
      <point x="304" y="220" type="line" smooth="yes"/>
      <point x="265" y="780" type="line" smooth="yes"/>
      <point x="62" y="780" type="line" smooth="yes"/>
      <point x="146" y="0" type="line" smooth="yes"/>
    </contour>
  </outline>
</glyph>
<glyph name="X" format="1">
  <advance width="660"/>
  <unicode hex="0058"/>
  <outline>
    <contour>
      <point x="-34" y="0" type="line" smooth="yes"/>
      <point x="176" y="0" type="line" smooth="yes"/>
      <point x="315" y="265" type="line" smooth="yes"/>
      <point x="386" y="0" type="line" smooth="yes"/>
      <point x="596" y="0" type="line" smooth="yes"/>
      <point x="469" y="413" type="line" smooth="yes"/>
      <point x="698" y="780" type="line" smooth="yes"/>
      <point x="478" y="780" type="line" smooth="yes"/>
      <point x="352" y="542" type="line" smooth="yes"/>
      <point x="288" y="780" type="line" smooth="yes"/>
      <point x="68" y="780" type="line" smooth="yes"/>
      <point x="200" y="413" type="line" smooth="yes"/>
    </contour>
  </outline>
</glyph>
<glyph name="bracketright" format="1">
  <advance width="380"/>
  <unicode hex="005D"/>
  <outline>
    <contour>
      <point x="260" y="-120" type="line" smooth="yes"/>
      <point x="386" y="840" type="line" smooth="yes"/>
      <point x="91" y="840" type="line" smooth="yes"/>
      <point x="70" y="680" type="line" smooth="yes"/>
      <point x="181" y="680" type="line" smooth="yes"/>
      <point x="97" y="40" type="line" smooth="yes"/>
      <point x="-14" y="40" type="line" smooth="yes"/>
      <point x="-35" y="-120" type="line" smooth="yes"/>
    </contour>
  </outline>
</glyph>
<glyph name="grave" format="1">
  <advance width="500"/>
  <unicode hex="0060"/>
  <outline>
    <contour>
      <point x="101" y="780" type="line" smooth="yes"/>
      <point x="187" y="590" type="line" smooth="yes"/>
      <point x="369" y="590" type="line" smooth="yes"/>
      <point x="303" y="780" type="line" smooth="yes"/>
    </contour>
  </outline>
</glyph>
<glyph name="b" format="1">
  <advance width="580"/>
  <unicode hex="0062"/>
  <outline>
    <contour>
      <point x="229" y="345" type="line" smooth="yes"/>
      <point x="258" y="371" type="line" smooth="yes"/>
      <point x="307" y="386" type="line" smooth="yes"/>
      <point x="358" y="360" type="line" smooth="yes"/>
      <point x="365" y="284" type="line" smooth="yes"/>
      <point x="360" y="246" type="line" smooth="yes"/>
      <point x="332" y="169" type="line" smooth="yes"/>
      <point x="274" y="144" type="line" smooth="yes"/>
      <point x="229" y="159" type="line" smooth="yes"/>
      <point x="208" y="185" type="line" smooth="yes"/>
    </contour>
    <contour>
      <point x="289" y="800" type="line" smooth="yes"/>
      <point x="105" y="800" type="line" smooth="yes"/>
      <point x="19" y="150" type="line" smooth="yes"/>
      <point x="-10" y="0" type="line" smooth="yes"/>
      <point x="156" y="0" type="line" smooth="yes"/>
      <point x="175" y="61" type="line" smooth="yes"/>
      <point x="227" y="7" type="line" smooth="yes"/>
      <point x="321" y="-14" type="line" smooth="yes"/>
      <point x="475" y="59" type="line" smooth="yes"/>
      <point x="543" y="246" type="line" smooth="yes"/>
      <point x="548" y="284" type="line" smooth="yes"/>
      <point x="526" y="474" type="line" smooth="yes"/>
      <point x="395" y="544" type="line" smooth="yes"/>
      <point x="308" y="529" type="line" smooth="yes"/>
      <point x="248" y="490" type="line" smooth="yes"/>
    </contour>
  </outline>
</glyph>
<glyph name="d" format="1">
  <advance width="595"/>
  <unicode hex="0064"/>
  <outline>
    <contour>
      <point x="336" y="185" type="line" smooth="yes"/>
      <point x="308" y="159" type="line" smooth="yes"/>
      <point x="258" y="144" type="line" smooth="yes"/>
      <point x="207" y="170" type="line" smooth="yes"/>
      <point x="200" y="246" type="line" smooth="yes"/>
      <point x="205" y="284" type="line" smooth="yes"/>
      <point x="233" y="361" type="line" smooth="yes"/>
      <point x="291" y="386" type="line" smooth="yes"/>
      <point x="336" y="371" type="line" smooth="yes"/>
      <point x="357" y="345" type="line" smooth="yes"/>
    </contour>
    <contour>
      <point x="244" y="544" type="line" smooth="yes"/>
      <point x="90" y="471" type="line" smooth="yes"/>
      <point x="22" y="284" type="line" smooth="yes"/>
      <point x="17" y="246" type="line" smooth="yes"/>
      <point x="40" y="56" type="line" smooth="yes"/>
      <point x="170" y="-14" type="line" smooth="yes"/>
      <point x="266" y="6" type="line" smooth="yes"/>
      <point x="340" y="65" type="line" smooth="yes"/>
      <point x="340" y="0" type="line" smooth="yes"/>
      <point x="506" y="0" type="line" smooth="yes"/>
      <point x="515" y="150" type="line" smooth="yes"/>
      <point x="601" y="800" type="line" smooth="yes"/>
      <point x="417" y="800" type="line" smooth="yes"/>
      <point x="376" y="490" type="line" smooth="yes"/>
      <point x="332" y="526" type="line" smooth="yes"/>
    </contour>
  </outline>
</glyph>
<glyph name="j" format="1">
  <advance width="280"/>
  <unicode hex="006A"/>
  <outline>
    <contour>
      <point x="288" y="780" type="line" smooth="yes"/>
      <point x="98" y="780" type="line" smooth="yes"/>
      <point x="73" y="590" type="line" smooth="yes"/>
      <point x="263" y="590" type="line" smooth="yes"/>
    </contour>
    <contour>
      <point x="0" y="15" type="line" smooth="yes"/>
      <point x="-27" y="-43" type="line" smooth="yes"/>
      <point x="-79" y="-56" type="line" smooth="yes"/>
      <point x="-106" y="-54" type="line" smooth="yes"/>
      <point x="-124" y="-50" type="line" smooth="yes"/>
      <point x="-144" y="-200" type="line" smooth="yes"/>
      <point x="-116" y="-209" type="line" smooth="yes"/>
      <point x="-57" y="-214" type="line" smooth="yes"/>
      <point x="102" y="-168" type="line" smooth="yes"/>
      <point x="182" y="-5" type="line" smooth="yes"/>
      <point x="252" y="530" type="line" smooth="yes"/>
      <point x="68" y="530" type="line" smooth="yes"/>
    </contour>
  </outline>
</glyph>
<glyph name="k" format="1">
  <advance width="580"/>
  <unicode hex="006B"/>
  <outline>
    <contour>
      <point x="-4" y="0" type="line" smooth="yes"/>
      <point x="180" y="0" type="line" smooth="yes"/>
      <point x="198" y="141" type="line" smooth="yes"/>
      <point x="238" y="182" type="line" smooth="yes"/>
      <point x="301" y="0" type="line" smooth="yes"/>
      <point x="516" y="0" type="line" smooth="yes"/>
      <point x="385" y="329" type="line" smooth="yes"/>
      <point x="585" y="530" type="line" smooth="yes"/>
      <point x="365" y="530" type="line" smooth="yes"/>
      <point x="230" y="382" type="line" smooth="yes"/>
      <point x="285" y="800" type="line" smooth="yes"/>
      <point x="101" y="800" type="line" smooth="yes"/>
    </contour>
  </outline>
</glyph>
<glyph name="m" format="1">
  <advance width="877"/>
  <unicode hex="006D"/>
  <outline>
    <contour>
      <point x="787" y="0" type="line" smooth="yes"/>
      <point x="834" y="360" type="line" smooth="yes"/>
      <point x="814" y="490" type="line" smooth="yes"/>
      <point x="698" y="544" type="line" smooth="yes"/>
      <point x="597" y="522" type="line" smooth="yes"/>
      <point x="525" y="463" type="line" smooth="yes"/>
      <point x="481" y="522" type="line" smooth="yes"/>
      <point x="397" y="544" type="line" smooth="yes"/>
      <point x="300" y="523" type="line" smooth="yes"/>
      <point x="226" y="465" type="line" smooth="yes"/>
      <point x="226" y="530" type="line" smooth="yes"/>
      <point x="60" y="530" type="line" smooth="yes"/>
      <point x="51" y="380" type="line" smooth="yes"/>
      <point x="1" y="0" type="line" smooth="yes"/>
      <point x="185" y="0" type="line" smooth="yes"/>
      <point x="231" y="350" type="line" smooth="yes"/>
      <point x="257" y="374" type="line" smooth="yes"/>
      <point x="301" y="386" type="line" smooth="yes"/>
      <point x="340" y="369" type="line" smooth="yes"/>
      <point x="345" y="330" type="line" smooth="yes"/>
      <point x="302" y="0" type="line" smooth="yes"/>
      <point x="486" y="0" type="line" smooth="yes"/>
      <point x="532" y="350" type="line" smooth="yes"/>
      <point x="558" y="374" type="line" smooth="yes"/>
      <point x="602" y="386" type="line" smooth="yes"/>
      <point x="641" y="369" type="line" smooth="yes"/>
      <point x="646" y="330" type="line" smooth="yes"/>
      <point x="603" y="0" type="line" smooth="yes"/>
    </contour>
  </outline>
</glyph>
<glyph name="n" format="1">
  <advance width="592"/>
  <unicode hex="006E"/>
  <outline>
    <contour>
      <point x="502" y="0" type="line" smooth="yes"/>
      <point x="548" y="355" type="line" smooth="yes"/>
      <point x="530" y="485" type="line" smooth="yes"/>
      <point x="408" y="544" type="line" smooth="yes"/>
      <point x="304" y="522" type="line" smooth="yes"/>
      <point x="226" y="460" type="line" smooth="yes"/>
      <point x="226" y="530" type="line" smooth="yes"/>
      <point x="60" y="530" type="line" smooth="yes"/>
      <point x="51" y="380" type="line" smooth="yes"/>
      <point x="1" y="0" type="line" smooth="yes"/>
      <point x="185" y="0" type="line" smooth="yes"/>
      <point x="230" y="345" type="line" smooth="yes"/>
      <point x="261" y="371" type="line" smooth="yes"/>
      <point x="313" y="386" type="line" smooth="yes"/>
      <point x="357" y="365" type="line" smooth="yes"/>
      <point x="361" y="325" type="line" smooth="yes"/>
      <point x="318" y="0" type="line" smooth="yes"/>
    </contour>
  </outline>
</glyph>
<glyph name="o" format="1">
  <advance width="556"/>
  <unicode hex="006F"/>
  <outline>
    <contour>
      <point x="196" y="284" type="line" smooth="yes"/>
      <point x="224" y="361" type="line" smooth="yes"/>
      <point x="279" y="386" type="line" smooth="yes"/>
      <point x="333" y="360" type="line" smooth="yes"/>
      <point x="340" y="284" type="line" smooth="yes"/>
      <point x="335" y="246" type="line" smooth="yes"/>
      <point x="307" y="169" type="line" smooth="yes"/>
      <point x="252" y="144" type="line" smooth="yes"/>
      <point x="198" y="170" type="line" smooth="yes"/>
      <point x="191" y="246" type="line" smooth="yes"/>
    </contour>
    <contour>
      <point x="523" y="284" type="line" smooth="yes"/>
      <point x="480" y="471" type="line" smooth="yes"/>
      <point x="290" y="544" type="line" smooth="yes"/>
      <point x="94" y="469" type="line" smooth="yes"/>
      <point x="13" y="284" type="line" smooth="yes"/>
      <point x="8" y="246" type="line" smooth="yes"/>
      <point x="52" y="59" type="line" smooth="yes"/>
      <point x="241" y="-14" type="line" smooth="yes"/>
      <point x="437" y="61" type="line" smooth="yes"/>
      <point x="518" y="246" type="line" smooth="yes"/>
    </contour>
  </outline>
</glyph>
<glyph name="p" format="1">
  <advance width="580"/>
  <unicode hex="0070"/>
  <outline>
    <contour>
      <point x="229" y="345" type="line" smooth="yes"/>
      <point x="258" y="371" type="line" smooth="yes"/>
      <point x="307" y="386" type="line" smooth="yes"/>
      <point x="358" y="360" type="line" smooth="yes"/>
      <point x="365" y="284" type="line" smooth="yes"/>
      <point x="360" y="246" type="line" smooth="yes"/>
      <point x="332" y="169" type="line" smooth="yes"/>
      <point x="274" y="144" type="line" smooth="yes"/>
      <point x="229" y="159" type="line" smooth="yes"/>
      <point x="208" y="185" type="line" smooth="yes"/>
    </contour>
    <contour>
      <point x="157" y="-200" type="line" smooth="yes"/>
      <point x="189" y="40" type="line" smooth="yes"/>
      <point x="233" y="4" type="line" smooth="yes"/>
      <point x="321" y="-14" type="line" smooth="yes"/>
      <point x="475" y="59" type="line" smooth="yes"/>
      <point x="543" y="246" type="line" smooth="yes"/>
      <point x="548" y="284" type="line" smooth="yes"/>
      <point x="526" y="474" type="line" smooth="yes"/>
      <point x="395" y="544" type="line" smooth="yes"/>
      <point x="299" y="524" type="line" smooth="yes"/>
      <point x="225" y="465" type="line" smooth="yes"/>
      <point x="225" y="530" type="line" smooth="yes"/>
      <point x="59" y="530" type="line" smooth="yes"/>
      <point x="50" y="380" type="line" smooth="yes"/>
      <point x="-27" y="-200" type="line" smooth="yes"/>
    </contour>
  </outline>
</glyph>
<glyph name="q" format="1">
  <advance width="593"/>
  <unicode hex="0071"/>
  <outline>
    <contour>
      <point x="330" y="185" type="line" smooth="yes"/>
      <point x="302" y="159" type="line" smooth="yes"/>
      <point x="252" y="144" type="line" smooth="yes"/>
      <point x="201" y="170" type="line" smooth="yes"/>
      <point x="194" y="246" type="line" smooth="yes"/>
      <point x="199" y="284" type="line" smooth="yes"/>
      <point x="227" y="361" type="line" smooth="yes"/>
      <point x="285" y="386" type="line" smooth="yes"/>
      <point x="330" y="371" type="line" smooth="yes"/>
      <point x="351" y="345" type="line" smooth="yes"/>
    </contour>
    <contour>
      <point x="279" y="-200" type="line" smooth="yes"/>
      <point x="463" y="-200" type="line" smooth="yes"/>
      <point x="540" y="380" type="line" smooth="yes"/>
      <point x="569" y="530" type="line" smooth="yes"/>
      <point x="403" y="530" type="line" smooth="yes"/>
      <point x="384" y="469" type="line" smooth="yes"/>
      <point x="332" y="523" type="line" smooth="yes"/>
      <point x="238" y="544" type="line" smooth="yes"/>
      <point x="84" y="471" type="line" smooth="yes"/>
      <point x="16" y="284" type="line" smooth="yes"/>
      <point x="11" y="246" type="line" smooth="yes"/>
      <point x="34" y="56" type="line" smooth="yes"/>
      <point x="164" y="-14" type="line" smooth="yes"/>
      <point x="251" y="1" type="line" smooth="yes"/>
      <point x="311" y="40" type="line" smooth="yes"/>
    </contour>
  </outline>
</glyph>
<glyph name="s" format="1">
  <advance width="527"/>
  <unicode hex="0073"/>
  <outline>
    <contour>
      <point x="235" y="124" type="line" smooth="yes"/>
      <point x="194" y="136" type="line" smooth="yes"/>
      <point x="184" y="170" type="line" smooth="yes"/>
      <point x="1" y="170" type="line" smooth="yes"/>
      <point x="0" y="162" type="line" smooth="yes"/>
      <point x="43" y="33" type="line" smooth="yes"/>
      <point x="222" y="-14" type="line" smooth="yes"/>
      <point x="397" y="31" type="line" smooth="yes"/>
      <point x="472" y="150" type="line" smooth="yes"/>
      <point x="474" y="165" type="line" smooth="yes"/>
      <point x="422" y="291" type="line" smooth="yes"/>
      <point x="267" y="332" type="line" smooth="yes"/>
      <point x="225" y="342" type="line" smooth="yes"/>
      <point x="213" y="365" type="line" smooth="yes"/>
      <point x="227" y="395" type="line" smooth="yes"/>
      <point x="265" y="406" type="line" smooth="yes"/>
      <point x="304" y="393" type="line" smooth="yes"/>
      <point x="312" y="355" type="line" smooth="yes"/>
      <point x="492" y="355" type="line" smooth="yes"/>
      <point x="493" y="363" type="line" smooth="yes"/>
      <point x="453" y="497" type="line" smooth="yes"/>
      <point x="278" y="544" type="line" smooth="yes"/>
      <point x="118" y="506" type="line" smooth="yes"/>
      <point x="36" y="384" type="line" smooth="yes"/>
      <point x="34" y="369" type="line" smooth="yes"/>
      <point x="76" y="247" type="line" smooth="yes"/>
      <point x="235" y="203" type="line" smooth="yes"/>
      <point x="279" y="191" type="line" smooth="yes"/>
      <point x="290" y="165" type="line" smooth="yes"/>
      <point x="279" y="137" type="line" smooth="yes"/>
    </contour>
  </outline>
</glyph>
<glyph name="u" format="1">
  <advance width="595"/>
  <unicode hex="0075"/>
  <outline>
    <contour>
      <point x="64" y="530" type="line" smooth="yes"/>
      <point x="18" y="175" type="line" smooth="yes"/>
      <point x="36" y="45" type="line" smooth="yes"/>
      <point x="158" y="-14" type="line" smooth="yes"/>
      <point x="262" y="8" type="line" smooth="yes"/>
      <point x="340" y="70" type="line" smooth="yes"/>
      <point x="340" y="0" type="line" smooth="yes"/>
      <point x="506" y="0" type="line" smooth="yes"/>
      <point x="515" y="150" type="line" smooth="yes"/>
      <point x="565" y="530" type="line" smooth="yes"/>
      <point x="381" y="530" type="line" smooth="yes"/>
      <point x="336" y="185" type="line" smooth="yes"/>
      <point x="305" y="159" type="line" smooth="yes"/>
      <point x="253" y="144" type="line" smooth="yes"/>
      <point x="209" y="165" type="line" smooth="yes"/>
      <point x="205" y="205" type="line" smooth="yes"/>
      <point x="248" y="530" type="line" smooth="yes"/>
    </contour>
  </outline>
</glyph>
<glyph name="z" format="1">
  <advance width="510"/>
  <unicode hex="007A"/>
  <outline>
    <contour>
      <point x="-14" y="126" type="line" smooth="yes"/>
      <point x="-30" y="0" type="line" smooth="yes"/>
      <point x="440" y="0" type="line" smooth="yes"/>
      <point x="461" y="160" type="line" smooth="yes"/>
      <point x="341" y="160" type="line" smooth="yes"/>
      <point x="232" y="156" type="line" smooth="yes"/>
      <point x="483" y="404" type="line" smooth="yes"/>
      <point x="499" y="530" type="line" smooth="yes"/>
      <point x="49" y="530" type="line" smooth="yes"/>
      <point x="28" y="370" type="line" smooth="yes"/>
      <point x="128" y="370" type="line" smooth="yes"/>
      <point x="237" y="374" type="line" smooth="yes"/>
    </contour>
  </outline>
</glyph>
<glyph name="braceleft" format="1">
  <advance width="380"/>
  <unicode hex="007B"/>
  <outline>
    <contour>
      <point x="411" y="840" type="line" smooth="yes"/>
      <point x="381" y="840" type="line" smooth="yes"/>
      <point x="211" y="798" type="line" smooth="yes"/>
      <point x="131" y="650" type="line" smooth="yes"/>
      <point x="114" y="520" type="line" smooth="yes"/>
      <point x="89" y="459" type="line" smooth="yes"/>
      <point x="32" y="440" type="line" smooth="yes"/>
      <point x="11" y="280" type="line" smooth="yes"/>
      <point x="63" y="261" type="line" smooth="yes"/>
      <point x="72" y="200" type="line" smooth="yes"/>
      <point x="55" y="70" type="line" smooth="yes"/>
      <point x="95" y="-78" type="line" smooth="yes"/>
      <point x="255" y="-120" type="line" smooth="yes"/>
      <point x="285" y="-120" type="line" smooth="yes"/>
      <point x="306" y="40" type="line" smooth="yes"/>
      <point x="255" y="59" type="line" smooth="yes"/>
      <point x="245" y="120" type="line" smooth="yes"/>
      <point x="261" y="240" type="line" smooth="yes"/>
      <point x="255" y="313" type="line" smooth="yes"/>
      <point x="215" y="360" type="line" smooth="yes"/>
      <point x="268" y="407" type="line" smooth="yes"/>
      <point x="293" y="480" type="line" smooth="yes"/>
      <point x="308" y="600" type="line" smooth="yes"/>
      <point x="334" y="661" type="line" smooth="yes"/>
      <point x="390" y="680" type="line" smooth="yes"/>
    </contour>
  </outline>
</glyph>
<glyph name="braceright" format="1">
  <advance width="380"/>
  <unicode hex="007D"/>
  <outline>
    <contour>
      <point x="-35" y="-120" type="line" smooth="yes"/>
      <point x="-5" y="-120" type="line" smooth="yes"/>
      <point x="165" y="-78" type="line" smooth="yes"/>
      <point x="245" y="70" type="line" smooth="yes"/>
      <point x="263" y="208" type="line" smooth="yes"/>
      <point x="288" y="262" type="line" smooth="yes"/>
      <point x="343" y="280" type="line" smooth="yes"/>
      <point x="364" y="440" type="line" smooth="yes"/>
      <point x="313" y="459" type="line" smooth="yes"/>
      <point x="304" y="520" type="line" smooth="yes"/>
      <point x="321" y="650" type="line" smooth="yes"/>
      <point x="281" y="798" type="line" smooth="yes"/>
      <point x="121" y="840" type="line" smooth="yes"/>
      <point x="91" y="840" type="line" smooth="yes"/>
      <point x="70" y="680" type="line" smooth="yes"/>
      <point x="121" y="661" type="line" smooth="yes"/>
      <point x="130" y="600" type="line" smooth="yes"/>
      <point x="115" y="480" type="line" smooth="yes"/>
      <point x="121" y="407" type="line" smooth="yes"/>
      <point x="160" y="360" type="line" smooth="yes"/>
      <point x="108" y="313" type="line" smooth="yes"/>
      <point x="83" y="240" type="line" smooth="yes"/>
      <point x="67" y="120" type="line" smooth="yes"/>
      <point x="42" y="59" type="line" smooth="yes"/>
      <point x="-14" y="40" type="line" smooth="yes"/>
    </contour>
  </outline>
</glyph>
<glyph name="asciitilde" format="1">
  <advance width="600"/>
  <unicode hex="007E"/>
  <outline>
    <contour>
      <point x="201" y="492" type="line" smooth="yes"/>
      <point x="103" y="463" type="line" smooth="yes"/>
      <point x="27" y="391" type="line" smooth="yes"/>
      <point x="101" y="306" type="line" smooth="yes"/>
      <point x="138" y="336" type="line" smooth="yes"/>
      <point x="192" y="352" type="line" smooth="yes"/>
      <point x="284" y="320" type="line" smooth="yes"/>
      <point x="402" y="288" type="line" smooth="yes"/>
      <point x="500" y="318" type="line" smooth="yes"/>
      <point x="577" y="389" type="line" smooth="yes"/>
      <point x="503" y="474" type="line" smooth="yes"/>
      <point x="466" y="444" type="line" smooth="yes"/>
      <point x="412" y="428" type="line" smooth="yes"/>
      <point x="320" y="460" type="line" smooth="yes"/>
    </contour>
  </outline>
</glyph>
<glyph name="sterling" format="1">
  <advance width="593"/>
  <unicode hex="00A3"/>
  <outline>
    <contour>
      <point x="352" y="632" type="line" smooth="yes"/>
      <point x="393" y="585" type="line" smooth="yes"/>
      <point x="390" y="500" type="line" smooth="yes"/>
      <point x="576" y="500" type="line" smooth="yes"/>
      <point x="579" y="519" type="line" smooth="yes"/>
      <point x="555" y="718" type="line" smooth="yes"/>
      <point x="365" y="794" type="line" smooth="yes"/>
      <point x="152" y="692" type="line" smooth="yes"/>
      <point x="108" y="520" type="line" smooth="yes"/>
      <point x="109" y="476" type="line" smooth="yes"/>
      <point x="113" y="440" type="line" smooth="yes"/>
      <point x="48" y="440" type="line" smooth="yes"/>
      <point x="27" y="280" type="line" smooth="yes"/>
      <point x="146" y="280" type="line" smooth="yes"/>
      <point x="155" y="223" type="line" smooth="yes"/>
      <point x="161" y="162" type="line" smooth="yes"/>
      <point x="12" y="162" type="line" smooth="yes"/>
      <point x="-9" y="0" type="line" smooth="yes"/>
      <point x="511" y="0" type="line" smooth="yes"/>
      <point x="532" y="162" type="line" smooth="yes"/>
      <point x="323" y="162" type="line" smooth="yes"/>
      <point x="324" y="222" type="line" smooth="yes"/>
      <point x="321" y="280" type="line" smooth="yes"/>
      <point x="448" y="280" type="line" smooth="yes"/>
      <point x="469" y="440" type="line" smooth="yes"/>
      <point x="301" y="440" type="line" smooth="yes"/>
      <point x="296" y="485" type="line" smooth="yes"/>
      <point x="294" y="533" type="line" smooth="yes"/>
      <point x="305" y="604" type="line" smooth="yes"/>
    </contour>
  </outline>
</glyph>
<glyph name="yen" format="1">
  <advance width="600"/>
  <unicode hex="00A5"/>
  <outline>
    <contour>
      <point x="33" y="320" type="line" smooth="yes"/>
      <point x="182" y="320" type="line" smooth="yes"/>
      <point x="192" y="280" type="line" smooth="yes"/>
      <point x="27" y="280" type="line" smooth="yes"/>
      <point x="6" y="120" type="line" smooth="yes"/>
      <point x="171" y="120" type="line" smooth="yes"/>
      <point x="156" y="0" type="line" smooth="yes"/>
      <point x="346" y="0" type="line" smooth="yes"/>
      <point x="361" y="120" type="line" smooth="yes"/>
      <point x="526" y="120" type="line" smooth="yes"/>
      <point x="547" y="280" type="line" smooth="yes"/>
      <point x="382" y="280" type="line" smooth="yes"/>
      <point x="404" y="320" type="line" smooth="yes"/>
      <point x="553" y="320" type="line" smooth="yes"/>
      <point x="574" y="480" type="line" smooth="yes"/>
      <point x="489" y="480" type="line" smooth="yes"/>
      <point x="649" y="780" type="line" smooth="yes"/>
      <point x="441" y="780" type="line" smooth="yes"/>
      <point x="314" y="480" type="line" smooth="yes"/>
      <point x="265" y="780" type="line" smooth="yes"/>
      <point x="57" y="780" type="line" smooth="yes"/>
      <point x="138" y="480" type="line" smooth="yes"/>
      <point x="54" y="480" type="line" smooth="yes"/>
    </contour>
  </outline>
</glyph>
<glyph name="section" format="1">
  <advance width="558"/>
  <unicode hex="00A7"/>
  <outline>
    <contour>
      <point x="340" y="794" type="line" smooth="yes"/>
      <point x="178" y="753" type="line" smooth="yes"/>
      <point x="96" y="614" type="line" smooth="yes"/>
      <point x="95" y="604" type="line" smooth="yes"/>
      <point x="96" y="551" type="line" smooth="yes"/>
      <point x="117" y="510" type="line" smooth="yes"/>
      <point x="56" y="461" type="line" smooth="yes"/>
      <point x="30" y="384" type="line" smooth="yes"/>
      <point x="29" y="376" type="line" smooth="yes"/>
      <point x="77" y="250" type="line" smooth="yes"/>
      <point x="235" y="208" type="line" smooth="yes"/>
      <point x="276" y="194" type="line" smooth="yes"/>
      <point x="287" y="167" type="line" smooth="yes"/>
      <point x="273" y="136" type="line" smooth="yes"/>
      <point x="232" y="124" type="line" smooth="yes"/>
      <point x="196" y="138" type="line" smooth="yes"/>
      <point x="189" y="175" type="line" smooth="yes"/>
      <point x="9" y="175" type="line" smooth="yes"/>
      <point x="8" y="167" type="line" smooth="yes"/>
      <point x="51" y="33" type="line" smooth="yes"/>
      <point x="224" y="-14" type="line" smooth="yes"/>
      <point x="387" y="27" type="line" smooth="yes"/>
      <point x="468" y="166" type="line" smooth="yes"/>
      <point x="469" y="176" type="line" smooth="yes"/>
      <point x="468" y="229" type="line" smooth="yes"/>
      <point x="447" y="270" type="line" smooth="yes"/>
      <point x="508" y="319" type="line" smooth="yes"/>
      <point x="534" y="396" type="line" smooth="yes"/>
      <point x="535" y="404" type="line" smooth="yes"/>
      <point x="487" y="529" type="line" smooth="yes"/>
      <point x="329" y="572" type="line" smooth="yes"/>
      <point x="288" y="586" type="line" smooth="yes"/>
      <point x="277" y="613" type="line" smooth="yes"/>
      <point x="291" y="644" type="line" smooth="yes"/>
      <point x="332" y="656" type="line" smooth="yes"/>
      <point x="368" y="643" type="line" smooth="yes"/>
      <point x="375" y="605" type="line" smooth="yes"/>
      <point x="555" y="605" type="line" smooth="yes"/>
      <point x="556" y="613" type="line" smooth="yes"/>
      <point x="513" y="747" type="line" smooth="yes"/>
    </contour>
    <contour>
      <point x="275" y="336" type="line" smooth="yes"/>
      <point x="227" y="349" type="line" smooth="yes"/>
      <point x="213" y="381" type="line" smooth="yes"/>
      <point x="229" y="425" type="line" smooth="yes"/>
      <point x="281" y="444" type="line" smooth="yes"/>
      <point x="289" y="444" type="line" smooth="yes"/>
      <point x="337" y="431" type="line" smooth="yes"/>
      <point x="351" y="399" type="line" smooth="yes"/>
      <point x="335" y="356" type="line" smooth="yes"/>
      <point x="283" y="336" type="line" smooth="yes"/>
    </contour>
  </outline>
</glyph>
<glyph name="copyright" format="1">
  <advance width="920"/>
  <unicode hex="00A9"/>
  <outline>
    <contour>
      <point x="464" y="282" type="line" smooth="yes"/>
      <point x="418" y="305" type="line" smooth="yes"/>
      <point x="405" y="372" type="line" smooth="yes"/>
      <point x="405" y="408" type="line" smooth="yes"/>
      <point x="418" y="475" type="line" smooth="yes"/>
      <point x="464" y="498" type="line" smooth="yes"/>
      <point x="502" y="484" type="line" smooth="yes"/>
      <point x="516" y="439" type="line" smooth="yes"/>
      <point x="671" y="439" type="line" smooth="yes"/>
      <point x="671" y="461" type="line" smooth="yes"/>
      <point x="617" y="593" type="line" smooth="yes"/>
      <point x="460" y="640" type="line" smooth="yes"/>
      <point x="293" y="576" type="line" smooth="yes"/>
      <point x="241" y="408" type="line" smooth="yes"/>
      <point x="241" y="372" type="line" smooth="yes"/>
      <point x="293" y="204" type="line" smooth="yes"/>
      <point x="460" y="140" type="line" smooth="yes"/>
      <point x="617" y="186" type="line" smooth="yes"/>
      <point x="671" y="310" type="line" smooth="yes"/>
      <point x="671" y="332" type="line" smooth="yes"/>
      <point x="516" y="332" type="line" smooth="yes"/>
      <point x="502" y="295" type="line" smooth="yes"/>
    </contour>
    <contour>
      <point x="116" y="390" type="line" smooth="yes"/>
      <point x="217" y="633" type="line" smooth="yes"/>
      <point x="460" y="734" type="line" smooth="yes"/>
      <point x="703" y="633" type="line" smooth="yes"/>
      <point x="804" y="390" type="line" smooth="yes"/>
      <point x="703" y="147" type="line" smooth="yes"/>
      <point x="460" y="46" type="line" smooth="yes"/>
      <point x="217" y="147" type="line" smooth="yes"/>
    </contour>
    <contour>
      <point x="56" y="390" type="line" smooth="yes"/>
      <point x="174" y="104" type="line" smooth="yes"/>
      <point x="460" y="-14" type="line" smooth="yes"/>
      <point x="746" y="104" type="line" smooth="yes"/>
      <point x="864" y="390" type="line" smooth="yes"/>
      <point x="746" y="676" type="line" smooth="yes"/>
      <point x="460" y="794" type="line" smooth="yes"/>
      <point x="174" y="676" type="line" smooth="yes"/>
    </contour>
  </outline>
</glyph>
<glyph name="ordfeminine" format="1">
  <advance width="439"/>
  <unicode hex="00AA"/>
  <outline>
    <contour>
      <point x="229" y="503" type="line" smooth="yes"/>
      <point x="208" y="511" type="line" smooth="yes"/>
      <point x="204" y="527" type="line" smooth="yes"/>
      <point x="205" y="533" type="line" smooth="yes"/>
      <point x="214" y="548" type="line" smooth="yes"/>
      <point x="235" y="557" type="line" smooth="yes"/>
      <point x="275" y="563" type="line" smooth="yes"/>
      <point x="268" y="516" type="line" smooth="yes"/>
      <point x="250" y="507" type="line" smooth="yes"/>
    </contour>
    <contour>
      <point x="10" y="172" type="line" smooth="yes"/>
      <point x="388" y="172" type="line" smooth="yes"/>
      <point x="406" y="309" type="line" smooth="yes"/>
      <point x="28" y="309" type="line" smooth="yes"/>
    </contour>
    <contour>
      <point x="274" y="387" type="line" smooth="yes"/>
      <point x="419" y="387" type="line" smooth="yes"/>
      <point x="426" y="499" type="line" smooth="yes"/>
      <point x="445" y="640" type="line" smooth="yes"/>
      <point x="411" y="751" type="line" smooth="yes"/>
      <point x="260" y="794" type="line" smooth="yes"/>
      <point x="125" y="756" type="line" smooth="yes"/>
      <point x="77" y="661" type="line" smooth="yes"/>
      <point x="76" y="652" type="line" smooth="yes"/>
      <point x="226" y="652" type="line" smooth="yes"/>
      <point x="234" y="668" type="line" smooth="yes"/>
      <point x="256" y="676" type="line" smooth="yes"/>
      <point x="278" y="670" type="line" smooth="yes"/>
      <point x="285" y="652" type="line" smooth="yes"/>
      <point x="210" y="640" type="line" smooth="yes"/>
      <point x="97" y="604" type="line" smooth="yes"/>
      <point x="44" y="514" type="line" smooth="yes"/>
      <point x="42" y="503" type="line" smooth="yes"/>
      <point x="57" y="417" type="line" smooth="yes"/>
      <point x="150" y="376" type="line" smooth="yes"/>
      <point x="222" y="389" type="line" smooth="yes"/>
      <point x="274" y="423" type="line" smooth="yes"/>
    </contour>
  </outline>
</glyph>
<glyph name="macron" format="1">
  <advance width="500"/>
  <unicode hex="00AF"/>
  <outline>
    <contour>
      <point x="120" y="605" type="line" smooth="yes"/>
      <point x="440" y="605" type="line" smooth="yes"/>
      <point x="461" y="765" type="line" smooth="yes"/>
      <point x="141" y="765" type="line" smooth="yes"/>
    </contour>
  </outline>
</glyph>
<glyph name="twosuperior" format="1">
  <advance width="300"/>
  <unicode hex="00B2"/>
  <outline>
    <contour>
      <point x="302" y="503" type="line" smooth="yes"/>
      <point x="210" y="503" type="line" smooth="yes"/>
      <point x="267" y="560" type="line" smooth="yes"/>
      <point x="306" y="606" type="line" smooth="yes"/>
      <point x="323" y="657" type="line" smooth="yes"/>
      <point x="325" y="675" type="line" smooth="yes"/>
      <point x="305" y="747" type="line" smooth="yes"/>
      <point x="196" y="788" type="line" smooth="yes"/>
      <point x="94" y="758" type="line" smooth="yes"/>
      <point x="52" y="660" type="line" smooth="yes"/>
      <point x="51" y="650" type="line" smooth="yes"/>
      <point x="176" y="650" type="line" smooth="yes"/>
      <point x="179" y="674" type="line" smooth="yes"/>
      <point x="187" y="681" type="line" smooth="yes"/>
      <point x="193" y="674" type="line" smooth="yes"/>
      <point x="189" y="644" type="line" smooth="yes"/>
      <point x="185" y="632" type="line" smooth="yes"/>
      <point x="177" y="623" type="line" smooth="yes"/>
      <point x="28" y="473" type="line" smooth="yes"/>
      <point x="17" y="390" type="line" smooth="yes"/>
      <point x="287" y="390" type="line" smooth="yes"/>
    </contour>
  </outline>
</glyph>
<glyph name="threesuperior" format="1">
  <advance width="300"/>
  <unicode hex="00B3"/>
  <outline>
    <contour>
      <point x="162" y="515" type="line" smooth="yes"/>
      <point x="30" y="515" type="line" smooth="yes"/>
      <point x="29" y="506" type="line" smooth="yes"/>
      <point x="56" y="413" type="line" smooth="yes"/>
      <point x="160" y="381" type="line" smooth="yes"/>
      <point x="273" y="424" type="line" smooth="yes"/>
      <point x="304" y="497" type="line" smooth="yes"/>
      <point x="305" y="510" type="line" smooth="yes"/>
      <point x="297" y="560" type="line" smooth="yes"/>
      <point x="271" y="590" type="line" smooth="yes"/>
      <point x="307" y="620" type="line" smooth="yes"/>
      <point x="324" y="669" type="line" smooth="yes"/>
      <point x="325" y="682" type="line" smooth="yes"/>
      <point x="304" y="749" type="line" smooth="yes"/>
      <point x="196" y="788" type="line" smooth="yes"/>
      <point x="94" y="758" type="line" smooth="yes"/>
      <point x="52" y="660" type="line" smooth="yes"/>
      <point x="51" y="650" type="line" smooth="yes"/>
      <point x="176" y="650" type="line" smooth="yes"/>
      <point x="179" y="674" type="line" smooth="yes"/>
      <point x="187" y="681" type="line" smooth="yes"/>
      <point x="193" y="674" type="line" smooth="yes"/>
      <point x="190" y="650" type="line" smooth="yes"/>
      <point x="186" y="641" type="line" smooth="yes"/>
      <point x="175" y="638" type="line" smooth="yes"/>
      <point x="135" y="638" type="line" smooth="yes"/>
      <point x="121" y="532" type="line" smooth="yes"/>
      <point x="163" y="532" type="line" smooth="yes"/>
      <point x="173" y="528" type="line" smooth="yes"/>
      <point x="176" y="515" type="line" smooth="yes"/>
      <point x="174" y="496" type="line" smooth="yes"/>
      <point x="166" y="489" type="line" smooth="yes"/>
      <point x="160" y="496" type="line" smooth="yes"/>
    </contour>
  </outline>
</glyph>
<glyph name="cedilla" format="1">
  <advance width="602"/>
  <unicode hex="00B8"/>
  <outline>
    <contour>
      <point x="67" y="-188" type="line" smooth="yes"/>
      <point x="108" y="-207" type="line" smooth="yes"/>
      <point x="178" y="-216" type="line" smooth="yes"/>
      <point x="277" y="-189" type="line" smooth="yes"/>
      <point x="312" y="-115" type="line" smooth="yes"/>
      <point x="287" y="-59" type="line" smooth="yes"/>
      <point x="223" y="-37" type="line" smooth="yes"/>
      <point x="243" y="0" type="line" smooth="yes"/>
      <point x="163" y="0" type="line" smooth="yes"/>
      <point x="125" y="-70" type="line" smooth="yes"/>
      <point x="135" y="-99" type="line" smooth="yes"/>
      <point x="148" y="-97" type="line" smooth="yes"/>
      <point x="176" y="-94" type="line" smooth="yes"/>
      <point x="208" y="-100" type="line" smooth="yes"/>
      <point x="217" y="-115" type="line" smooth="yes"/>
      <point x="207" y="-132" type="line" smooth="yes"/>
      <point x="170" y="-138" type="line" smooth="yes"/>
      <point x="132" y="-133" type="line" smooth="yes"/>
      <point x="103" y="-121" type="line" smooth="yes"/>
    </contour>
  </outline>
</glyph>
<glyph name="threequarters" format="1">
  <advance width="800"/>
  <unicode hex="00BE"/>
  <outline>
    <contour>
      <point x="593" y="175" type="line" smooth="yes"/>
      <point x="622" y="215" type="line" smooth="yes"/>
      <point x="615" y="175" type="line" smooth="yes"/>
    </contour>
    <contour>
      <point x="724" y="0" type="line" smooth="yes"/>
      <point x="732" y="63" type="line" smooth="yes"/>
      <point x="748" y="63" type="line" smooth="yes"/>
      <point x="763" y="177" type="line" smooth="yes"/>
      <point x="747" y="177" type="line" smooth="yes"/>
      <point x="775" y="390" type="line" smooth="yes"/>
      <point x="650" y="390" type="line" smooth="yes"/>
      <point x="479" y="156" type="line" smooth="yes"/>
      <point x="467" y="63" type="line" smooth="yes"/>
      <point x="600" y="63" type="line" smooth="yes"/>
      <point x="592" y="0" type="line" smooth="yes"/>
    </contour>
    <contour>
      <point x="137" y="0" type="line" smooth="yes"/>
      <point x="815" y="780" type="line" smooth="yes"/>
      <point x="665" y="780" type="line" smooth="yes"/>
      <point x="-13" y="0" type="line" smooth="yes"/>
    </contour>
    <contour>
      <point x="162" y="515" type="line" smooth="yes"/>
      <point x="30" y="515" type="line" smooth="yes"/>
      <point x="29" y="506" type="line" smooth="yes"/>
      <point x="56" y="413" type="line" smooth="yes"/>
      <point x="160" y="381" type="line" smooth="yes"/>
      <point x="273" y="424" type="line" smooth="yes"/>
      <point x="304" y="497" type="line" smooth="yes"/>
      <point x="305" y="510" type="line" smooth="yes"/>
      <point x="297" y="560" type="line" smooth="yes"/>
      <point x="271" y="590" type="line" smooth="yes"/>
      <point x="307" y="620" type="line" smooth="yes"/>
      <point x="324" y="669" type="line" smooth="yes"/>
      <point x="325" y="682" type="line" smooth="yes"/>
      <point x="304" y="749" type="line" smooth="yes"/>
      <point x="196" y="788" type="line" smooth="yes"/>
      <point x="94" y="758" type="line" smooth="yes"/>
      <point x="52" y="660" type="line" smooth="yes"/>
      <point x="51" y="650" type="line" smooth="yes"/>
      <point x="176" y="650" type="line" smooth="yes"/>
      <point x="179" y="674" type="line" smooth="yes"/>
      <point x="187" y="681" type="line" smooth="yes"/>
      <point x="193" y="674" type="line" smooth="yes"/>
      <point x="190" y="650" type="line" smooth="yes"/>
      <point x="186" y="641" type="line" smooth="yes"/>
      <point x="175" y="638" type="line" smooth="yes"/>
      <point x="135" y="638" type="line" smooth="yes"/>
      <point x="121" y="532" type="line" smooth="yes"/>
      <point x="163" y="532" type="line" smooth="yes"/>
      <point x="173" y="528" type="line" smooth="yes"/>
      <point x="176" y="515" type="line" smooth="yes"/>
      <point x="174" y="496" type="line" smooth="yes"/>
      <point x="166" y="489" type="line" smooth="yes"/>
      <point x="160" y="496" type="line" smooth="yes"/>
    </contour>
  </outline>
</glyph>
<glyph name="Aacute" format="1">
  <advance width="650"/>
  <unicode hex="00C1"/>
  <outline>
    <contour>
      <point x="349" y="560" type="line" smooth="yes"/>
      <point x="366" y="322" type="line" smooth="yes"/>
      <point x="270" y="322" type="line" smooth="yes"/>
    </contour>
    <contour>
      <point x="363" y="950" type="line" smooth="yes"/>
      <point x="295" y="840" type="line" smooth="yes"/>
      <point x="477" y="840" type="line" smooth="yes"/>
      <point x="556" y="950" type="line" smooth="yes"/>
    </contour>
    <contour>
      <point x="248" y="780" type="line" smooth="yes"/>
      <point x="-40" y="0" type="line" smooth="yes"/>
      <point x="164" y="0" type="line" smooth="yes"/>
      <point x="215" y="158" type="line" smooth="yes"/>
      <point x="377" y="158" type="line" smooth="yes"/>
      <point x="389" y="0" type="line" smooth="yes"/>
      <point x="592" y="0" type="line" smooth="yes"/>
      <point x="508" y="780" type="line" smooth="yes"/>
    </contour>
  </outline>
</glyph>
<glyph name="Atilde" format="1">
  <advance width="650"/>
  <unicode hex="00C3"/>
  <outline>
    <contour>
      <point x="349" y="560" type="line" smooth="yes"/>
      <point x="366" y="322" type="line" smooth="yes"/>
      <point x="270" y="322" type="line" smooth="yes"/>
    </contour>
    <contour>
      <point x="501" y="950" type="line" smooth="yes"/>
      <point x="488" y="926" type="line" smooth="yes"/>
      <point x="464" y="920" type="line" smooth="yes"/>
      <point x="402" y="943" type="line" smooth="yes"/>
      <point x="318" y="966" type="line" smooth="yes"/>
      <point x="238" y="939" type="line" smooth="yes"/>
      <point x="191" y="840" type="line" smooth="yes"/>
      <point x="286" y="840" type="line" smooth="yes"/>
      <point x="299" y="864" type="line" smooth="yes"/>
      <point x="323" y="870" type="line" smooth="yes"/>
      <point x="386" y="847" type="line" smooth="yes"/>
      <point x="469" y="824" type="line" smooth="yes"/>
      <point x="549" y="851" type="line" smooth="yes"/>
      <point x="596" y="950" type="line" smooth="yes"/>
    </contour>
    <contour>
      <point x="248" y="780" type="line" smooth="yes"/>
      <point x="-40" y="0" type="line" smooth="yes"/>
      <point x="164" y="0" type="line" smooth="yes"/>
      <point x="215" y="158" type="line" smooth="yes"/>
      <point x="377" y="158" type="line" smooth="yes"/>
      <point x="389" y="0" type="line" smooth="yes"/>
      <point x="592" y="0" type="line" smooth="yes"/>
      <point x="508" y="780" type="line" smooth="yes"/>
    </contour>
  </outline>
</glyph>
<glyph name="Aring" format="1">
  <advance width="650"/>
  <unicode hex="00C5"/>
  <outline>
    <contour>
      <point x="393" y="904" type="line" smooth="yes"/>
      <point x="424" y="892" type="line" smooth="yes"/>
      <point x="436" y="860" type="line" smooth="yes"/>
      <point x="420" y="821" type="line" smooth="yes"/>
      <point x="380" y="806" type="line" smooth="yes"/>
      <point x="349" y="818" type="line" smooth="yes"/>
      <point x="337" y="850" type="line" smooth="yes"/>
      <point x="353" y="889" type="line" smooth="yes"/>
    </contour>
    <contour>
      <point x="349" y="560" type="line" smooth="yes"/>
      <point x="366" y="322" type="line" smooth="yes"/>
      <point x="270" y="322" type="line" smooth="yes"/>
    </contour>
    <contour>
      <point x="248" y="780" type="line" smooth="yes"/>
      <point x="-40" y="0" type="line" smooth="yes"/>
      <point x="164" y="0" type="line" smooth="yes"/>
      <point x="215" y="158" type="line" smooth="yes"/>
      <point x="377" y="158" type="line" smooth="yes"/>
      <point x="389" y="0" type="line" smooth="yes"/>
      <point x="592" y="0" type="line" smooth="yes"/>
      <point x="508" y="780" type="line" smooth="yes"/>
      <point x="459" y="780" type="line" smooth="yes"/>
      <point x="487" y="819" type="line" smooth="yes"/>
      <point x="497" y="868" type="line" smooth="yes"/>
      <point x="469" y="937" type="line" smooth="yes"/>
      <point x="399" y="964" type="line" smooth="yes"/>
      <point x="312" y="929" type="line" smooth="yes"/>
      <point x="276" y="842" type="line" smooth="yes"/>
      <point x="282" y="808" type="line" smooth="yes"/>
      <point x="297" y="780" type="line" smooth="yes"/>
    </contour>
  </outline>
</glyph>
<glyph name="AE" format="1">
  <advance width="900"/>
  <unicode hex="00C6"/>
  <outline>
    <contour>
      <point x="402" y="560" type="line" smooth="yes"/>
      <point x="394" y="322" type="line" smooth="yes"/>
      <point x="299" y="322" type="line" smooth="yes"/>
    </contour>
    <contour>
      <point x="324" y="780" type="line" smooth="yes"/>
      <point x="-45" y="0" type="line" smooth="yes"/>
      <point x="159" y="0" type="line" smooth="yes"/>
      <point x="227" y="158" type="line" smooth="yes"/>
      <point x="388" y="158" type="line" smooth="yes"/>
      <point x="384" y="0" type="line" smooth="yes"/>
      <point x="811" y="0" type="line" smooth="yes"/>
      <point x="832" y="164" type="line" smooth="yes"/>
      <point x="586" y="164" type="line" smooth="yes"/>
      <point x="585" y="316" type="line" smooth="yes"/>
      <point x="802" y="316" type="line" smooth="yes"/>
      <point x="824" y="480" type="line" smooth="yes"/>
      <point x="585" y="480" type="line" smooth="yes"/>
      <point x="585" y="616" type="line" smooth="yes"/>
      <point x="892" y="616" type="line" smooth="yes"/>
      <point x="913" y="780" type="line" smooth="yes"/>
    </contour>
  </outline>
</glyph>
<glyph name="Ccedilla" format="1">
  <advance width="656"/>
  <unicode hex="00C7"/>
  <outline>
    <contour>
      <point x="161" y="-188" type="line" smooth="yes"/>
      <point x="202" y="-207" type="line" smooth="yes"/>
      <point x="272" y="-216" type="line" smooth="yes"/>
      <point x="371" y="-189" type="line" smooth="yes"/>
      <point x="406" y="-115" type="line" smooth="yes"/>
      <point x="381" y="-59" type="line" smooth="yes"/>
      <point x="317" y="-37" type="line" smooth="yes"/>
      <point x="330" y="-13" type="line" smooth="yes"/>
      <point x="521" y="55" type="line" smooth="yes"/>
      <point x="610" y="261" type="line" smooth="yes"/>
      <point x="611" y="270" type="line" smooth="yes"/>
      <point x="421" y="270" type="line" smooth="yes"/>
      <point x="390" y="184" type="line" smooth="yes"/>
      <point x="316" y="150" type="line" smooth="yes"/>
      <point x="305" y="150" type="line" smooth="yes"/>
      <point x="225" y="209" type="line" smooth="yes"/>
      <point x="225" y="370" type="line" smooth="yes"/>
      <point x="230" y="408" type="line" smooth="yes"/>
      <point x="270" y="570" type="line" smooth="yes"/>
      <point x="368" y="630" type="line" smooth="yes"/>
      <point x="379" y="630" type="line" smooth="yes"/>
      <point x="447" y="589" type="line" smooth="yes"/>
      <point x="449" y="480" type="line" smooth="yes"/>
      <point x="639" y="480" type="line" smooth="yes"/>
      <point x="644" y="519" type="line" smooth="yes"/>
      <point x="595" y="727" type="line" smooth="yes"/>
      <point x="385" y="794" type="line" smooth="yes"/>
      <point x="146" y="702" type="line" smooth="yes"/>
      <point x="37" y="408" type="line" smooth="yes"/>
      <point x="32" y="370" type="line" smooth="yes"/>
      <point x="63" y="93" type="line" smooth="yes"/>
      <point x="250" y="-11" type="line" smooth="yes"/>
      <point x="219" y="-70" type="line" smooth="yes"/>
      <point x="229" y="-99" type="line" smooth="yes"/>
      <point x="242" y="-97" type="line" smooth="yes"/>
      <point x="270" y="-94" type="line" smooth="yes"/>
      <point x="302" y="-100" type="line" smooth="yes"/>
      <point x="311" y="-115" type="line" smooth="yes"/>
      <point x="301" y="-132" type="line" smooth="yes"/>
      <point x="264" y="-138" type="line" smooth="yes"/>
      <point x="226" y="-133" type="line" smooth="yes"/>
      <point x="197" y="-121" type="line" smooth="yes"/>
    </contour>
  </outline>
</glyph>
<glyph name="Egrave" format="1">
  <advance width="580"/>
  <unicode hex="00C8"/>
  <outline>
    <contour>
      <point x="216" y="950" type="line" smooth="yes"/>
      <point x="265" y="840" type="line" smooth="yes"/>
      <point x="447" y="840" type="line" smooth="yes"/>
      <point x="409" y="950" type="line" smooth="yes"/>
    </contour>
    <contour>
      <point x="103" y="780" type="line" smooth="yes"/>
      <point x="1" y="0" type="line" smooth="yes"/>
      <point x="491" y="0" type="line" smooth="yes"/>
      <point x="512" y="164" type="line" smooth="yes"/>
      <point x="212" y="164" type="line" smooth="yes"/>
      <point x="232" y="316" type="line" smooth="yes"/>
      <point x="482" y="316" type="line" smooth="yes"/>
      <point x="504" y="480" type="line" smooth="yes"/>
      <point x="254" y="480" type="line" smooth="yes"/>
      <point x="272" y="616" type="line" smooth="yes"/>
      <point x="572" y="616" type="line" smooth="yes"/>
      <point x="593" y="780" type="line" smooth="yes"/>
    </contour>
  </outline>
</glyph>
<glyph name="Eth" format="1">
  <advance width="722"/>
  <unicode hex="00D0"/>
  <outline>
    <contour>
      <point x="271" y="164" type="line" smooth="yes"/>
      <point x="293" y="330" type="line" smooth="yes"/>
      <point x="444" y="330" type="line" smooth="yes"/>
      <point x="462" y="470" type="line" smooth="yes"/>
      <point x="311" y="470" type="line" smooth="yes"/>
      <point x="331" y="616" type="line" smooth="yes"/>
      <point x="376" y="616" type="line" smooth="yes"/>
      <point x="497" y="564" type="line" smooth="yes"/>
      <point x="507" y="410" type="line" smooth="yes"/>
      <point x="502" y="372" type="line" smooth="yes"/>
      <point x="456" y="217" type="line" smooth="yes"/>
      <point x="326" y="164" type="line" smooth="yes"/>
    </contour>
    <contour>
      <point x="700" y="410" type="line" smooth="yes"/>
      <point x="659" y="696" type="line" smooth="yes"/>
      <point x="407" y="780" type="line" smooth="yes"/>
      <point x="162" y="780" type="line" smooth="yes"/>
      <point x="121" y="470" type="line" smooth="yes"/>
      <point x="22" y="470" type="line" smooth="yes"/>
      <point x="4" y="330" type="line" smooth="yes"/>
      <point x="103" y="330" type="line" smooth="yes"/>
      <point x="60" y="0" type="line" smooth="yes"/>
      <point x="315" y="0" type="line" smooth="yes"/>
      <point x="583" y="85" type="line" smooth="yes"/>
      <point x="695" y="372" type="line" smooth="yes"/>
    </contour>
  </outline>
</glyph>
<glyph name="Ntilde" format="1">
  <advance width="690"/>
  <unicode hex="00D1"/>
  <outline>
    <contour>
      <point x="521" y="950" type="line" smooth="yes"/>
      <point x="508" y="926" type="line" smooth="yes"/>
      <point x="484" y="920" type="line" smooth="yes"/>
      <point x="422" y="943" type="line" smooth="yes"/>
      <point x="338" y="966" type="line" smooth="yes"/>
      <point x="258" y="939" type="line" smooth="yes"/>
      <point x="211" y="840" type="line" smooth="yes"/>
      <point x="306" y="840" type="line" smooth="yes"/>
      <point x="319" y="864" type="line" smooth="yes"/>
      <point x="343" y="870" type="line" smooth="yes"/>
      <point x="406" y="847" type="line" smooth="yes"/>
      <point x="489" y="824" type="line" smooth="yes"/>
      <point x="569" y="851" type="line" smooth="yes"/>
      <point x="616" y="950" type="line" smooth="yes"/>
    </contour>
    <contour>
      <point x="693" y="780" type="line" smooth="yes"/>
      <point x="513" y="780" type="line" smooth="yes"/>
      <point x="476" y="500" type="line" smooth="yes"/>
      <point x="462" y="350" type="line" smooth="yes"/>
      <point x="303" y="780" type="line" smooth="yes"/>
      <point x="103" y="780" type="line" smooth="yes"/>
      <point x="1" y="0" type="line" smooth="yes"/>
      <point x="181" y="0" type="line" smooth="yes"/>
      <point x="217" y="280" type="line" smooth="yes"/>
      <point x="232" y="430" type="line" smooth="yes"/>
      <point x="391" y="0" type="line" smooth="yes"/>
      <point x="591" y="0" type="line" smooth="yes"/>
    </contour>
  </outline>
</glyph>
<glyph name="Oacute" format="1">
  <advance width="672"/>
  <unicode hex="00D3"/>
  <outline>
    <contour>
      <point x="305" y="150" type="line" smooth="yes"/>
      <point x="225" y="209" type="line" smooth="yes"/>
      <point x="225" y="370" type="line" smooth="yes"/>
      <point x="230" y="408" type="line" smooth="yes"/>
      <point x="272" y="570" type="line" smooth="yes"/>
      <point x="368" y="630" type="line" smooth="yes"/>
      <point x="379" y="630" type="line" smooth="yes"/>
      <point x="460" y="571" type="line" smooth="yes"/>
      <point x="459" y="410" type="line" smooth="yes"/>
      <point x="454" y="372" type="line" smooth="yes"/>
      <point x="412" y="210" type="line" smooth="yes"/>
      <point x="316" y="150" type="line" smooth="yes"/>
    </contour>
    <contour>
      <point x="385" y="794" type="line" smooth="yes"/>
      <point x="146" y="702" type="line" smooth="yes"/>
      <point x="37" y="408" type="line" smooth="yes"/>
      <point x="32" y="370" type="line" smooth="yes"/>
      <point x="74" y="77" type="line" smooth="yes"/>
      <point x="300" y="-14" type="line" smooth="yes"/>
      <point x="539" y="78" type="line" smooth="yes"/>
      <point x="647" y="372" type="line" smooth="yes"/>
      <point x="652" y="410" type="line" smooth="yes"/>
      <point x="611" y="703" type="line" smooth="yes"/>
    </contour>
    <contour>
      <point x="378" y="950" type="line" smooth="yes"/>
      <point x="310" y="840" type="line" smooth="yes"/>
      <point x="492" y="840" type="line" smooth="yes"/>
      <point x="571" y="950" type="line" smooth="yes"/>
    </contour>
  </outline>
</glyph>
<glyph name="Otilde" format="1">
  <advance width="672"/>
  <unicode hex="00D5"/>
  <outline>
    <contour>
      <point x="305" y="150" type="line" smooth="yes"/>
      <point x="225" y="209" type="line" smooth="yes"/>
      <point x="225" y="370" type="line" smooth="yes"/>
      <point x="230" y="408" type="line" smooth="yes"/>
      <point x="272" y="570" type="line" smooth="yes"/>
      <point x="368" y="630" type="line" smooth="yes"/>
      <point x="379" y="630" type="line" smooth="yes"/>
      <point x="460" y="571" type="line" smooth="yes"/>
      <point x="459" y="410" type="line" smooth="yes"/>
      <point x="454" y="372" type="line" smooth="yes"/>
      <point x="412" y="210" type="line" smooth="yes"/>
      <point x="316" y="150" type="line" smooth="yes"/>
    </contour>
    <contour>
      <point x="385" y="794" type="line" smooth="yes"/>
      <point x="146" y="702" type="line" smooth="yes"/>
      <point x="37" y="408" type="line" smooth="yes"/>
      <point x="32" y="370" type="line" smooth="yes"/>
      <point x="74" y="77" type="line" smooth="yes"/>
      <point x="300" y="-14" type="line" smooth="yes"/>
      <point x="539" y="78" type="line" smooth="yes"/>
      <point x="647" y="372" type="line" smooth="yes"/>
      <point x="652" y="410" type="line" smooth="yes"/>
      <point x="611" y="703" type="line" smooth="yes"/>
    </contour>
    <contour>
      <point x="516" y="950" type="line" smooth="yes"/>
      <point x="503" y="926" type="line" smooth="yes"/>
      <point x="479" y="920" type="line" smooth="yes"/>
      <point x="417" y="943" type="line" smooth="yes"/>
      <point x="333" y="966" type="line" smooth="yes"/>
      <point x="253" y="939" type="line" smooth="yes"/>
      <point x="206" y="840" type="line" smooth="yes"/>
      <point x="301" y="840" type="line" smooth="yes"/>
      <point x="314" y="864" type="line" smooth="yes"/>
      <point x="338" y="870" type="line" smooth="yes"/>
      <point x="401" y="847" type="line" smooth="yes"/>
      <point x="484" y="824" type="line" smooth="yes"/>
      <point x="564" y="851" type="line" smooth="yes"/>
      <point x="611" y="950" type="line" smooth="yes"/>
    </contour>
  </outline>
</glyph>
<glyph name="multiply" format="1">
  <advance width="600"/>
  <unicode hex="00D7"/>
  <outline>
    <contour>
      <point x="109" y="117" type="line" smooth="yes"/>
      <point x="287" y="274" type="line" smooth="yes"/>
      <point x="423" y="117" type="line" smooth="yes"/>
      <point x="554" y="233" type="line" smooth="yes"/>
      <point x="418" y="390" type="line" smooth="yes"/>
      <point x="596" y="547" type="line" smooth="yes"/>
      <point x="495" y="663" type="line" smooth="yes"/>
      <point x="317" y="506" type="line" smooth="yes"/>
      <point x="181" y="663" type="line" smooth="yes"/>
      <point x="50" y="547" type="line" smooth="yes"/>
      <point x="186" y="390" type="line" smooth="yes"/>
      <point x="8" y="233" type="line" smooth="yes"/>
    </contour>
  </outline>
</glyph>
<glyph name="Oslash" format="1">
  <advance width="680"/>
  <unicode hex="00D8"/>
  <outline>
    <contour>
      <point x="305" y="150" type="line" smooth="yes"/>
      <point x="263" y="158" type="line" smooth="yes"/>
      <point x="236" y="183" type="line" smooth="yes"/>
      <point x="466" y="479" type="line" smooth="yes"/>
      <point x="463" y="446" type="line" smooth="yes"/>
      <point x="459" y="410" type="line" smooth="yes"/>
      <point x="454" y="372" type="line" smooth="yes"/>
      <point x="412" y="210" type="line" smooth="yes"/>
      <point x="316" y="150" type="line" smooth="yes"/>
    </contour>
    <contour>
      <point x="225" y="370" type="line" smooth="yes"/>
      <point x="230" y="408" type="line" smooth="yes"/>
      <point x="272" y="570" type="line" smooth="yes"/>
      <point x="368" y="630" type="line" smooth="yes"/>
      <point x="379" y="630" type="line" smooth="yes"/>
      <point x="421" y="621" type="line" smooth="yes"/>
      <point x="448" y="597" type="line" smooth="yes"/>
      <point x="218" y="301" type="line" smooth="yes"/>
      <point x="220" y="334" type="line" smooth="yes"/>
    </contour>
    <contour>
      <point x="385" y="794" type="line" smooth="yes"/>
      <point x="146" y="702" type="line" smooth="yes"/>
      <point x="37" y="408" type="line" smooth="yes"/>
      <point x="32" y="370" type="line" smooth="yes"/>
      <point x="27" y="212" type="line" smooth="yes"/>
      <point x="60" y="98" type="line" smooth="yes"/>
      <point x="-16" y="0" type="line" smooth="yes"/>
      <point x="94" y="0" type="line" smooth="yes"/>
      <point x="119" y="32" type="line" smooth="yes"/>
      <point x="198" y="-3" type="line" smooth="yes"/>
      <point x="300" y="-14" type="line" smooth="yes"/>
      <point x="539" y="78" type="line" smooth="yes"/>
      <point x="647" y="372" type="line" smooth="yes"/>
      <point x="652" y="410" type="line" smooth="yes"/>
      <point x="657" y="568" type="line" smooth="yes"/>
      <point x="624" y="682" type="line" smooth="yes"/>
      <point x="700" y="780" type="line" smooth="yes"/>
      <point x="590" y="780" type="line" smooth="yes"/>
      <point x="565" y="748" type="line" smooth="yes"/>
      <point x="487" y="783" type="line" smooth="yes"/>
    </contour>
  </outline>
</glyph>
<glyph name="germandbls" format="1">
  <advance width="648"/>
  <unicode hex="00DF"/>
  <outline>
    <contour>
      <point x="284" y="324" type="line" smooth="yes"/>
      <point x="373" y="256" type="line" smooth="yes"/>
      <point x="413" y="208" type="line" smooth="yes"/>
      <point x="420" y="163" type="line" smooth="yes"/>
      <point x="413" y="136" type="line" smooth="yes"/>
      <point x="392" y="124" type="line" smooth="yes"/>
      <point x="375" y="136" type="line" smooth="yes"/>
      <point x="374" y="170" type="line" smooth="yes"/>
      <point x="231" y="170" type="line" smooth="yes"/>
      <point x="230" y="161" type="line" smooth="yes"/>
      <point x="250" y="38" type="line" smooth="yes"/>
      <point x="384" y="-14" type="line" smooth="yes"/>
      <point x="543" y="34" type="line" smooth="yes"/>
      <point x="602" y="153" type="line" smooth="yes"/>
      <point x="604" y="168" type="line" smooth="yes"/>
      <point x="582" y="290" type="line" smooth="yes"/>
      <point x="495" y="387" type="line" smooth="yes"/>
      <point x="481" y="398" type="line" smooth="yes"/>
      <point x="555" y="467" type="line" smooth="yes"/>
      <point x="595" y="575" type="line" smooth="yes"/>
      <point x="597" y="590" type="line" smooth="yes"/>
      <point x="554" y="748" type="line" smooth="yes"/>
      <point x="354" y="814" type="line" smooth="yes"/>
      <point x="146" y="748" type="line" smooth="yes"/>
      <point x="72" y="589" type="line" smooth="yes"/>
      <point x="-5" y="0" type="line" smooth="yes"/>
      <point x="179" y="0" type="line" smooth="yes"/>
      <point x="255" y="580" type="line" smooth="yes"/>
      <point x="279" y="631" type="line" smooth="yes"/>
      <point x="340" y="656" type="line" smooth="yes"/>
      <point x="396" y="637" type="line" smooth="yes"/>
      <point x="412" y="588" type="line" smooth="yes"/>
      <point x="379" y="501" type="line" smooth="yes"/>
      <point x="299" y="439" type="line" smooth="yes"/>
    </contour>
  </outline>
</glyph>
<glyph name="aacute" format="1">
  <advance width="560"/>
  <unicode hex="00E1"/>
  <outline>
    <contour>
      <point x="225" y="134" type="line" smooth="yes"/>
      <point x="190" y="147" type="line" smooth="yes"/>
      <point x="182" y="176" type="line" smooth="yes"/>
      <point x="183" y="185" type="line" smooth="yes"/>
      <point x="199" y="216" type="line" smooth="yes"/>
      <point x="238" y="232" type="line" smooth="yes"/>
      <point x="315" y="244" type="line" smooth="yes"/>
      <point x="304" y="165" type="line" smooth="yes"/>
      <point x="270" y="143" type="line" smooth="yes"/>
    </contour>
    <contour>
      <point x="311" y="0" type="line" smooth="yes"/>
      <point x="477" y="0" type="line" smooth="yes"/>
      <point x="486" y="150" type="line" smooth="yes"/>
      <point x="511" y="340" type="line" smooth="yes"/>
      <point x="470" y="489" type="line" smooth="yes"/>
      <point x="286" y="544" type="line" smooth="yes"/>
      <point x="102" y="492" type="line" smooth="yes"/>
      <point x="43" y="366" type="line" smooth="yes"/>
      <point x="42" y="355" type="line" smooth="yes"/>
      <point x="215" y="355" type="line" smooth="yes"/>
      <point x="231" y="391" type="line" smooth="yes"/>
      <point x="277" y="406" type="line" smooth="yes"/>
      <point x="321" y="392" type="line" smooth="yes"/>
      <point x="329" y="350" type="line" smooth="yes"/>
      <point x="207" y="331" type="line" smooth="yes"/>
      <point x="63" y="284" type="line" smooth="yes"/>
      <point x="-3" y="166" type="line" smooth="yes"/>
      <point x="-5" y="151" type="line" smooth="yes"/>
      <point x="19" y="37" type="line" smooth="yes"/>
      <point x="145" y="-14" type="line" smooth="yes"/>
      <point x="237" y="4" type="line" smooth="yes"/>
      <point x="311" y="54" type="line" smooth="yes"/>
    </contour>
    <contour>
      <point x="333" y="780" type="line" smooth="yes"/>
      <point x="217" y="590" type="line" smooth="yes"/>
      <point x="399" y="590" type="line" smooth="yes"/>
      <point x="535" y="780" type="line" smooth="yes"/>
    </contour>
  </outline>
</glyph>
<glyph name="aring" format="1">
  <advance width="557"/>
  <unicode hex="00E5"/>
  <outline>
    <contour>
      <point x="225" y="134" type="line" smooth="yes"/>
      <point x="190" y="147" type="line" smooth="yes"/>
      <point x="182" y="176" type="line" smooth="yes"/>
      <point x="183" y="185" type="line" smooth="yes"/>
      <point x="199" y="216" type="line" smooth="yes"/>
      <point x="238" y="232" type="line" smooth="yes"/>
      <point x="315" y="244" type="line" smooth="yes"/>
      <point x="304" y="165" type="line" smooth="yes"/>
      <point x="270" y="143" type="line" smooth="yes"/>
    </contour>
    <contour>
      <point x="311" y="0" type="line" smooth="yes"/>
      <point x="477" y="0" type="line" smooth="yes"/>
      <point x="486" y="150" type="line" smooth="yes"/>
      <point x="511" y="340" type="line" smooth="yes"/>
      <point x="470" y="489" type="line" smooth="yes"/>
      <point x="286" y="544" type="line" smooth="yes"/>
      <point x="102" y="492" type="line" smooth="yes"/>
      <point x="43" y="366" type="line" smooth="yes"/>
      <point x="42" y="355" type="line" smooth="yes"/>
      <point x="215" y="355" type="line" smooth="yes"/>
      <point x="231" y="391" type="line" smooth="yes"/>
      <point x="277" y="406" type="line" smooth="yes"/>
      <point x="321" y="392" type="line" smooth="yes"/>
      <point x="329" y="350" type="line" smooth="yes"/>
      <point x="207" y="331" type="line" smooth="yes"/>
      <point x="63" y="284" type="line" smooth="yes"/>
      <point x="-3" y="166" type="line" smooth="yes"/>
      <point x="-5" y="151" type="line" smooth="yes"/>
      <point x="19" y="37" type="line" smooth="yes"/>
      <point x="145" y="-14" type="line" smooth="yes"/>
      <point x="237" y="4" type="line" smooth="yes"/>
      <point x="311" y="54" type="line" smooth="yes"/>
    </contour>
    <contour>
      <point x="327" y="734" type="line" smooth="yes"/>
      <point x="358" y="722" type="line" smooth="yes"/>
      <point x="370" y="690" type="line" smooth="yes"/>
      <point x="354" y="651" type="line" smooth="yes"/>
      <point x="314" y="636" type="line" smooth="yes"/>
      <point x="283" y="648" type="line" smooth="yes"/>
      <point x="271" y="680" type="line" smooth="yes"/>
      <point x="287" y="719" type="line" smooth="yes"/>
    </contour>
    <contour>
      <point x="308" y="576" type="line" smooth="yes"/>
      <point x="395" y="611" type="line" smooth="yes"/>
      <point x="431" y="698" type="line" smooth="yes"/>
      <point x="403" y="767" type="line" smooth="yes"/>
      <point x="333" y="794" type="line" smooth="yes"/>
      <point x="246" y="759" type="line" smooth="yes"/>
      <point x="210" y="672" type="line" smooth="yes"/>
      <point x="238" y="603" type="line" smooth="yes"/>
    </contour>
  </outline>
</glyph>
<glyph name="ae" format="1">
  <advance width="852"/>
  <unicode hex="00E6"/>
  <outline>
    <contour>
      <point x="591" y="406" type="line" smooth="yes"/>
      <point x="640" y="387" type="line" smooth="yes"/>
      <point x="652" y="330" type="line" smooth="yes"/>
      <point x="510" y="330" type="line" smooth="yes"/>
      <point x="541" y="389" type="line" smooth="yes"/>
    </contour>
    <contour>
      <point x="225" y="134" type="line" smooth="yes"/>
      <point x="190" y="147" type="line" smooth="yes"/>
      <point x="182" y="176" type="line" smooth="yes"/>
      <point x="183" y="185" type="line" smooth="yes"/>
      <point x="199" y="216" type="line" smooth="yes"/>
      <point x="238" y="232" type="line" smooth="yes"/>
      <point x="314" y="244" type="line" smooth="yes"/>
      <point x="312" y="206" type="line" smooth="yes"/>
      <point x="313" y="171" type="line" smooth="yes"/>
      <point x="266" y="142" type="line" smooth="yes"/>
    </contour>
    <contour>
      <point x="286" y="544" type="line" smooth="yes"/>
      <point x="102" y="492" type="line" smooth="yes"/>
      <point x="43" y="366" type="line" smooth="yes"/>
      <point x="42" y="355" type="line" smooth="yes"/>
      <point x="215" y="355" type="line" smooth="yes"/>
      <point x="231" y="391" type="line" smooth="yes"/>
      <point x="277" y="406" type="line" smooth="yes"/>
      <point x="321" y="392" type="line" smooth="yes"/>
      <point x="329" y="350" type="line" smooth="yes"/>
      <point x="207" y="331" type="line" smooth="yes"/>
      <point x="63" y="284" type="line" smooth="yes"/>
      <point x="-3" y="166" type="line" smooth="yes"/>
      <point x="-5" y="151" type="line" smooth="yes"/>
      <point x="23" y="37" type="line" smooth="yes"/>
      <point x="165" y="-14" type="line" smooth="yes"/>
      <point x="273" y="4" type="line" smooth="yes"/>
      <point x="361" y="58" type="line" smooth="yes"/>
      <point x="440" y="5" type="line" smooth="yes"/>
      <point x="557" y="-14" type="line" smooth="yes"/>
      <point x="738" y="35" type="line" smooth="yes"/>
      <point x="814" y="163" type="line" smooth="yes"/>
      <point x="815" y="170" type="line" smooth="yes"/>
      <point x="642" y="170" type="line" smooth="yes"/>
      <point x="620" y="138" type="line" smooth="yes"/>
      <point x="565" y="124" type="line" smooth="yes"/>
      <point x="514" y="140" type="line" smooth="yes"/>
      <point x="493" y="200" type="line" smooth="yes"/>
      <point x="819" y="200" type="line" smooth="yes"/>
      <point x="827" y="260" type="line" smooth="yes"/>
      <point x="786" y="467" type="line" smooth="yes"/>
      <point x="597" y="544" type="line" smooth="yes"/>
      <point x="511" y="530" type="line" smooth="yes"/>
      <point x="448" y="491" type="line" smooth="yes"/>
      <point x="386" y="530" type="line" smooth="yes"/>
    </contour>
  </outline>
</glyph>
<glyph name="ccedilla" format="1">
  <advance width="525"/>
  <unicode hex="00E7"/>
  <outline>
    <contour>
      <point x="89" y="-188" type="line" smooth="yes"/>
      <point x="130" y="-207" type="line" smooth="yes"/>
      <point x="200" y="-216" type="line" smooth="yes"/>
      <point x="299" y="-189" type="line" smooth="yes"/>
      <point x="334" y="-115" type="line" smooth="yes"/>
      <point x="309" y="-59" type="line" smooth="yes"/>
      <point x="245" y="-37" type="line" smooth="yes"/>
      <point x="258" y="-13" type="line" smooth="yes"/>
      <point x="414" y="45" type="line" smooth="yes"/>
      <point x="479" y="178" type="line" smooth="yes"/>
      <point x="482" y="200" type="line" smooth="yes"/>
      <point x="309" y="200" type="line" smooth="yes"/>
      <point x="292" y="160" type="line" smooth="yes"/>
      <point x="250" y="144" type="line" smooth="yes"/>
      <point x="200" y="170" type="line" smooth="yes"/>
      <point x="191" y="246" type="line" smooth="yes"/>
      <point x="196" y="284" type="line" smooth="yes"/>
      <point x="224" y="361" type="line" smooth="yes"/>
      <point x="279" y="386" type="line" smooth="yes"/>
      <point x="319" y="366" type="line" smooth="yes"/>
      <point x="325" y="320" type="line" smooth="yes"/>
      <point x="498" y="320" type="line" smooth="yes"/>
      <point x="501" y="342" type="line" smooth="yes"/>
      <point x="459" y="493" type="line" smooth="yes"/>
      <point x="288" y="544" type="line" smooth="yes"/>
      <point x="94" y="469" type="line" smooth="yes"/>
      <point x="13" y="284" type="line" smooth="yes"/>
      <point x="8" y="246" type="line" smooth="yes"/>
      <point x="38" y="76" type="line" smooth="yes"/>
      <point x="179" y="-10" type="line" smooth="yes"/>
      <point x="147" y="-70" type="line" smooth="yes"/>
      <point x="157" y="-99" type="line" smooth="yes"/>
      <point x="170" y="-97" type="line" smooth="yes"/>
      <point x="198" y="-94" type="line" smooth="yes"/>
      <point x="230" y="-100" type="line" smooth="yes"/>
      <point x="239" y="-115" type="line" smooth="yes"/>
      <point x="229" y="-132" type="line" smooth="yes"/>
      <point x="192" y="-138" type="line" smooth="yes"/>
      <point x="154" y="-133" type="line" smooth="yes"/>
      <point x="125" y="-121" type="line" smooth="yes"/>
    </contour>
  </outline>
</glyph>
<glyph name="egrave" format="1">
  <advance width="556"/>
  <unicode hex="00E8"/>
  <outline>
    <contour>
      <point x="284" y="406" type="line" smooth="yes"/>
      <point x="333" y="387" type="line" smooth="yes"/>
      <point x="345" y="330" type="line" smooth="yes"/>
      <point x="203" y="330" type="line" smooth="yes"/>
      <point x="234" y="389" type="line" smooth="yes"/>
    </contour>
    <contour>
      <point x="512" y="200" type="line" smooth="yes"/>
      <point x="520" y="260" type="line" smooth="yes"/>
      <point x="479" y="467" type="line" smooth="yes"/>
      <point x="290" y="544" type="line" smooth="yes"/>
      <point x="94" y="469" type="line" smooth="yes"/>
      <point x="13" y="284" type="line" smooth="yes"/>
      <point x="8" y="246" type="line" smooth="yes"/>
      <point x="53" y="60" type="line" smooth="yes"/>
      <point x="250" y="-14" type="line" smooth="yes"/>
      <point x="431" y="35" type="line" smooth="yes"/>
      <point x="507" y="163" type="line" smooth="yes"/>
      <point x="508" y="170" type="line" smooth="yes"/>
      <point x="335" y="170" type="line" smooth="yes"/>
      <point x="313" y="138" type="line" smooth="yes"/>
      <point x="258" y="124" type="line" smooth="yes"/>
      <point x="207" y="140" type="line" smooth="yes"/>
      <point x="186" y="200" type="line" smooth="yes"/>
    </contour>
    <contour>
      <point x="135" y="780" type="line" smooth="yes"/>
      <point x="221" y="590" type="line" smooth="yes"/>
      <point x="403" y="590" type="line" smooth="yes"/>
      <point x="337" y="780" type="line" smooth="yes"/>
    </contour>
  </outline>
</glyph>
<glyph name="edieresis" format="1">
  <advance width="560"/>
  <unicode hex="00EB"/>
  <outline>
    <contour>
      <point x="284" y="406" type="line" smooth="yes"/>
      <point x="333" y="387" type="line" smooth="yes"/>
      <point x="345" y="330" type="line" smooth="yes"/>
      <point x="203" y="330" type="line" smooth="yes"/>
      <point x="234" y="389" type="line" smooth="yes"/>
    </contour>
    <contour>
      <point x="512" y="200" type="line" smooth="yes"/>
      <point x="520" y="260" type="line" smooth="yes"/>
      <point x="479" y="467" type="line" smooth="yes"/>
      <point x="290" y="544" type="line" smooth="yes"/>
      <point x="94" y="469" type="line" smooth="yes"/>
      <point x="13" y="284" type="line" smooth="yes"/>
      <point x="8" y="246" type="line" smooth="yes"/>
      <point x="53" y="60" type="line" smooth="yes"/>
      <point x="250" y="-14" type="line" smooth="yes"/>
      <point x="431" y="35" type="line" smooth="yes"/>
      <point x="507" y="163" type="line" smooth="yes"/>
      <point x="508" y="170" type="line" smooth="yes"/>
      <point x="335" y="170" type="line" smooth="yes"/>
      <point x="313" y="138" type="line" smooth="yes"/>
      <point x="258" y="124" type="line" smooth="yes"/>
      <point x="207" y="140" type="line" smooth="yes"/>
      <point x="186" y="200" type="line" smooth="yes"/>
    </contour>
    <contour>
      <point x="547" y="780" type="line" smooth="yes"/>
      <point x="357" y="780" type="line" smooth="yes"/>
      <point x="332" y="590" type="line" smooth="yes"/>
      <point x="522" y="590" type="line" smooth="yes"/>
    </contour>
    <contour>
      <point x="317" y="780" type="line" smooth="yes"/>
      <point x="127" y="780" type="line" smooth="yes"/>
      <point x="102" y="590" type="line" smooth="yes"/>
      <point x="292" y="590" type="line" smooth="yes"/>
    </contour>
  </outline>
</glyph>
<glyph name="eth" format="1">
  <advance width="555"/>
  <unicode hex="00F0"/>
  <outline>
    <contour>
      <point x="196" y="284" type="line" smooth="yes"/>
      <point x="224" y="361" type="line" smooth="yes"/>
      <point x="279" y="386" type="line" smooth="yes"/>
      <point x="333" y="360" type="line" smooth="yes"/>
      <point x="340" y="284" type="line" smooth="yes"/>
      <point x="335" y="246" type="line" smooth="yes"/>
      <point x="307" y="169" type="line" smooth="yes"/>
      <point x="252" y="144" type="line" smooth="yes"/>
      <point x="198" y="170" type="line" smooth="yes"/>
      <point x="191" y="246" type="line" smooth="yes"/>
    </contour>
    <contour>
      <point x="61" y="650" type="line" smooth="yes"/>
      <point x="105" y="646" type="line" smooth="yes"/>
      <point x="150" y="636" type="line" smooth="yes"/>
      <point x="79" y="600" type="line" smooth="yes"/>
      <point x="66" y="500" type="line" smooth="yes"/>
      <point x="257" y="598" type="line" smooth="yes"/>
      <point x="289" y="575" type="line" smooth="yes"/>
      <point x="318" y="539" type="line" smooth="yes"/>
      <point x="298" y="543" type="line" smooth="yes"/>
      <point x="270" y="544" type="line" smooth="yes"/>
      <point x="103" y="474" type="line" smooth="yes"/>
      <point x="13" y="284" type="line" smooth="yes"/>
      <point x="8" y="246" type="line" smooth="yes"/>
      <point x="51" y="59" type="line" smooth="yes"/>
      <point x="241" y="-14" type="line" smooth="yes"/>
      <point x="437" y="61" type="line" smooth="yes"/>
      <point x="518" y="246" type="line" smooth="yes"/>
      <point x="523" y="285" type="line" smooth="yes"/>
      <point x="527" y="474" type="line" smooth="yes"/>
      <point x="468" y="653" type="line" smooth="yes"/>
      <point x="454" y="673" type="line" smooth="yes"/>
      <point x="439" y="691" type="line" smooth="yes"/>
      <point x="484" y="714" type="line" smooth="yes"/>
      <point x="498" y="814" type="line" smooth="yes"/>
      <point x="367" y="747" type="line" smooth="yes"/>
      <point x="237" y="794" type="line" smooth="yes"/>
      <point x="83" y="814" type="line" smooth="yes"/>
    </contour>
  </outline>
</glyph>
<glyph name="ocircumflex" format="1">
  <advance width="560"/>
  <unicode hex="00F4"/>
  <outline>
    <contour>
      <point x="196" y="284" type="line" smooth="yes"/>
      <point x="224" y="361" type="line" smooth="yes"/>
      <point x="279" y="386" type="line" smooth="yes"/>
      <point x="333" y="360" type="line" smooth="yes"/>
      <point x="340" y="284" type="line" smooth="yes"/>
      <point x="335" y="246" type="line" smooth="yes"/>
      <point x="307" y="169" type="line" smooth="yes"/>
      <point x="252" y="144" type="line" smooth="yes"/>
      <point x="198" y="170" type="line" smooth="yes"/>
      <point x="191" y="246" type="line" smooth="yes"/>
    </contour>
    <contour>
      <point x="523" y="284" type="line" smooth="yes"/>
      <point x="480" y="471" type="line" smooth="yes"/>
      <point x="290" y="544" type="line" smooth="yes"/>
      <point x="94" y="469" type="line" smooth="yes"/>
      <point x="13" y="284" type="line" smooth="yes"/>
      <point x="8" y="246" type="line" smooth="yes"/>
      <point x="52" y="59" type="line" smooth="yes"/>
      <point x="241" y="-14" type="line" smooth="yes"/>
      <point x="437" y="61" type="line" smooth="yes"/>
      <point x="518" y="246" type="line" smooth="yes"/>
    </contour>
    <contour>
      <point x="243" y="590" type="line" smooth="yes"/>
      <point x="318" y="663" type="line" smooth="yes"/>
      <point x="373" y="590" type="line" smooth="yes"/>
      <point x="533" y="590" type="line" smooth="yes"/>
      <point x="423" y="780" type="line" smooth="yes"/>
      <point x="243" y="780" type="line" smooth="yes"/>
      <point x="83" y="590" type="line" smooth="yes"/>
    </contour>
  </outline>
</glyph>
<glyph name="otilde" format="1">
  <advance width="560"/>
  <unicode hex="00F5"/>
  <outline>
    <contour>
      <point x="196" y="284" type="line" smooth="yes"/>
      <point x="224" y="361" type="line" smooth="yes"/>
      <point x="279" y="386" type="line" smooth="yes"/>
      <point x="333" y="360" type="line" smooth="yes"/>
      <point x="340" y="284" type="line" smooth="yes"/>
      <point x="335" y="246" type="line" smooth="yes"/>
      <point x="307" y="169" type="line" smooth="yes"/>
      <point x="252" y="144" type="line" smooth="yes"/>
      <point x="198" y="170" type="line" smooth="yes"/>
      <point x="191" y="246" type="line" smooth="yes"/>
    </contour>
    <contour>
      <point x="523" y="284" type="line" smooth="yes"/>
      <point x="480" y="471" type="line" smooth="yes"/>
      <point x="290" y="544" type="line" smooth="yes"/>
      <point x="94" y="469" type="line" smooth="yes"/>
      <point x="13" y="284" type="line" smooth="yes"/>
      <point x="8" y="246" type="line" smooth="yes"/>
      <point x="52" y="59" type="line" smooth="yes"/>
      <point x="241" y="-14" type="line" smooth="yes"/>
      <point x="437" y="61" type="line" smooth="yes"/>
      <point x="518" y="246" type="line" smooth="yes"/>
    </contour>
    <contour>
      <point x="428" y="780" type="line" smooth="yes"/>
      <point x="417" y="753" type="line" smooth="yes"/>
      <point x="394" y="745" type="line" smooth="yes"/>
      <point x="326" y="771" type="line" smooth="yes"/>
      <point x="240" y="796" type="line" smooth="yes"/>
      <point x="150" y="755" type="line" smooth="yes"/>
      <point x="97" y="620" type="line" smooth="yes"/>
      <point x="217" y="620" type="line" smooth="yes"/>
      <point x="229" y="647" type="line" smooth="yes"/>
      <point x="252" y="655" type="line" smooth="yes"/>
      <point x="319" y="630" type="line" smooth="yes"/>
      <point x="405" y="604" type="line" smooth="yes"/>
      <point x="495" y="645" type="line" smooth="yes"/>
      <point x="548" y="780" type="line" smooth="yes"/>
    </contour>
  </outline>
</glyph>
<glyph name="divide" format="1">
  <advance width="600"/>
  <unicode hex="00F7"/>
  <outline>
    <contour>
      <point x="436" y="690" type="line" smooth="yes"/>
      <point x="246" y="690" type="line" smooth="yes"/>
      <point x="221" y="500" type="line" smooth="yes"/>
      <point x="411" y="500" type="line" smooth="yes"/>
    </contour>
    <contour>
      <point x="382" y="280" type="line" smooth="yes"/>
      <point x="192" y="280" type="line" smooth="yes"/>
      <point x="167" y="90" type="line" smooth="yes"/>
      <point x="357" y="90" type="line" smooth="yes"/>
    </contour>
    <contour>
      <point x="31" y="308" type="line" smooth="yes"/>
      <point x="551" y="308" type="line" smooth="yes"/>
      <point x="573" y="472" type="line" smooth="yes"/>
      <point x="53" y="472" type="line" smooth="yes"/>
    </contour>
  </outline>
</glyph>
<glyph name="oslash" format="1">
  <advance width="560"/>
  <unicode hex="00F8"/>
  <outline>
    <contour>
      <point x="196" y="284" type="line" smooth="yes"/>
      <point x="224" y="361" type="line" smooth="yes"/>
      <point x="279" y="386" type="line" smooth="yes"/>
      <point x="303" y="383" type="line" smooth="yes"/>
      <point x="321" y="374" type="line" smooth="yes"/>
      <point x="189" y="232" type="line" smooth="yes"/>
      <point x="191" y="246" type="line" smooth="yes"/>
    </contour>
    <contour>
      <point x="335" y="246" type="line" smooth="yes"/>
      <point x="307" y="169" type="line" smooth="yes"/>
      <point x="252" y="144" type="line" smooth="yes"/>
      <point x="228" y="147" type="line" smooth="yes"/>
      <point x="209" y="156" type="line" smooth="yes"/>
      <point x="341" y="299" type="line" smooth="yes"/>
      <point x="341" y="292" type="line" smooth="yes"/>
      <point x="340" y="284" type="line" smooth="yes"/>
    </contour>
    <contour>
      <point x="523" y="284" type="line" smooth="yes"/>
      <point x="521" y="380" type="line" smooth="yes"/>
      <point x="489" y="458" type="line" smooth="yes"/>
      <point x="555" y="530" type="line" smooth="yes"/>
      <point x="465" y="530" type="line" smooth="yes"/>
      <point x="441" y="504" type="line" smooth="yes"/>
      <point x="375" y="534" type="line" smooth="yes"/>
      <point x="290" y="544" type="line" smooth="yes"/>
      <point x="94" y="469" type="line" smooth="yes"/>
      <point x="13" y="284" type="line" smooth="yes"/>
      <point x="8" y="246" type="line" smooth="yes"/>
      <point x="10" y="150" type="line" smooth="yes"/>
      <point x="42" y="72" type="line" smooth="yes"/>
      <point x="-25" y="0" type="line" smooth="yes"/>
      <point x="65" y="0" type="line" smooth="yes"/>
      <point x="89" y="26" type="line" smooth="yes"/>
      <point x="155" y="-4" type="line" smooth="yes"/>
      <point x="241" y="-14" type="line" smooth="yes"/>
      <point x="437" y="61" type="line" smooth="yes"/>
      <point x="518" y="246" type="line" smooth="yes"/>
    </contour>
  </outline>
</glyph>
<glyph name="udieresis" format="1">
  <advance width="595"/>
  <unicode hex="00FC"/>
  <outline>
    <contour>
      <point x="64" y="530" type="line" smooth="yes"/>
      <point x="18" y="175" type="line" smooth="yes"/>
      <point x="36" y="45" type="line" smooth="yes"/>
      <point x="158" y="-14" type="line" smooth="yes"/>
      <point x="262" y="8" type="line" smooth="yes"/>
      <point x="340" y="70" type="line" smooth="yes"/>
      <point x="340" y="0" type="line" smooth="yes"/>
      <point x="506" y="0" type="line" smooth="yes"/>
      <point x="515" y="150" type="line" smooth="yes"/>
      <point x="565" y="530" type="line" smooth="yes"/>
      <point x="381" y="530" type="line" smooth="yes"/>
      <point x="336" y="185" type="line" smooth="yes"/>
      <point x="305" y="159" type="line" smooth="yes"/>
      <point x="253" y="144" type="line" smooth="yes"/>
      <point x="209" y="165" type="line" smooth="yes"/>
      <point x="205" y="205" type="line" smooth="yes"/>
      <point x="248" y="530" type="line" smooth="yes"/>
    </contour>
    <contour>
      <point x="327" y="780" type="line" smooth="yes"/>
      <point x="137" y="780" type="line" smooth="yes"/>
      <point x="112" y="590" type="line" smooth="yes"/>
      <point x="302" y="590" type="line" smooth="yes"/>
    </contour>
    <contour>
      <point x="557" y="780" type="line" smooth="yes"/>
      <point x="367" y="780" type="line" smooth="yes"/>
      <point x="342" y="590" type="line" smooth="yes"/>
      <point x="532" y="590" type="line" smooth="yes"/>
    </contour>
  </outline>
</glyph>
<glyph name="Abreve" format="1">
  <advance width="650"/>
  <unicode hex="0102"/>
  <outline>
    <contour>
      <point x="349" y="560" type="line" smooth="yes"/>
      <point x="366" y="322" type="line" smooth="yes"/>
      <point x="270" y="322" type="line" smooth="yes"/>
    </contour>
    <contour>
      <point x="384" y="824" type="line" smooth="yes"/>
      <point x="547" y="862" type="line" smooth="yes"/>
      <point x="596" y="950" type="line" smooth="yes"/>
      <point x="471" y="950" type="line" smooth="yes"/>
      <point x="452" y="928" type="line" smooth="yes"/>
      <point x="397" y="920" type="line" smooth="yes"/>
      <point x="344" y="928" type="line" smooth="yes"/>
      <point x="331" y="950" type="line" smooth="yes"/>
      <point x="206" y="950" type="line" smooth="yes"/>
      <point x="232" y="862" type="line" smooth="yes"/>
    </contour>
    <contour>
      <point x="248" y="780" type="line" smooth="yes"/>
      <point x="-40" y="0" type="line" smooth="yes"/>
      <point x="164" y="0" type="line" smooth="yes"/>
      <point x="215" y="158" type="line" smooth="yes"/>
      <point x="377" y="158" type="line" smooth="yes"/>
      <point x="389" y="0" type="line" smooth="yes"/>
      <point x="592" y="0" type="line" smooth="yes"/>
      <point x="508" y="780" type="line" smooth="yes"/>
    </contour>
  </outline>
</glyph>
<glyph name="abreve" format="1">
  <advance width="560"/>
  <unicode hex="0103"/>
  <outline>
    <contour>
      <point x="225" y="134" type="line" smooth="yes"/>
      <point x="190" y="147" type="line" smooth="yes"/>
      <point x="182" y="176" type="line" smooth="yes"/>
      <point x="183" y="185" type="line" smooth="yes"/>
      <point x="199" y="216" type="line" smooth="yes"/>
      <point x="238" y="232" type="line" smooth="yes"/>
      <point x="315" y="244" type="line" smooth="yes"/>
      <point x="304" y="165" type="line" smooth="yes"/>
      <point x="270" y="143" type="line" smooth="yes"/>
    </contour>
    <contour>
      <point x="311" y="0" type="line" smooth="yes"/>
      <point x="477" y="0" type="line" smooth="yes"/>
      <point x="486" y="150" type="line" smooth="yes"/>
      <point x="511" y="340" type="line" smooth="yes"/>
      <point x="470" y="489" type="line" smooth="yes"/>
      <point x="286" y="544" type="line" smooth="yes"/>
      <point x="102" y="492" type="line" smooth="yes"/>
      <point x="43" y="366" type="line" smooth="yes"/>
      <point x="42" y="355" type="line" smooth="yes"/>
      <point x="215" y="355" type="line" smooth="yes"/>
      <point x="231" y="391" type="line" smooth="yes"/>
      <point x="277" y="406" type="line" smooth="yes"/>
      <point x="321" y="392" type="line" smooth="yes"/>
      <point x="329" y="350" type="line" smooth="yes"/>
      <point x="207" y="331" type="line" smooth="yes"/>
      <point x="63" y="284" type="line" smooth="yes"/>
      <point x="-3" y="166" type="line" smooth="yes"/>
      <point x="-5" y="151" type="line" smooth="yes"/>
      <point x="19" y="37" type="line" smooth="yes"/>
      <point x="145" y="-14" type="line" smooth="yes"/>
      <point x="237" y="4" type="line" smooth="yes"/>
      <point x="311" y="54" type="line" smooth="yes"/>
    </contour>
    <contour>
      <point x="306" y="576" type="line" smooth="yes"/>
      <point x="468" y="634" type="line" smooth="yes"/>
      <point x="528" y="780" type="line" smooth="yes"/>
      <point x="398" y="780" type="line" smooth="yes"/>
      <point x="371" y="726" type="line" smooth="yes"/>
      <point x="324" y="714" type="line" smooth="yes"/>
      <point x="281" y="726" type="line" smooth="yes"/>
      <point x="268" y="780" type="line" smooth="yes"/>
      <point x="138" y="780" type="line" smooth="yes"/>
      <point x="160" y="634" type="line" smooth="yes"/>
    </contour>
  </outline>
</glyph>
<glyph name="aogonek" format="1">
  <advance width="557"/>
  <unicode hex="0105"/>
  <outline>
    <contour>
      <point x="225" y="134" type="line" smooth="yes"/>
      <point x="190" y="147" type="line" smooth="yes"/>
      <point x="182" y="176" type="line" smooth="yes"/>
      <point x="183" y="185" type="line" smooth="yes"/>
      <point x="199" y="216" type="line" smooth="yes"/>
      <point x="238" y="232" type="line" smooth="yes"/>
      <point x="315" y="244" type="line" smooth="yes"/>
      <point x="304" y="165" type="line" smooth="yes"/>
      <point x="270" y="143" type="line" smooth="yes"/>
    </contour>
    <contour>
      <point x="477" y="0" type="line" smooth="yes"/>
      <point x="486" y="150" type="line" smooth="yes"/>
      <point x="511" y="340" type="line" smooth="yes"/>
      <point x="470" y="489" type="line" smooth="yes"/>
      <point x="286" y="544" type="line" smooth="yes"/>
      <point x="102" y="492" type="line" smooth="yes"/>
      <point x="43" y="366" type="line" smooth="yes"/>
      <point x="42" y="355" type="line" smooth="yes"/>
      <point x="215" y="355" type="line" smooth="yes"/>
      <point x="231" y="391" type="line" smooth="yes"/>
      <point x="277" y="406" type="line" smooth="yes"/>
      <point x="321" y="392" type="line" smooth="yes"/>
      <point x="329" y="350" type="line" smooth="yes"/>
      <point x="207" y="331" type="line" smooth="yes"/>
      <point x="63" y="284" type="line" smooth="yes"/>
      <point x="-3" y="166" type="line" smooth="yes"/>
      <point x="-5" y="151" type="line" smooth="yes"/>
      <point x="19" y="37" type="line" smooth="yes"/>
      <point x="145" y="-14" type="line" smooth="yes"/>
      <point x="237" y="4" type="line" smooth="yes"/>
      <point x="311" y="54" type="line" smooth="yes"/>
      <point x="311" y="-18" type="line" smooth="yes"/>
      <point x="283" y="-67" type="line" smooth="yes"/>
      <point x="272" y="-123" type="line" smooth="yes"/>
      <point x="307" y="-193" type="line" smooth="yes"/>
      <point x="400" y="-216" type="line" smooth="yes"/>
      <point x="464" y="-208" type="line" smooth="yes"/>
      <point x="511" y="-190" type="line" smooth="yes"/>
      <point x="485" y="-80" type="line" smooth="yes"/>
      <point x="471" y="-87" type="line" smooth="yes"/>
      <point x="448" y="-90" type="line" smooth="yes"/>
      <point x="423" y="-83" type="line" smooth="yes"/>
      <point x="413" y="-63" type="line" smooth="yes"/>
      <point x="436" y="-23" type="line" smooth="yes"/>
    </contour>
  </outline>
</glyph>
<glyph name="Ccircumflex" format="1">
  <advance width="656"/>
  <unicode hex="0108"/>
  <outline>
    <contour>
      <point x="230" y="408" type="line" smooth="yes"/>
      <point x="270" y="570" type="line" smooth="yes"/>
      <point x="368" y="630" type="line" smooth="yes"/>
      <point x="379" y="630" type="line" smooth="yes"/>
      <point x="447" y="589" type="line" smooth="yes"/>
      <point x="449" y="480" type="line" smooth="yes"/>
      <point x="639" y="480" type="line" smooth="yes"/>
      <point x="644" y="519" type="line" smooth="yes"/>
      <point x="595" y="727" type="line" smooth="yes"/>
      <point x="385" y="794" type="line" smooth="yes"/>
      <point x="146" y="702" type="line" smooth="yes"/>
      <point x="37" y="408" type="line" smooth="yes"/>
      <point x="32" y="370" type="line" smooth="yes"/>
      <point x="74" y="77" type="line" smooth="yes"/>
      <point x="300" y="-14" type="line" smooth="yes"/>
      <point x="512" y="48" type="line" smooth="yes"/>
      <point x="610" y="261" type="line" smooth="yes"/>
      <point x="611" y="270" type="line" smooth="yes"/>
      <point x="421" y="270" type="line" smooth="yes"/>
      <point x="390" y="184" type="line" smooth="yes"/>
      <point x="316" y="150" type="line" smooth="yes"/>
      <point x="305" y="150" type="line" smooth="yes"/>
      <point x="225" y="209" type="line" smooth="yes"/>
      <point x="225" y="370" type="line" smooth="yes"/>
    </contour>
    <contour>
      <point x="336" y="840" type="line" smooth="yes"/>
      <point x="401" y="879" type="line" smooth="yes"/>
      <point x="456" y="840" type="line" smooth="yes"/>
      <point x="621" y="840" type="line" smooth="yes"/>
      <point x="506" y="950" type="line" smooth="yes"/>
      <point x="316" y="950" type="line" smooth="yes"/>
      <point x="171" y="840" type="line" smooth="yes"/>
    </contour>
  </outline>
</glyph>
<glyph name="ccircumflex" format="1">
  <advance width="528"/>
  <unicode hex="0109"/>
  <outline>
    <contour>
      <point x="196" y="284" type="line" smooth="yes"/>
      <point x="224" y="361" type="line" smooth="yes"/>
      <point x="279" y="386" type="line" smooth="yes"/>
      <point x="319" y="366" type="line" smooth="yes"/>
      <point x="325" y="320" type="line" smooth="yes"/>
      <point x="498" y="320" type="line" smooth="yes"/>
      <point x="501" y="342" type="line" smooth="yes"/>
      <point x="459" y="493" type="line" smooth="yes"/>
      <point x="288" y="544" type="line" smooth="yes"/>
      <point x="94" y="469" type="line" smooth="yes"/>
      <point x="13" y="284" type="line" smooth="yes"/>
      <point x="8" y="246" type="line" smooth="yes"/>
      <point x="51" y="59" type="line" smooth="yes"/>
      <point x="232" y="-14" type="line" smooth="yes"/>
      <point x="407" y="39" type="line" smooth="yes"/>
      <point x="479" y="178" type="line" smooth="yes"/>
      <point x="482" y="200" type="line" smooth="yes"/>
      <point x="309" y="200" type="line" smooth="yes"/>
      <point x="292" y="160" type="line" smooth="yes"/>
      <point x="250" y="144" type="line" smooth="yes"/>
      <point x="200" y="170" type="line" smooth="yes"/>
      <point x="191" y="246" type="line" smooth="yes"/>
    </contour>
    <contour>
      <point x="233" y="590" type="line" smooth="yes"/>
      <point x="308" y="663" type="line" smooth="yes"/>
      <point x="363" y="590" type="line" smooth="yes"/>
      <point x="523" y="590" type="line" smooth="yes"/>
      <point x="413" y="780" type="line" smooth="yes"/>
      <point x="233" y="780" type="line" smooth="yes"/>
      <point x="73" y="590" type="line" smooth="yes"/>
    </contour>
  </outline>
</glyph>
<glyph name="cdotaccent" format="1">
  <advance width="525"/>
  <unicode hex="010B"/>
  <outline>
    <contour>
      <point x="196" y="284" type="line" smooth="yes"/>
      <point x="224" y="361" type="line" smooth="yes"/>
      <point x="279" y="386" type="line" smooth="yes"/>
      <point x="319" y="366" type="line" smooth="yes"/>
      <point x="325" y="320" type="line" smooth="yes"/>
      <point x="498" y="320" type="line" smooth="yes"/>
      <point x="501" y="342" type="line" smooth="yes"/>
      <point x="459" y="493" type="line" smooth="yes"/>
      <point x="288" y="544" type="line" smooth="yes"/>
      <point x="94" y="469" type="line" smooth="yes"/>
      <point x="13" y="284" type="line" smooth="yes"/>
      <point x="8" y="246" type="line" smooth="yes"/>
      <point x="51" y="59" type="line" smooth="yes"/>
      <point x="232" y="-14" type="line" smooth="yes"/>
      <point x="407" y="39" type="line" smooth="yes"/>
      <point x="479" y="178" type="line" smooth="yes"/>
      <point x="482" y="200" type="line" smooth="yes"/>
      <point x="309" y="200" type="line" smooth="yes"/>
      <point x="292" y="160" type="line" smooth="yes"/>
      <point x="250" y="144" type="line" smooth="yes"/>
      <point x="200" y="170" type="line" smooth="yes"/>
      <point x="191" y="246" type="line" smooth="yes"/>
    </contour>
    <contour>
      <point x="418" y="780" type="line" smooth="yes"/>
      <point x="228" y="780" type="line" smooth="yes"/>
      <point x="203" y="590" type="line" smooth="yes"/>
      <point x="393" y="590" type="line" smooth="yes"/>
    </contour>
  </outline>
</glyph>
<glyph name="Ccaron" format="1">
  <advance width="656"/>
  <unicode hex="010C"/>
  <outline>
    <contour>
      <point x="230" y="408" type="line" smooth="yes"/>
      <point x="270" y="570" type="line" smooth="yes"/>
      <point x="368" y="630" type="line" smooth="yes"/>
      <point x="379" y="630" type="line" smooth="yes"/>
      <point x="447" y="589" type="line" smooth="yes"/>
      <point x="449" y="480" type="line" smooth="yes"/>
      <point x="639" y="480" type="line" smooth="yes"/>
      <point x="644" y="519" type="line" smooth="yes"/>
      <point x="595" y="727" type="line" smooth="yes"/>
      <point x="385" y="794" type="line" smooth="yes"/>
      <point x="146" y="702" type="line" smooth="yes"/>
      <point x="37" y="408" type="line" smooth="yes"/>
      <point x="32" y="370" type="line" smooth="yes"/>
      <point x="74" y="77" type="line" smooth="yes"/>
      <point x="300" y="-14" type="line" smooth="yes"/>
      <point x="512" y="48" type="line" smooth="yes"/>
      <point x="610" y="261" type="line" smooth="yes"/>
      <point x="611" y="270" type="line" smooth="yes"/>
      <point x="421" y="270" type="line" smooth="yes"/>
      <point x="390" y="184" type="line" smooth="yes"/>
      <point x="316" y="150" type="line" smooth="yes"/>
      <point x="305" y="150" type="line" smooth="yes"/>
      <point x="225" y="209" type="line" smooth="yes"/>
      <point x="225" y="370" type="line" smooth="yes"/>
    </contour>
    <contour>
      <point x="186" y="950" type="line" smooth="yes"/>
      <point x="301" y="840" type="line" smooth="yes"/>
      <point x="491" y="840" type="line" smooth="yes"/>
      <point x="636" y="950" type="line" smooth="yes"/>
      <point x="471" y="950" type="line" smooth="yes"/>
      <point x="405" y="910" type="line" smooth="yes"/>
      <point x="351" y="950" type="line" smooth="yes"/>
    </contour>
  </outline>
</glyph>
<glyph name="Emacron" format="1">
  <advance width="580"/>
  <unicode hex="0112"/>
  <outline>
    <contour>
      <point x="196" y="840" type="line" smooth="yes"/>
      <point x="516" y="840" type="line" smooth="yes"/>
      <point x="531" y="950" type="line" smooth="yes"/>
      <point x="211" y="950" type="line" smooth="yes"/>
    </contour>
    <contour>
      <point x="103" y="780" type="line" smooth="yes"/>
      <point x="1" y="0" type="line" smooth="yes"/>
      <point x="491" y="0" type="line" smooth="yes"/>
      <point x="512" y="164" type="line" smooth="yes"/>
      <point x="212" y="164" type="line" smooth="yes"/>
      <point x="232" y="316" type="line" smooth="yes"/>
      <point x="482" y="316" type="line" smooth="yes"/>
      <point x="504" y="480" type="line" smooth="yes"/>
      <point x="254" y="480" type="line" smooth="yes"/>
      <point x="272" y="616" type="line" smooth="yes"/>
      <point x="572" y="616" type="line" smooth="yes"/>
      <point x="593" y="780" type="line" smooth="yes"/>
    </contour>
  </outline>
</glyph>
<glyph name="Ebreve" format="1">
  <advance width="580"/>
  <unicode hex="0114"/>
  <outline>
    <contour>
      <point x="354" y="824" type="line" smooth="yes"/>
      <point x="517" y="862" type="line" smooth="yes"/>
      <point x="566" y="950" type="line" smooth="yes"/>
      <point x="441" y="950" type="line" smooth="yes"/>
      <point x="422" y="928" type="line" smooth="yes"/>
      <point x="367" y="920" type="line" smooth="yes"/>
      <point x="314" y="928" type="line" smooth="yes"/>
      <point x="301" y="950" type="line" smooth="yes"/>
      <point x="176" y="950" type="line" smooth="yes"/>
      <point x="202" y="862" type="line" smooth="yes"/>
    </contour>
    <contour>
      <point x="103" y="780" type="line" smooth="yes"/>
      <point x="1" y="0" type="line" smooth="yes"/>
      <point x="491" y="0" type="line" smooth="yes"/>
      <point x="512" y="164" type="line" smooth="yes"/>
      <point x="212" y="164" type="line" smooth="yes"/>
      <point x="232" y="316" type="line" smooth="yes"/>
      <point x="482" y="316" type="line" smooth="yes"/>
      <point x="504" y="480" type="line" smooth="yes"/>
      <point x="254" y="480" type="line" smooth="yes"/>
      <point x="272" y="616" type="line" smooth="yes"/>
      <point x="572" y="616" type="line" smooth="yes"/>
      <point x="593" y="780" type="line" smooth="yes"/>
    </contour>
  </outline>
</glyph>
<glyph name="ebreve" format="1">
  <advance width="560"/>
  <unicode hex="0115"/>
  <outline>
    <contour>
      <point x="284" y="406" type="line" smooth="yes"/>
      <point x="333" y="387" type="line" smooth="yes"/>
      <point x="345" y="330" type="line" smooth="yes"/>
      <point x="203" y="330" type="line" smooth="yes"/>
      <point x="234" y="389" type="line" smooth="yes"/>
    </contour>
    <contour>
      <point x="512" y="200" type="line" smooth="yes"/>
      <point x="520" y="260" type="line" smooth="yes"/>
      <point x="479" y="467" type="line" smooth="yes"/>
      <point x="290" y="544" type="line" smooth="yes"/>
      <point x="94" y="469" type="line" smooth="yes"/>
      <point x="13" y="284" type="line" smooth="yes"/>
      <point x="8" y="246" type="line" smooth="yes"/>
      <point x="53" y="60" type="line" smooth="yes"/>
      <point x="250" y="-14" type="line" smooth="yes"/>
      <point x="431" y="35" type="line" smooth="yes"/>
      <point x="507" y="163" type="line" smooth="yes"/>
      <point x="508" y="170" type="line" smooth="yes"/>
      <point x="335" y="170" type="line" smooth="yes"/>
      <point x="313" y="138" type="line" smooth="yes"/>
      <point x="258" y="124" type="line" smooth="yes"/>
      <point x="207" y="140" type="line" smooth="yes"/>
      <point x="186" y="200" type="line" smooth="yes"/>
    </contour>
    <contour>
      <point x="310" y="576" type="line" smooth="yes"/>
      <point x="472" y="634" type="line" smooth="yes"/>
      <point x="532" y="780" type="line" smooth="yes"/>
      <point x="402" y="780" type="line" smooth="yes"/>
      <point x="375" y="726" type="line" smooth="yes"/>
      <point x="328" y="714" type="line" smooth="yes"/>
      <point x="285" y="726" type="line" smooth="yes"/>
      <point x="272" y="780" type="line" smooth="yes"/>
      <point x="142" y="780" type="line" smooth="yes"/>
      <point x="164" y="634" type="line" smooth="yes"/>
    </contour>
  </outline>
</glyph>
<glyph name="edotaccent" format="1">
  <advance width="556"/>
  <unicode hex="0117"/>
  <outline>
    <contour>
      <point x="284" y="406" type="line" smooth="yes"/>
      <point x="333" y="387" type="line" smooth="yes"/>
      <point x="345" y="330" type="line" smooth="yes"/>
      <point x="203" y="330" type="line" smooth="yes"/>
      <point x="234" y="389" type="line" smooth="yes"/>
    </contour>
    <contour>
      <point x="512" y="200" type="line" smooth="yes"/>
      <point x="520" y="260" type="line" smooth="yes"/>
      <point x="479" y="467" type="line" smooth="yes"/>
      <point x="290" y="544" type="line" smooth="yes"/>
      <point x="94" y="469" type="line" smooth="yes"/>
      <point x="13" y="284" type="line" smooth="yes"/>
      <point x="8" y="246" type="line" smooth="yes"/>
      <point x="53" y="60" type="line" smooth="yes"/>
      <point x="250" y="-14" type="line" smooth="yes"/>
      <point x="431" y="35" type="line" smooth="yes"/>
      <point x="507" y="163" type="line" smooth="yes"/>
      <point x="508" y="170" type="line" smooth="yes"/>
      <point x="335" y="170" type="line" smooth="yes"/>
      <point x="313" y="138" type="line" smooth="yes"/>
      <point x="258" y="124" type="line" smooth="yes"/>
      <point x="207" y="140" type="line" smooth="yes"/>
      <point x="186" y="200" type="line" smooth="yes"/>
    </contour>
    <contour>
      <point x="432" y="780" type="line" smooth="yes"/>
      <point x="242" y="780" type="line" smooth="yes"/>
      <point x="217" y="590" type="line" smooth="yes"/>
      <point x="407" y="590" type="line" smooth="yes"/>
    </contour>
  </outline>
</glyph>
<glyph name="eogonek" format="1">
  <advance width="556"/>
  <unicode hex="0119"/>
  <outline>
    <contour>
      <point x="284" y="406" type="line" smooth="yes"/>
      <point x="333" y="387" type="line" smooth="yes"/>
      <point x="345" y="330" type="line" smooth="yes"/>
      <point x="203" y="330" type="line" smooth="yes"/>
      <point x="234" y="389" type="line" smooth="yes"/>
    </contour>
    <contour>
      <point x="512" y="200" type="line" smooth="yes"/>
      <point x="520" y="260" type="line" smooth="yes"/>
      <point x="479" y="467" type="line" smooth="yes"/>
      <point x="290" y="544" type="line" smooth="yes"/>
      <point x="94" y="469" type="line" smooth="yes"/>
      <point x="13" y="284" type="line" smooth="yes"/>
      <point x="8" y="246" type="line" smooth="yes"/>
      <point x="41" y="74" type="line" smooth="yes"/>
      <point x="198" y="-11" type="line" smooth="yes"/>
      <point x="165" y="-62" type="line" smooth="yes"/>
      <point x="153" y="-123" type="line" smooth="yes"/>
      <point x="188" y="-193" type="line" smooth="yes"/>
      <point x="281" y="-216" type="line" smooth="yes"/>
      <point x="345" y="-208" type="line" smooth="yes"/>
      <point x="392" y="-190" type="line" smooth="yes"/>
      <point x="366" y="-80" type="line" smooth="yes"/>
      <point x="352" y="-87" type="line" smooth="yes"/>
      <point x="329" y="-90" type="line" smooth="yes"/>
      <point x="304" y="-83" type="line" smooth="yes"/>
      <point x="294" y="-63" type="line" smooth="yes"/>
      <point x="316" y="-22" type="line" smooth="yes"/>
      <point x="358" y="0" type="line" smooth="yes"/>
      <point x="461" y="61" type="line" smooth="yes"/>
      <point x="507" y="163" type="line" smooth="yes"/>
      <point x="508" y="170" type="line" smooth="yes"/>
      <point x="335" y="170" type="line" smooth="yes"/>
      <point x="313" y="138" type="line" smooth="yes"/>
      <point x="258" y="124" type="line" smooth="yes"/>
      <point x="207" y="140" type="line" smooth="yes"/>
      <point x="186" y="200" type="line" smooth="yes"/>
    </contour>
  </outline>
</glyph>
<glyph name="Gcircumflex" format="1">
  <advance width="676"/>
  <unicode hex="011C"/>
  <outline>
    <contour>
      <point x="310" y="-14" type="line" smooth="yes"/>
      <point x="486" y="14" type="line" smooth="yes"/>
      <point x="595" y="78" type="line" smooth="yes"/>
      <point x="642" y="434" type="line" smooth="yes"/>
      <point x="358" y="434" type="line" smooth="yes"/>
      <point x="336" y="270" type="line" smooth="yes"/>
      <point x="430" y="270" type="line" smooth="yes"/>
      <point x="417" y="170" type="line" smooth="yes"/>
      <point x="377" y="156" type="line" smooth="yes"/>
      <point x="331" y="150" type="line" smooth="yes"/>
      <point x="320" y="150" type="line" smooth="yes"/>
      <point x="230" y="209" type="line" smooth="yes"/>
      <point x="225" y="370" type="line" smooth="yes"/>
      <point x="230" y="408" type="line" smooth="yes"/>
      <point x="273" y="570" type="line" smooth="yes"/>
      <point x="374" y="630" type="line" smooth="yes"/>
      <point x="385" y="630" type="line" smooth="yes"/>
      <point x="455" y="589" type="line" smooth="yes"/>
      <point x="459" y="480" type="line" smooth="yes"/>
      <point x="649" y="480" type="line" smooth="yes"/>
      <point x="654" y="519" type="line" smooth="yes"/>
      <point x="603" y="727" type="line" smooth="yes"/>
      <point x="391" y="794" type="line" smooth="yes"/>
      <point x="149" y="702" type="line" smooth="yes"/>
      <point x="37" y="408" type="line" smooth="yes"/>
      <point x="32" y="370" type="line" smooth="yes"/>
      <point x="79" y="77" type="line" smooth="yes"/>
    </contour>
    <contour>
      <point x="341" y="840" type="line" smooth="yes"/>
      <point x="406" y="879" type="line" smooth="yes"/>
      <point x="461" y="840" type="line" smooth="yes"/>
      <point x="626" y="840" type="line" smooth="yes"/>
      <point x="511" y="950" type="line" smooth="yes"/>
      <point x="321" y="950" type="line" smooth="yes"/>
      <point x="176" y="840" type="line" smooth="yes"/>
    </contour>
  </outline>
</glyph>
<glyph name="gcommaaccent" format="1">
  <advance width="585"/>
  <unicode hex="0123"/>
  <outline>
    <contour>
      <point x="331" y="215" type="line" smooth="yes"/>
      <point x="303" y="189" type="line" smooth="yes"/>
      <point x="253" y="174" type="line" smooth="yes"/>
      <point x="202" y="198" type="line" smooth="yes"/>
      <point x="193" y="261" type="line" smooth="yes"/>
      <point x="198" y="299" type="line" smooth="yes"/>
      <point x="224" y="363" type="line" smooth="yes"/>
      <point x="282" y="386" type="line" smooth="yes"/>
      <point x="327" y="371" type="line" smooth="yes"/>
      <point x="348" y="345" type="line" smooth="yes"/>
    </contour>
    <contour>
      <point x="304" y="11" type="line" smooth="yes"/>
      <point x="280" y="-49" type="line" smooth="yes"/>
      <point x="223" y="-66" type="line" smooth="yes"/>
      <point x="169" y="-47" type="line" smooth="yes"/>
      <point x="159" y="0" type="line" smooth="yes"/>
      <point x="-14" y="0" type="line" smooth="yes"/>
      <point x="-18" y="-27" type="line" smooth="yes"/>
      <point x="20" y="-158" type="line" smooth="yes"/>
      <point x="215" y="-214" type="line" smooth="yes"/>
      <point x="404" y="-164" type="line" smooth="yes"/>
      <point x="487" y="2" type="line" smooth="yes"/>
      <point x="537" y="380" type="line" smooth="yes"/>
      <point x="566" y="530" type="line" smooth="yes"/>
      <point x="400" y="530" type="line" smooth="yes"/>
      <point x="381" y="469" type="line" smooth="yes"/>
      <point x="329" y="523" type="line" smooth="yes"/>
      <point x="235" y="544" type="line" smooth="yes"/>
      <point x="81" y="473" type="line" smooth="yes"/>
      <point x="15" y="299" type="line" smooth="yes"/>
      <point x="10" y="261" type="line" smooth="yes"/>
      <point x="34" y="84" type="line" smooth="yes"/>
      <point x="165" y="16" type="line" smooth="yes"/>
      <point x="252" y="31" type="line" smooth="yes"/>
      <point x="312" y="70" type="line" smooth="yes"/>
    </contour>
    <contour>
      <point x="228" y="590" type="line" smooth="yes"/>
      <point x="388" y="590" type="line" smooth="yes"/>
      <point x="403" y="700" type="line" smooth="yes"/>
      <point x="314" y="700" type="line" smooth="yes"/>
      <point x="351" y="726" type="line" smooth="yes"/>
      <point x="407" y="734" type="line" smooth="yes"/>
      <point x="415" y="794" type="line" smooth="yes"/>
      <point x="290" y="763" type="line" smooth="yes"/>
      <point x="237" y="660" type="line" smooth="yes"/>
    </contour>
  </outline>
</glyph>
<glyph name="Hcircumflex" format="1">
  <advance width="670"/>
  <unicode hex="0124"/>
  <outline>
    <contour>
      <point x="336" y="840" type="line" smooth="yes"/>
      <point x="401" y="879" type="line" smooth="yes"/>
      <point x="456" y="840" type="line" smooth="yes"/>
      <point x="621" y="840" type="line" smooth="yes"/>
      <point x="506" y="950" type="line" smooth="yes"/>
      <point x="316" y="950" type="line" smooth="yes"/>
      <point x="171" y="840" type="line" smooth="yes"/>
    </contour>
    <contour>
      <point x="483" y="780" type="line" smooth="yes"/>
      <point x="444" y="480" type="line" smooth="yes"/>
      <point x="254" y="480" type="line" smooth="yes"/>
      <point x="293" y="780" type="line" smooth="yes"/>
      <point x="103" y="780" type="line" smooth="yes"/>
      <point x="1" y="0" type="line" smooth="yes"/>
      <point x="191" y="0" type="line" smooth="yes"/>
      <point x="232" y="316" type="line" smooth="yes"/>
      <point x="422" y="316" type="line" smooth="yes"/>
      <point x="381" y="0" type="line" smooth="yes"/>
      <point x="571" y="0" type="line" smooth="yes"/>
      <point x="673" y="780" type="line" smooth="yes"/>
    </contour>
  </outline>
</glyph>
<glyph name="hcircumflex" format="1">
  <advance width="592"/>
  <unicode hex="0125"/>
  <outline>
    <contour>
      <point x="143" y="840" type="line" smooth="yes"/>
      <point x="208" y="879" type="line" smooth="yes"/>
      <point x="263" y="840" type="line" smooth="yes"/>
      <point x="428" y="840" type="line" smooth="yes"/>
      <point x="313" y="950" type="line" smooth="yes"/>
      <point x="123" y="950" type="line" smooth="yes"/>
      <point x="-22" y="840" type="line" smooth="yes"/>
    </contour>
    <contour>
      <point x="290" y="800" type="line" smooth="yes"/>
      <point x="106" y="800" type="line" smooth="yes"/>
      <point x="1" y="0" type="line" smooth="yes"/>
      <point x="185" y="0" type="line" smooth="yes"/>
      <point x="230" y="345" type="line" smooth="yes"/>
      <point x="261" y="371" type="line" smooth="yes"/>
      <point x="312" y="386" type="line" smooth="yes"/>
      <point x="356" y="365" type="line" smooth="yes"/>
      <point x="360" y="325" type="line" smooth="yes"/>
      <point x="318" y="0" type="line" smooth="yes"/>
      <point x="502" y="0" type="line" smooth="yes"/>
      <point x="548" y="355" type="line" smooth="yes"/>
      <point x="530" y="485" type="line" smooth="yes"/>
      <point x="408" y="544" type="line" smooth="yes"/>
      <point x="317" y="527" type="line" smooth="yes"/>
      <point x="248" y="483" type="line" smooth="yes"/>
    </contour>
  </outline>
</glyph>
<glyph name="Itilde" format="1">
  <advance width="300"/>
  <unicode hex="0128"/>
  <outline>
    <contour>
      <point x="326" y="950" type="line" smooth="yes"/>
      <point x="313" y="926" type="line" smooth="yes"/>
      <point x="289" y="920" type="line" smooth="yes"/>
      <point x="227" y="943" type="line" smooth="yes"/>
      <point x="143" y="966" type="line" smooth="yes"/>
      <point x="63" y="939" type="line" smooth="yes"/>
      <point x="16" y="840" type="line" smooth="yes"/>
      <point x="111" y="840" type="line" smooth="yes"/>
      <point x="124" y="864" type="line" smooth="yes"/>
      <point x="148" y="870" type="line" smooth="yes"/>
      <point x="211" y="847" type="line" smooth="yes"/>
      <point x="294" y="824" type="line" smooth="yes"/>
      <point x="374" y="851" type="line" smooth="yes"/>
      <point x="421" y="950" type="line" smooth="yes"/>
    </contour>
    <contour>
      <point x="298" y="780" type="line" smooth="yes"/>
      <point x="108" y="780" type="line" smooth="yes"/>
      <point x="6" y="0" type="line" smooth="yes"/>
      <point x="196" y="0" type="line" smooth="yes"/>
    </contour>
  </outline>
</glyph>
<glyph name="Ibreve" format="1">
  <advance width="300"/>
  <unicode hex="012C"/>
  <outline>
    <contour>
      <point x="209" y="824" type="line" smooth="yes"/>
      <point x="372" y="862" type="line" smooth="yes"/>
      <point x="421" y="950" type="line" smooth="yes"/>
      <point x="296" y="950" type="line" smooth="yes"/>
      <point x="277" y="928" type="line" smooth="yes"/>
      <point x="222" y="920" type="line" smooth="yes"/>
      <point x="169" y="928" type="line" smooth="yes"/>
      <point x="156" y="950" type="line" smooth="yes"/>
      <point x="31" y="950" type="line" smooth="yes"/>
      <point x="57" y="862" type="line" smooth="yes"/>
    </contour>
    <contour>
      <point x="298" y="780" type="line" smooth="yes"/>
      <point x="108" y="780" type="line" smooth="yes"/>
      <point x="6" y="0" type="line" smooth="yes"/>
      <point x="196" y="0" type="line" smooth="yes"/>
    </contour>
  </outline>
</glyph>
<glyph name="ibreve" format="1">
  <advance width="280"/>
  <unicode hex="012D"/>
  <outline>
    <contour>
      <point x="166" y="576" type="line" smooth="yes"/>
      <point x="328" y="634" type="line" smooth="yes"/>
      <point x="388" y="780" type="line" smooth="yes"/>
      <point x="258" y="780" type="line" smooth="yes"/>
      <point x="231" y="726" type="line" smooth="yes"/>
      <point x="184" y="714" type="line" smooth="yes"/>
      <point x="141" y="726" type="line" smooth="yes"/>
      <point x="128" y="780" type="line" smooth="yes"/>
      <point x="-2" y="780" type="line" smooth="yes"/>
      <point x="20" y="634" type="line" smooth="yes"/>
    </contour>
    <contour>
      <point x="-1" y="0" type="line" smooth="yes"/>
      <point x="183" y="0" type="line" smooth="yes"/>
      <point x="252" y="530" type="line" smooth="yes"/>
      <point x="68" y="530" type="line" smooth="yes"/>
    </contour>
  </outline>
</glyph>
<glyph name="Iogonek" format="1">
  <advance width="300"/>
  <unicode hex="012E"/>
  <outline>
    <contour>
      <point x="47" y="0" type="line" smooth="yes"/>
      <point x="7" y="-56" type="line" smooth="yes"/>
      <point x="-9" y="-123" type="line" smooth="yes"/>
      <point x="26" y="-193" type="line" smooth="yes"/>
      <point x="119" y="-216" type="line" smooth="yes"/>
      <point x="183" y="-208" type="line" smooth="yes"/>
      <point x="230" y="-190" type="line" smooth="yes"/>
      <point x="204" y="-80" type="line" smooth="yes"/>
      <point x="190" y="-87" type="line" smooth="yes"/>
      <point x="167" y="-90" type="line" smooth="yes"/>
      <point x="142" y="-83" type="line" smooth="yes"/>
      <point x="132" y="-63" type="line" smooth="yes"/>
      <point x="155" y="-23" type="line" smooth="yes"/>
      <point x="196" y="0" type="line" smooth="yes"/>
      <point x="298" y="780" type="line" smooth="yes"/>
      <point x="108" y="780" type="line" smooth="yes"/>
      <point x="6" y="0" type="line" smooth="yes"/>
    </contour>
  </outline>
</glyph>
<glyph name="iogonek" format="1">
  <advance width="280"/>
  <unicode hex="012F"/>
  <outline>
    <contour>
      <point x="-22" y="-123" type="line" smooth="yes"/>
      <point x="13" y="-193" type="line" smooth="yes"/>
      <point x="106" y="-216" type="line" smooth="yes"/>
      <point x="170" y="-208" type="line" smooth="yes"/>
      <point x="217" y="-190" type="line" smooth="yes"/>
      <point x="191" y="-80" type="line" smooth="yes"/>
      <point x="177" y="-87" type="line" smooth="yes"/>
      <point x="154" y="-90" type="line" smooth="yes"/>
      <point x="129" y="-83" type="line" smooth="yes"/>
      <point x="119" y="-63" type="line" smooth="yes"/>
      <point x="142" y="-23" type="line" smooth="yes"/>
      <point x="183" y="0" type="line" smooth="yes"/>
      <point x="252" y="530" type="line" smooth="yes"/>
      <point x="68" y="530" type="line" smooth="yes"/>
      <point x="-1" y="0" type="line" smooth="yes"/>
      <point x="34" y="0" type="line" smooth="yes"/>
      <point x="-6" y="-56" type="line" smooth="yes"/>
    </contour>
    <contour>
      <point x="288" y="780" type="line" smooth="yes"/>
      <point x="98" y="780" type="line" smooth="yes"/>
      <point x="73" y="590" type="line" smooth="yes"/>
      <point x="263" y="590" type="line" smooth="yes"/>
    </contour>
  </outline>
</glyph>
<glyph name="IJ" format="1">
  <advance width="641"/>
  <unicode hex="0132"/>
  <outline>
    <contour>
      <point x="298" y="780" type="line" smooth="yes"/>
      <point x="108" y="780" type="line" smooth="yes"/>
      <point x="6" y="0" type="line" smooth="yes"/>
      <point x="196" y="0" type="line" smooth="yes"/>
    </contour>
    <contour>
      <point x="386" y="223" type="line" smooth="yes"/>
      <point x="359" y="163" type="line" smooth="yes"/>
      <point x="305" y="150" type="line" smooth="yes"/>
      <point x="277" y="153" type="line" smooth="yes"/>
      <point x="256" y="158" type="line" smooth="yes"/>
      <point x="236" y="3" type="line" smooth="yes"/>
      <point x="268" y="-8" type="line" smooth="yes"/>
      <point x="334" y="-14" type="line" smooth="yes"/>
      <point x="492" y="34" type="line" smooth="yes"/>
      <point x="573" y="202" type="line" smooth="yes"/>
      <point x="649" y="780" type="line" smooth="yes"/>
      <point x="459" y="780" type="line" smooth="yes"/>
    </contour>
  </outline>
</glyph>
<glyph name="ij" format="1">
  <advance width="510"/>
  <unicode hex="0133"/>
  <outline>
    <contour>
      <point x="518" y="780" type="line" smooth="yes"/>
      <point x="328" y="780" type="line" smooth="yes"/>
      <point x="303" y="590" type="line" smooth="yes"/>
      <point x="493" y="590" type="line" smooth="yes"/>
    </contour>
    <contour>
      <point x="288" y="780" type="line" smooth="yes"/>
      <point x="98" y="780" type="line" smooth="yes"/>
      <point x="73" y="590" type="line" smooth="yes"/>
      <point x="263" y="590" type="line" smooth="yes"/>
    </contour>
    <contour>
      <point x="-1" y="0" type="line" smooth="yes"/>
      <point x="183" y="0" type="line" smooth="yes"/>
      <point x="252" y="530" type="line" smooth="yes"/>
      <point x="68" y="530" type="line" smooth="yes"/>
    </contour>
    <contour>
      <point x="230" y="15" type="line" smooth="yes"/>
      <point x="203" y="-43" type="line" smooth="yes"/>
      <point x="150" y="-56" type="line" smooth="yes"/>
      <point x="123" y="-54" type="line" smooth="yes"/>
      <point x="105" y="-50" type="line" smooth="yes"/>
      <point x="85" y="-200" type="line" smooth="yes"/>
      <point x="113" y="-209" type="line" smooth="yes"/>
      <point x="172" y="-214" type="line" smooth="yes"/>
      <point x="332" y="-168" type="line" smooth="yes"/>
      <point x="412" y="-5" type="line" smooth="yes"/>
      <point x="482" y="530" type="line" smooth="yes"/>
      <point x="298" y="530" type="line" smooth="yes"/>
    </contour>
  </outline>
</glyph>
<glyph name="Jcircumflex" format="1">
  <advance width="550"/>
  <unicode hex="0134"/>
  <outline>
    <contour>
      <point x="368" y="780" type="line" smooth="yes"/>
      <point x="300" y="260" type="line" smooth="yes"/>
      <point x="277" y="180" type="line" smooth="yes"/>
      <point x="226" y="150" type="line" smooth="yes"/>
      <point x="185" y="181" type="line" smooth="yes"/>
      <point x="187" y="270" type="line" smooth="yes"/>
      <point x="7" y="270" type="line" smooth="yes"/>
      <point x="3" y="240" type="line" smooth="yes"/>
      <point x="34" y="52" type="line" smooth="yes"/>
      <point x="216" y="-14" type="line" smooth="yes"/>
      <point x="407" y="52" type="line" smooth="yes"/>
      <point x="487" y="238" type="line" smooth="yes"/>
      <point x="558" y="780" type="line" smooth="yes"/>
    </contour>
    <contour>
      <point x="411" y="840" type="line" smooth="yes"/>
      <point x="476" y="879" type="line" smooth="yes"/>
      <point x="531" y="840" type="line" smooth="yes"/>
      <point x="696" y="840" type="line" smooth="yes"/>
      <point x="581" y="950" type="line" smooth="yes"/>
      <point x="391" y="950" type="line" smooth="yes"/>
      <point x="246" y="840" type="line" smooth="yes"/>
    </contour>
  </outline>
</glyph>
<glyph name="jcircumflex" format="1">
  <advance width="280"/>
  <unicode hex="0135"/>
  <outline>
    <contour>
      <point x="103" y="590" type="line" smooth="yes"/>
      <point x="178" y="663" type="line" smooth="yes"/>
      <point x="233" y="590" type="line" smooth="yes"/>
      <point x="393" y="590" type="line" smooth="yes"/>
      <point x="283" y="780" type="line" smooth="yes"/>
      <point x="103" y="780" type="line" smooth="yes"/>
      <point x="-56" y="590" type="line" smooth="yes"/>
    </contour>
    <contour>
      <point x="0" y="15" type="line" smooth="yes"/>
      <point x="-27" y="-43" type="line" smooth="yes"/>
      <point x="-79" y="-56" type="line" smooth="yes"/>
      <point x="-106" y="-54" type="line" smooth="yes"/>
      <point x="-124" y="-50" type="line" smooth="yes"/>
      <point x="-144" y="-200" type="line" smooth="yes"/>
      <point x="-116" y="-209" type="line" smooth="yes"/>
      <point x="-57" y="-214" type="line" smooth="yes"/>
      <point x="102" y="-168" type="line" smooth="yes"/>
      <point x="182" y="-5" type="line" smooth="yes"/>
      <point x="252" y="530" type="line" smooth="yes"/>
      <point x="68" y="530" type="line" smooth="yes"/>
    </contour>
  </outline>
</glyph>
<glyph name="lcommaaccent" format="1">
  <advance width="280"/>
  <unicode hex="013C"/>
  <outline>
    <contour>
      <point x="165" y="-40" type="line" smooth="yes"/>
      <point x="5" y="-40" type="line" smooth="yes"/>
      <point x="-8" y="-140" type="line" smooth="yes"/>
      <point x="80" y="-140" type="line" smooth="yes"/>
      <point x="43" y="-164" type="line" smooth="yes"/>
      <point x="-12" y="-170" type="line" smooth="yes"/>
      <point x="-20" y="-230" type="line" smooth="yes"/>
      <point x="105" y="-201" type="line" smooth="yes"/>
      <point x="157" y="-100" type="line" smooth="yes"/>
    </contour>
    <contour>
      <point x="-1" y="0" type="line" smooth="yes"/>
      <point x="183" y="0" type="line" smooth="yes"/>
      <point x="288" y="800" type="line" smooth="yes"/>
      <point x="104" y="800" type="line" smooth="yes"/>
    </contour>
  </outline>
</glyph>
<glyph name="ldot" format="1">
  <advance width="470"/>
  <unicode hex="0140"/>
  <outline>
    <contour>
      <point x="479" y="445" type="line" smooth="yes"/>
      <point x="289" y="445" type="line" smooth="yes"/>
      <point x="264" y="255" type="line" smooth="yes"/>
      <point x="454" y="255" type="line" smooth="yes"/>
    </contour>
    <contour>
      <point x="-1" y="0" type="line" smooth="yes"/>
      <point x="183" y="0" type="line" smooth="yes"/>
      <point x="288" y="800" type="line" smooth="yes"/>
      <point x="104" y="800" type="line" smooth="yes"/>
    </contour>
  </outline>
</glyph>
<glyph name="ncaron" format="1">
  <advance width="595"/>
  <unicode hex="0148"/>
  <outline>
    <contour>
      <point x="502" y="0" type="line" smooth="yes"/>
      <point x="548" y="355" type="line" smooth="yes"/>
      <point x="530" y="485" type="line" smooth="yes"/>
      <point x="408" y="544" type="line" smooth="yes"/>
      <point x="304" y="522" type="line" smooth="yes"/>
      <point x="226" y="460" type="line" smooth="yes"/>
      <point x="226" y="530" type="line" smooth="yes"/>
      <point x="60" y="530" type="line" smooth="yes"/>
      <point x="51" y="380" type="line" smooth="yes"/>
      <point x="1" y="0" type="line" smooth="yes"/>
      <point x="185" y="0" type="line" smooth="yes"/>
      <point x="230" y="345" type="line" smooth="yes"/>
      <point x="261" y="371" type="line" smooth="yes"/>
      <point x="313" y="386" type="line" smooth="yes"/>
      <point x="357" y="365" type="line" smooth="yes"/>
      <point x="361" y="325" type="line" smooth="yes"/>
      <point x="318" y="0" type="line" smooth="yes"/>
    </contour>
    <contour>
      <point x="129" y="780" type="line" smooth="yes"/>
      <point x="239" y="590" type="line" smooth="yes"/>
      <point x="419" y="590" type="line" smooth="yes"/>
      <point x="579" y="780" type="line" smooth="yes"/>
      <point x="419" y="780" type="line" smooth="yes"/>
      <point x="344" y="706" type="line" smooth="yes"/>
      <point x="289" y="780" type="line" smooth="yes"/>
    </contour>
  </outline>
</glyph>
<glyph name="Eng" format="1">
  <advance width="690"/>
  <unicode hex="014A"/>
  <outline>
    <contour>
      <point x="693" y="780" type="line" smooth="yes"/>
      <point x="513" y="780" type="line" smooth="yes"/>
      <point x="476" y="500" type="line" smooth="yes"/>
      <point x="462" y="350" type="line" smooth="yes"/>
      <point x="303" y="780" type="line" smooth="yes"/>
      <point x="103" y="780" type="line" smooth="yes"/>
      <point x="1" y="0" type="line" smooth="yes"/>
      <point x="181" y="0" type="line" smooth="yes"/>
      <point x="217" y="280" type="line" smooth="yes"/>
      <point x="232" y="430" type="line" smooth="yes"/>
      <point x="399" y="-22" type="line" smooth="yes"/>
      <point x="370" y="-50" type="line" smooth="yes"/>
      <point x="328" y="-56" type="line" smooth="yes"/>
      <point x="301" y="-54" type="line" smooth="yes"/>
      <point x="283" y="-50" type="line" smooth="yes"/>
      <point x="263" y="-200" type="line" smooth="yes"/>
      <point x="291" y="-209" type="line" smooth="yes"/>
      <point x="350" y="-214" type="line" smooth="yes"/>
      <point x="510" y="-168" type="line" smooth="yes"/>
      <point x="590" y="-5" type="line" smooth="yes"/>
    </contour>
  </outline>
</glyph>
<glyph name="eng" format="1">
  <advance width="592"/>
  <unicode hex="014B"/>
  <outline>
    <contour>
      <point x="60" y="530" type="line" smooth="yes"/>
      <point x="51" y="380" type="line" smooth="yes"/>
      <point x="1" y="0" type="line" smooth="yes"/>
      <point x="185" y="0" type="line" smooth="yes"/>
      <point x="230" y="345" type="line" smooth="yes"/>
      <point x="261" y="371" type="line" smooth="yes"/>
      <point x="312" y="386" type="line" smooth="yes"/>
      <point x="356" y="365" type="line" smooth="yes"/>
      <point x="360" y="325" type="line" smooth="yes"/>
      <point x="319" y="15" type="line" smooth="yes"/>
      <point x="292" y="-43" type="line" smooth="yes"/>
      <point x="239" y="-56" type="line" smooth="yes"/>
      <point x="212" y="-54" type="line" smooth="yes"/>
      <point x="194" y="-50" type="line" smooth="yes"/>
      <point x="174" y="-200" type="line" smooth="yes"/>
      <point x="202" y="-209" type="line" smooth="yes"/>
      <point x="261" y="-214" type="line" smooth="yes"/>
      <point x="421" y="-168" type="line" smooth="yes"/>
      <point x="501" y="-5" type="line" smooth="yes"/>
      <point x="548" y="355" type="line" smooth="yes"/>
      <point x="530" y="485" type="line" smooth="yes"/>
      <point x="408" y="544" type="line" smooth="yes"/>
      <point x="304" y="522" type="line" smooth="yes"/>
      <point x="226" y="460" type="line" smooth="yes"/>
      <point x="226" y="530" type="line" smooth="yes"/>
    </contour>
  </outline>
</glyph>
<glyph name="Obreve" format="1">
  <advance width="672"/>
  <unicode hex="014E"/>
  <outline>
    <contour>
      <point x="305" y="150" type="line" smooth="yes"/>
      <point x="225" y="209" type="line" smooth="yes"/>
      <point x="225" y="370" type="line" smooth="yes"/>
      <point x="230" y="408" type="line" smooth="yes"/>
      <point x="272" y="570" type="line" smooth="yes"/>
      <point x="368" y="630" type="line" smooth="yes"/>
      <point x="379" y="630" type="line" smooth="yes"/>
      <point x="460" y="571" type="line" smooth="yes"/>
      <point x="459" y="410" type="line" smooth="yes"/>
      <point x="454" y="372" type="line" smooth="yes"/>
      <point x="412" y="210" type="line" smooth="yes"/>
      <point x="316" y="150" type="line" smooth="yes"/>
    </contour>
    <contour>
      <point x="385" y="794" type="line" smooth="yes"/>
      <point x="146" y="702" type="line" smooth="yes"/>
      <point x="37" y="408" type="line" smooth="yes"/>
      <point x="32" y="370" type="line" smooth="yes"/>
      <point x="74" y="77" type="line" smooth="yes"/>
      <point x="300" y="-14" type="line" smooth="yes"/>
      <point x="539" y="78" type="line" smooth="yes"/>
      <point x="647" y="372" type="line" smooth="yes"/>
      <point x="652" y="410" type="line" smooth="yes"/>
      <point x="611" y="703" type="line" smooth="yes"/>
    </contour>
    <contour>
      <point x="399" y="824" type="line" smooth="yes"/>
      <point x="562" y="862" type="line" smooth="yes"/>
      <point x="611" y="950" type="line" smooth="yes"/>
      <point x="486" y="950" type="line" smooth="yes"/>
      <point x="467" y="928" type="line" smooth="yes"/>
      <point x="412" y="920" type="line" smooth="yes"/>
      <point x="359" y="928" type="line" smooth="yes"/>
      <point x="346" y="950" type="line" smooth="yes"/>
      <point x="221" y="950" type="line" smooth="yes"/>
      <point x="247" y="862" type="line" smooth="yes"/>
    </contour>
  </outline>
</glyph>
<glyph name="obreve" format="1">
  <advance width="560"/>
  <unicode hex="014F"/>
  <outline>
    <contour>
      <point x="196" y="284" type="line" smooth="yes"/>
      <point x="224" y="361" type="line" smooth="yes"/>
      <point x="279" y="386" type="line" smooth="yes"/>
      <point x="333" y="360" type="line" smooth="yes"/>
      <point x="340" y="284" type="line" smooth="yes"/>
      <point x="335" y="246" type="line" smooth="yes"/>
      <point x="307" y="169" type="line" smooth="yes"/>
      <point x="252" y="144" type="line" smooth="yes"/>
      <point x="198" y="170" type="line" smooth="yes"/>
      <point x="191" y="246" type="line" smooth="yes"/>
    </contour>
    <contour>
      <point x="523" y="284" type="line" smooth="yes"/>
      <point x="480" y="471" type="line" smooth="yes"/>
      <point x="290" y="544" type="line" smooth="yes"/>
      <point x="94" y="469" type="line" smooth="yes"/>
      <point x="13" y="284" type="line" smooth="yes"/>
      <point x="8" y="246" type="line" smooth="yes"/>
      <point x="52" y="59" type="line" smooth="yes"/>
      <point x="241" y="-14" type="line" smooth="yes"/>
      <point x="437" y="61" type="line" smooth="yes"/>
      <point x="518" y="246" type="line" smooth="yes"/>
    </contour>
    <contour>
      <point x="306" y="576" type="line" smooth="yes"/>
      <point x="468" y="634" type="line" smooth="yes"/>
      <point x="528" y="780" type="line" smooth="yes"/>
      <point x="398" y="780" type="line" smooth="yes"/>
      <point x="371" y="726" type="line" smooth="yes"/>
      <point x="324" y="714" type="line" smooth="yes"/>
      <point x="281" y="726" type="line" smooth="yes"/>
      <point x="268" y="780" type="line" smooth="yes"/>
      <point x="138" y="780" type="line" smooth="yes"/>
      <point x="160" y="634" type="line" smooth="yes"/>
    </contour>
  </outline>
</glyph>
<glyph name="OE" format="1">
  <advance width="940"/>
  <unicode hex="0152"/>
  <outline>
    <contour>
      <point x="230" y="408" type="line" smooth="yes"/>
      <point x="276" y="563" type="line" smooth="yes"/>
      <point x="406" y="616" type="line" smooth="yes"/>
      <point x="441" y="616" type="line" smooth="yes"/>
      <point x="382" y="164" type="line" smooth="yes"/>
      <point x="356" y="164" type="line" smooth="yes"/>
      <point x="235" y="216" type="line" smooth="yes"/>
      <point x="225" y="370" type="line" smooth="yes"/>
    </contour>
    <contour>
      <point x="32" y="370" type="line" smooth="yes"/>
      <point x="73" y="84" type="line" smooth="yes"/>
      <point x="325" y="0" type="line" smooth="yes"/>
      <point x="851" y="0" type="line" smooth="yes"/>
      <point x="872" y="164" type="line" smooth="yes"/>
      <point x="572" y="164" type="line" smooth="yes"/>
      <point x="592" y="316" type="line" smooth="yes"/>
      <point x="842" y="316" type="line" smooth="yes"/>
      <point x="864" y="480" type="line" smooth="yes"/>
      <point x="614" y="480" type="line" smooth="yes"/>
      <point x="632" y="616" type="line" smooth="yes"/>
      <point x="932" y="616" type="line" smooth="yes"/>
      <point x="953" y="780" type="line" smooth="yes"/>
      <point x="417" y="780" type="line" smooth="yes"/>
      <point x="149" y="695" type="line" smooth="yes"/>
      <point x="37" y="408" type="line" smooth="yes"/>
    </contour>
  </outline>
</glyph>
<glyph name="oe" format="1">
  <advance width="883"/>
  <unicode hex="0153"/>
  <outline>
    <contour>
      <point x="611" y="406" type="line" smooth="yes"/>
      <point x="660" y="387" type="line" smooth="yes"/>
      <point x="672" y="330" type="line" smooth="yes"/>
      <point x="530" y="330" type="line" smooth="yes"/>
      <point x="561" y="389" type="line" smooth="yes"/>
    </contour>
    <contour>
      <point x="196" y="284" type="line" smooth="yes"/>
      <point x="224" y="361" type="line" smooth="yes"/>
      <point x="279" y="386" type="line" smooth="yes"/>
      <point x="333" y="360" type="line" smooth="yes"/>
      <point x="340" y="284" type="line" smooth="yes"/>
      <point x="335" y="246" type="line" smooth="yes"/>
      <point x="307" y="169" type="line" smooth="yes"/>
      <point x="252" y="144" type="line" smooth="yes"/>
      <point x="198" y="170" type="line" smooth="yes"/>
      <point x="191" y="246" type="line" smooth="yes"/>
    </contour>
    <contour>
      <point x="839" y="200" type="line" smooth="yes"/>
      <point x="847" y="260" type="line" smooth="yes"/>
      <point x="806" y="467" type="line" smooth="yes"/>
      <point x="617" y="544" type="line" smooth="yes"/>
      <point x="518" y="524" type="line" smooth="yes"/>
      <point x="450" y="472" type="line" smooth="yes"/>
      <point x="389" y="524" type="line" smooth="yes"/>
      <point x="290" y="544" type="line" smooth="yes"/>
      <point x="94" y="469" type="line" smooth="yes"/>
      <point x="13" y="284" type="line" smooth="yes"/>
      <point x="8" y="246" type="line" smooth="yes"/>
      <point x="52" y="59" type="line" smooth="yes"/>
      <point x="241" y="-14" type="line" smooth="yes"/>
      <point x="340" y="6" type="line" smooth="yes"/>
      <point x="408" y="59" type="line" smooth="yes"/>
      <point x="472" y="6" type="line" smooth="yes"/>
      <point x="577" y="-14" type="line" smooth="yes"/>
      <point x="758" y="35" type="line" smooth="yes"/>
      <point x="834" y="163" type="line" smooth="yes"/>
      <point x="835" y="170" type="line" smooth="yes"/>
      <point x="662" y="170" type="line" smooth="yes"/>
      <point x="640" y="138" type="line" smooth="yes"/>
      <point x="585" y="124" type="line" smooth="yes"/>
      <point x="534" y="140" type="line" smooth="yes"/>
      <point x="513" y="200" type="line" smooth="yes"/>
    </contour>
  </outline>
</glyph>
<glyph name="racute" format="1">
  <advance width="400"/>
  <unicode hex="0155"/>
  <outline>
    <contour>
      <point x="378" y="544" type="line" smooth="yes"/>
      <point x="294" y="524" type="line" smooth="yes"/>
      <point x="226" y="466" type="line" smooth="yes"/>
      <point x="226" y="530" type="line" smooth="yes"/>
      <point x="60" y="530" type="line" smooth="yes"/>
      <point x="51" y="380" type="line" smooth="yes"/>
      <point x="1" y="0" type="line" smooth="yes"/>
      <point x="185" y="0" type="line" smooth="yes"/>
      <point x="227" y="320" type="line" smooth="yes"/>
      <point x="265" y="343" type="line" smooth="yes"/>
      <point x="338" y="355" type="line" smooth="yes"/>
      <point x="368" y="355" type="line" smooth="yes"/>
      <point x="393" y="543" type="line" smooth="yes"/>
      <point x="386" y="544" type="line" smooth="yes"/>
    </contour>
    <contour>
      <point x="263" y="780" type="line" smooth="yes"/>
      <point x="147" y="590" type="line" smooth="yes"/>
      <point x="329" y="590" type="line" smooth="yes"/>
      <point x="465" y="780" type="line" smooth="yes"/>
    </contour>
  </outline>
</glyph>
<glyph name="Rcaron" format="1">
  <advance width="631"/>
  <unicode hex="0158"/>
  <outline>
    <contour>
      <point x="226" y="268" type="line" smooth="yes"/>
      <point x="279" y="268" type="line" smooth="yes"/>
      <point x="346" y="0" type="line" smooth="yes"/>
      <point x="551" y="0" type="line" smooth="yes"/>
      <point x="468" y="294" type="line" smooth="yes"/>
      <point x="564" y="368" type="line" smooth="yes"/>
      <point x="618" y="514" type="line" smooth="yes"/>
      <point x="621" y="536" type="line" smooth="yes"/>
      <point x="557" y="739" type="line" smooth="yes"/>
      <point x="372" y="780" type="line" smooth="yes"/>
      <point x="103" y="780" type="line" smooth="yes"/>
      <point x="1" y="0" type="line" smooth="yes"/>
      <point x="191" y="0" type="line" smooth="yes"/>
    </contour>
    <contour>
      <point x="247" y="432" type="line" smooth="yes"/>
      <point x="272" y="616" type="line" smooth="yes"/>
      <point x="359" y="616" type="line" smooth="yes"/>
      <point x="410" y="601" type="line" smooth="yes"/>
      <point x="428" y="530" type="line" smooth="yes"/>
      <point x="427" y="519" type="line" smooth="yes"/>
      <point x="392" y="449" type="line" smooth="yes"/>
      <point x="334" y="432" type="line" smooth="yes"/>
    </contour>
    <contour>
      <point x="156" y="950" type="line" smooth="yes"/>
      <point x="271" y="840" type="line" smooth="yes"/>
      <point x="461" y="840" type="line" smooth="yes"/>
      <point x="606" y="950" type="line" smooth="yes"/>
      <point x="441" y="950" type="line" smooth="yes"/>
      <point x="375" y="910" type="line" smooth="yes"/>
      <point x="321" y="950" type="line" smooth="yes"/>
    </contour>
  </outline>
</glyph>
<glyph name="Scedilla" format="1">
  <advance width="636"/>
  <unicode hex="015E"/>
  <outline>
    <contour>
      <point x="277" y="314" type="line" smooth="yes"/>
      <point x="379" y="281" type="line" smooth="yes"/>
      <point x="398" y="230" type="line" smooth="yes"/>
      <point x="397" y="220" type="line" smooth="yes"/>
      <point x="371" y="171" type="line" smooth="yes"/>
      <point x="299" y="150" type="line" smooth="yes"/>
      <point x="289" y="150" type="line" smooth="yes"/>
      <point x="219" y="178" type="line" smooth="yes"/>
      <point x="206" y="270" type="line" smooth="yes"/>
      <point x="16" y="270" type="line" smooth="yes"/>
      <point x="14" y="254" type="line" smooth="yes"/>
      <point x="55" y="64" type="line" smooth="yes"/>
      <point x="230" y="-12" type="line" smooth="yes"/>
      <point x="199" y="-70" type="line" smooth="yes"/>
      <point x="209" y="-99" type="line" smooth="yes"/>
      <point x="222" y="-97" type="line" smooth="yes"/>
      <point x="250" y="-94" type="line" smooth="yes"/>
      <point x="282" y="-100" type="line" smooth="yes"/>
      <point x="291" y="-115" type="line" smooth="yes"/>
      <point x="281" y="-132" type="line" smooth="yes"/>
      <point x="244" y="-138" type="line" smooth="yes"/>
      <point x="206" y="-133" type="line" smooth="yes"/>
      <point x="177" y="-121" type="line" smooth="yes"/>
      <point x="141" y="-188" type="line" smooth="yes"/>
      <point x="182" y="-207" type="line" smooth="yes"/>
      <point x="252" y="-216" type="line" smooth="yes"/>
      <point x="351" y="-189" type="line" smooth="yes"/>
      <point x="386" y="-115" type="line" smooth="yes"/>
      <point x="361" y="-59" type="line" smooth="yes"/>
      <point x="297" y="-37" type="line" smooth="yes"/>
      <point x="310" y="-13" type="line" smooth="yes"/>
      <point x="506" y="50" type="line" smooth="yes"/>
      <point x="589" y="211" type="line" smooth="yes"/>
      <point x="591" y="229" type="line" smooth="yes"/>
      <point x="548" y="395" type="line" smooth="yes"/>
      <point x="367" y="467" type="line" smooth="yes"/>
      <point x="269" y="498" type="line" smooth="yes"/>
      <point x="251" y="550" type="line" smooth="yes"/>
      <point x="252" y="560" type="line" smooth="yes"/>
      <point x="278" y="610" type="line" smooth="yes"/>
      <point x="343" y="630" type="line" smooth="yes"/>
      <point x="353" y="630" type="line" smooth="yes"/>
      <point x="423" y="598" type="line" smooth="yes"/>
      <point x="431" y="500" type="line" smooth="yes"/>
      <point x="621" y="500" type="line" smooth="yes"/>
      <point x="624" y="524" type="line" smooth="yes"/>
      <point x="578" y="726" type="line" smooth="yes"/>
      <point x="370" y="794" type="line" smooth="yes"/>
      <point x="147" y="730" type="line" smooth="yes"/>
      <point x="59" y="562" type="line" smooth="yes"/>
      <point x="57" y="544" type="line" smooth="yes"/>
      <point x="98" y="384" type="line" smooth="yes"/>
    </contour>
  </outline>
</glyph>
<glyph name="tcommaaccent" format="1">
  <advance width="440"/>
  <unicode hex="0163"/>
  <outline>
    <contour>
      <point x="265" y="-40" type="line" smooth="yes"/>
      <point x="105" y="-40" type="line" smooth="yes"/>
      <point x="92" y="-140" type="line" smooth="yes"/>
      <point x="180" y="-140" type="line" smooth="yes"/>
      <point x="143" y="-164" type="line" smooth="yes"/>
      <point x="88" y="-170" type="line" smooth="yes"/>
      <point x="80" y="-230" type="line" smooth="yes"/>
      <point x="205" y="-201" type="line" smooth="yes"/>
      <point x="257" y="-100" type="line" smooth="yes"/>
    </contour>
    <contour>
      <point x="299" y="530" type="line" smooth="yes"/>
      <point x="319" y="680" type="line" smooth="yes"/>
      <point x="135" y="680" type="line" smooth="yes"/>
      <point x="115" y="530" type="line" smooth="yes"/>
      <point x="35" y="530" type="line" smooth="yes"/>
      <point x="14" y="370" type="line" smooth="yes"/>
      <point x="94" y="370" type="line" smooth="yes"/>
      <point x="71" y="195" type="line" smooth="yes"/>
      <point x="108" y="32" type="line" smooth="yes"/>
      <point x="256" y="-14" type="line" smooth="yes"/>
      <point x="317" y="-9" type="line" smooth="yes"/>
      <point x="347" y="0" type="line" smooth="yes"/>
      <point x="366" y="150" type="line" smooth="yes"/>
      <point x="347" y="146" type="line" smooth="yes"/>
      <point x="319" y="144" type="line" smooth="yes"/>
      <point x="270" y="157" type="line" smooth="yes"/>
      <point x="258" y="215" type="line" smooth="yes"/>
      <point x="278" y="370" type="line" smooth="yes"/>
      <point x="405" y="370" type="line" smooth="yes"/>
      <point x="426" y="530" type="line" smooth="yes"/>
    </contour>
  </outline>
</glyph>
<glyph name="tcaron" format="1">
  <advance width="440"/>
  <unicode hex="0165"/>
  <outline>
    <contour>
      <point x="385" y="800" type="line" smooth="yes"/>
      <point x="357" y="590" type="line" smooth="yes"/>
      <point x="437" y="590" type="line" smooth="yes"/>
      <point x="490" y="800" type="line" smooth="yes"/>
    </contour>
    <contour>
      <point x="299" y="530" type="line" smooth="yes"/>
      <point x="319" y="680" type="line" smooth="yes"/>
      <point x="135" y="680" type="line" smooth="yes"/>
      <point x="115" y="530" type="line" smooth="yes"/>
      <point x="35" y="530" type="line" smooth="yes"/>
      <point x="14" y="370" type="line" smooth="yes"/>
      <point x="94" y="370" type="line" smooth="yes"/>
      <point x="71" y="195" type="line" smooth="yes"/>
      <point x="108" y="32" type="line" smooth="yes"/>
      <point x="256" y="-14" type="line" smooth="yes"/>
      <point x="317" y="-9" type="line" smooth="yes"/>
      <point x="347" y="0" type="line" smooth="yes"/>
      <point x="366" y="150" type="line" smooth="yes"/>
      <point x="347" y="146" type="line" smooth="yes"/>
      <point x="319" y="144" type="line" smooth="yes"/>
      <point x="270" y="157" type="line" smooth="yes"/>
      <point x="258" y="215" type="line" smooth="yes"/>
      <point x="278" y="370" type="line" smooth="yes"/>
      <point x="405" y="370" type="line" smooth="yes"/>
      <point x="426" y="530" type="line" smooth="yes"/>
    </contour>
  </outline>
</glyph>
<glyph name="Utilde" format="1">
  <advance width="670"/>
  <unicode hex="0168"/>
  <outline>
    <contour>
      <point x="290" y="-14" type="line" smooth="yes"/>
      <point x="526" y="56" type="line" smooth="yes"/>
      <point x="608" y="248" type="line" smooth="yes"/>
      <point x="678" y="780" type="line" smooth="yes"/>
      <point x="488" y="780" type="line" smooth="yes"/>
      <point x="419" y="253" type="line" smooth="yes"/>
      <point x="388" y="178" type="line" smooth="yes"/>
      <point x="301" y="150" type="line" smooth="yes"/>
      <point x="226" y="178" type="line" smooth="yes"/>
      <point x="219" y="253" type="line" smooth="yes"/>
      <point x="288" y="780" type="line" smooth="yes"/>
      <point x="98" y="780" type="line" smooth="yes"/>
      <point x="28" y="248" type="line" smooth="yes"/>
      <point x="66" y="56" type="line" smooth="yes"/>
    </contour>
    <contour>
      <point x="511" y="950" type="line" smooth="yes"/>
      <point x="498" y="926" type="line" smooth="yes"/>
      <point x="474" y="920" type="line" smooth="yes"/>
      <point x="412" y="943" type="line" smooth="yes"/>
      <point x="328" y="966" type="line" smooth="yes"/>
      <point x="248" y="939" type="line" smooth="yes"/>
      <point x="201" y="840" type="line" smooth="yes"/>
      <point x="296" y="840" type="line" smooth="yes"/>
      <point x="309" y="864" type="line" smooth="yes"/>
      <point x="333" y="870" type="line" smooth="yes"/>
      <point x="396" y="847" type="line" smooth="yes"/>
      <point x="479" y="824" type="line" smooth="yes"/>
      <point x="559" y="851" type="line" smooth="yes"/>
      <point x="606" y="950" type="line" smooth="yes"/>
    </contour>
  </outline>
</glyph>
<glyph name="utilde" format="1">
  <advance width="595"/>
  <unicode hex="0169"/>
  <outline>
    <contour>
      <point x="64" y="530" type="line" smooth="yes"/>
      <point x="18" y="175" type="line" smooth="yes"/>
      <point x="36" y="45" type="line" smooth="yes"/>
      <point x="158" y="-14" type="line" smooth="yes"/>
      <point x="262" y="8" type="line" smooth="yes"/>
      <point x="340" y="70" type="line" smooth="yes"/>
      <point x="340" y="0" type="line" smooth="yes"/>
      <point x="506" y="0" type="line" smooth="yes"/>
      <point x="515" y="150" type="line" smooth="yes"/>
      <point x="565" y="530" type="line" smooth="yes"/>
      <point x="381" y="530" type="line" smooth="yes"/>
      <point x="336" y="185" type="line" smooth="yes"/>
      <point x="305" y="159" type="line" smooth="yes"/>
      <point x="253" y="144" type="line" smooth="yes"/>
      <point x="209" y="165" type="line" smooth="yes"/>
      <point x="205" y="205" type="line" smooth="yes"/>
      <point x="248" y="530" type="line" smooth="yes"/>
    </contour>
    <contour>
      <point x="442" y="780" type="line" smooth="yes"/>
      <point x="431" y="753" type="line" smooth="yes"/>
      <point x="408" y="745" type="line" smooth="yes"/>
      <point x="340" y="771" type="line" smooth="yes"/>
      <point x="254" y="796" type="line" smooth="yes"/>
      <point x="164" y="755" type="line" smooth="yes"/>
      <point x="111" y="620" type="line" smooth="yes"/>
      <point x="231" y="620" type="line" smooth="yes"/>
      <point x="243" y="647" type="line" smooth="yes"/>
      <point x="266" y="655" type="line" smooth="yes"/>
      <point x="333" y="630" type="line" smooth="yes"/>
      <point x="419" y="604" type="line" smooth="yes"/>
      <point x="509" y="645" type="line" smooth="yes"/>
      <point x="562" y="780" type="line" smooth="yes"/>
    </contour>
  </outline>
</glyph>
<glyph name="ubreve" format="1">
  <advance width="595"/>
  <unicode hex="016D"/>
  <outline>
    <contour>
      <point x="64" y="530" type="line" smooth="yes"/>
      <point x="18" y="175" type="line" smooth="yes"/>
      <point x="36" y="45" type="line" smooth="yes"/>
      <point x="158" y="-14" type="line" smooth="yes"/>
      <point x="262" y="8" type="line" smooth="yes"/>
      <point x="340" y="70" type="line" smooth="yes"/>
      <point x="340" y="0" type="line" smooth="yes"/>
      <point x="506" y="0" type="line" smooth="yes"/>
      <point x="515" y="150" type="line" smooth="yes"/>
      <point x="565" y="530" type="line" smooth="yes"/>
      <point x="381" y="530" type="line" smooth="yes"/>
      <point x="336" y="185" type="line" smooth="yes"/>
      <point x="305" y="159" type="line" smooth="yes"/>
      <point x="253" y="144" type="line" smooth="yes"/>
      <point x="209" y="165" type="line" smooth="yes"/>
      <point x="205" y="205" type="line" smooth="yes"/>
      <point x="248" y="530" type="line" smooth="yes"/>
    </contour>
    <contour>
      <point x="320" y="576" type="line" smooth="yes"/>
      <point x="482" y="634" type="line" smooth="yes"/>
      <point x="542" y="780" type="line" smooth="yes"/>
      <point x="412" y="780" type="line" smooth="yes"/>
      <point x="385" y="726" type="line" smooth="yes"/>
      <point x="338" y="714" type="line" smooth="yes"/>
      <point x="295" y="726" type="line" smooth="yes"/>
      <point x="282" y="780" type="line" smooth="yes"/>
      <point x="152" y="780" type="line" smooth="yes"/>
      <point x="174" y="634" type="line" smooth="yes"/>
    </contour>
  </outline>
</glyph>
<glyph name="Uring" format="1">
  <advance width="670"/>
  <unicode hex="016E"/>
  <outline>
    <contour>
      <point x="405" y="904" type="line" smooth="yes"/>
      <point x="436" y="892" type="line" smooth="yes"/>
      <point x="448" y="860" type="line" smooth="yes"/>
      <point x="432" y="821" type="line" smooth="yes"/>
      <point x="392" y="806" type="line" smooth="yes"/>
      <point x="361" y="818" type="line" smooth="yes"/>
      <point x="349" y="850" type="line" smooth="yes"/>
      <point x="365" y="889" type="line" smooth="yes"/>
    </contour>
    <contour>
      <point x="386" y="746" type="line" smooth="yes"/>
      <point x="473" y="781" type="line" smooth="yes"/>
      <point x="509" y="868" type="line" smooth="yes"/>
      <point x="481" y="937" type="line" smooth="yes"/>
      <point x="411" y="964" type="line" smooth="yes"/>
      <point x="324" y="929" type="line" smooth="yes"/>
      <point x="288" y="842" type="line" smooth="yes"/>
      <point x="316" y="773" type="line" smooth="yes"/>
    </contour>
    <contour>
      <point x="290" y="-14" type="line" smooth="yes"/>
      <point x="526" y="56" type="line" smooth="yes"/>
      <point x="608" y="248" type="line" smooth="yes"/>
      <point x="678" y="780" type="line" smooth="yes"/>
      <point x="488" y="780" type="line" smooth="yes"/>
      <point x="419" y="253" type="line" smooth="yes"/>
      <point x="388" y="178" type="line" smooth="yes"/>
      <point x="301" y="150" type="line" smooth="yes"/>
      <point x="226" y="178" type="line" smooth="yes"/>
      <point x="219" y="253" type="line" smooth="yes"/>
      <point x="288" y="780" type="line" smooth="yes"/>
      <point x="98" y="780" type="line" smooth="yes"/>
      <point x="28" y="248" type="line" smooth="yes"/>
      <point x="66" y="56" type="line" smooth="yes"/>
    </contour>
  </outline>
</glyph>
<glyph name="Uogonek" format="1">
  <advance width="670"/>
  <unicode hex="0172"/>
  <outline>
    <contour>
      <point x="418" y="0" type="line" smooth="yes"/>
      <point x="554" y="88" type="line" smooth="yes"/>
      <point x="608" y="248" type="line" smooth="yes"/>
      <point x="678" y="780" type="line" smooth="yes"/>
      <point x="488" y="780" type="line" smooth="yes"/>
      <point x="419" y="253" type="line" smooth="yes"/>
      <point x="388" y="178" type="line" smooth="yes"/>
      <point x="301" y="150" type="line" smooth="yes"/>
      <point x="226" y="178" type="line" smooth="yes"/>
      <point x="219" y="253" type="line" smooth="yes"/>
      <point x="288" y="780" type="line" smooth="yes"/>
      <point x="98" y="780" type="line" smooth="yes"/>
      <point x="28" y="248" type="line" smooth="yes"/>
      <point x="60" y="62" type="line" smooth="yes"/>
      <point x="256" y="-13" type="line" smooth="yes"/>
      <point x="225" y="-64" type="line" smooth="yes"/>
      <point x="213" y="-123" type="line" smooth="yes"/>
      <point x="248" y="-193" type="line" smooth="yes"/>
      <point x="341" y="-216" type="line" smooth="yes"/>
      <point x="405" y="-208" type="line" smooth="yes"/>
      <point x="452" y="-190" type="line" smooth="yes"/>
      <point x="426" y="-80" type="line" smooth="yes"/>
      <point x="412" y="-87" type="line" smooth="yes"/>
      <point x="389" y="-90" type="line" smooth="yes"/>
      <point x="364" y="-83" type="line" smooth="yes"/>
      <point x="354" y="-63" type="line" smooth="yes"/>
      <point x="377" y="-23" type="line" smooth="yes"/>
    </contour>
  </outline>
</glyph>
<glyph name="uogonek" format="1">
  <advance width="595"/>
  <unicode hex="0173"/>
  <outline>
    <contour>
      <point x="64" y="530" type="line" smooth="yes"/>
      <point x="18" y="175" type="line" smooth="yes"/>
      <point x="36" y="45" type="line" smooth="yes"/>
      <point x="158" y="-14" type="line" smooth="yes"/>
      <point x="262" y="8" type="line" smooth="yes"/>
      <point x="340" y="70" type="line" smooth="yes"/>
      <point x="340" y="-18" type="line" smooth="yes"/>
      <point x="312" y="-67" type="line" smooth="yes"/>
      <point x="301" y="-123" type="line" smooth="yes"/>
      <point x="336" y="-193" type="line" smooth="yes"/>
      <point x="429" y="-216" type="line" smooth="yes"/>
      <point x="493" y="-208" type="line" smooth="yes"/>
      <point x="540" y="-190" type="line" smooth="yes"/>
      <point x="514" y="-80" type="line" smooth="yes"/>
      <point x="500" y="-87" type="line" smooth="yes"/>
      <point x="477" y="-90" type="line" smooth="yes"/>
      <point x="452" y="-83" type="line" smooth="yes"/>
      <point x="442" y="-63" type="line" smooth="yes"/>
      <point x="465" y="-23" type="line" smooth="yes"/>
      <point x="506" y="0" type="line" smooth="yes"/>
      <point x="515" y="150" type="line" smooth="yes"/>
      <point x="565" y="530" type="line" smooth="yes"/>
      <point x="381" y="530" type="line" smooth="yes"/>
      <point x="336" y="185" type="line" smooth="yes"/>
      <point x="305" y="159" type="line" smooth="yes"/>
      <point x="253" y="144" type="line" smooth="yes"/>
      <point x="209" y="165" type="line" smooth="yes"/>
      <point x="205" y="205" type="line" smooth="yes"/>
      <point x="248" y="530" type="line" smooth="yes"/>
    </contour>
  </outline>
</glyph>
<glyph name="ycircumflex" format="1">
  <advance width="570"/>
  <unicode hex="0177"/>
  <outline>
    <contour>
      <point x="248" y="590" type="line" smooth="yes"/>
      <point x="323" y="663" type="line" smooth="yes"/>
      <point x="378" y="590" type="line" smooth="yes"/>
      <point x="538" y="590" type="line" smooth="yes"/>
      <point x="428" y="780" type="line" smooth="yes"/>
      <point x="248" y="780" type="line" smooth="yes"/>
      <point x="88" y="590" type="line" smooth="yes"/>
    </contour>
    <contour>
      <point x="264" y="220" type="line" smooth="yes"/>
      <point x="220" y="530" type="line" smooth="yes"/>
      <point x="20" y="530" type="line" smooth="yes"/>
      <point x="139" y="30" type="line" smooth="yes"/>
      <point x="23" y="-200" type="line" smooth="yes"/>
      <point x="243" y="-200" type="line" smooth="yes"/>
      <point x="339" y="30" type="line" smooth="yes"/>
      <point x="590" y="530" type="line" smooth="yes"/>
      <point x="390" y="530" type="line" smooth="yes"/>
    </contour>
  </outline>
</glyph>
<glyph name="Scommaaccent" format="1">
  <advance width="636"/>
  <unicode hex="0218"/>
  <outline>
    <contour>
      <point x="277" y="314" type="line" smooth="yes"/>
      <point x="379" y="281" type="line" smooth="yes"/>
      <point x="398" y="230" type="line" smooth="yes"/>
      <point x="397" y="220" type="line" smooth="yes"/>
      <point x="371" y="171" type="line" smooth="yes"/>
      <point x="299" y="150" type="line" smooth="yes"/>
      <point x="289" y="150" type="line" smooth="yes"/>
      <point x="219" y="178" type="line" smooth="yes"/>
      <point x="206" y="270" type="line" smooth="yes"/>
      <point x="16" y="270" type="line" smooth="yes"/>
      <point x="14" y="254" type="line" smooth="yes"/>
      <point x="67" y="52" type="line" smooth="yes"/>
      <point x="279" y="-14" type="line" smooth="yes"/>
      <point x="497" y="43" type="line" smooth="yes"/>
      <point x="589" y="211" type="line" smooth="yes"/>
      <point x="591" y="229" type="line" smooth="yes"/>
      <point x="548" y="395" type="line" smooth="yes"/>
      <point x="367" y="467" type="line" smooth="yes"/>
      <point x="269" y="498" type="line" smooth="yes"/>
      <point x="251" y="550" type="line" smooth="yes"/>
      <point x="252" y="560" type="line" smooth="yes"/>
      <point x="278" y="610" type="line" smooth="yes"/>
      <point x="343" y="630" type="line" smooth="yes"/>
      <point x="353" y="630" type="line" smooth="yes"/>
      <point x="423" y="598" type="line" smooth="yes"/>
      <point x="431" y="500" type="line" smooth="yes"/>
      <point x="621" y="500" type="line" smooth="yes"/>
      <point x="624" y="524" type="line" smooth="yes"/>
      <point x="578" y="726" type="line" smooth="yes"/>
      <point x="370" y="794" type="line" smooth="yes"/>
      <point x="147" y="730" type="line" smooth="yes"/>
      <point x="59" y="562" type="line" smooth="yes"/>
      <point x="57" y="544" type="line" smooth="yes"/>
      <point x="98" y="384" type="line" smooth="yes"/>
    </contour>
    <contour>
      <point x="345" y="-40" type="line" smooth="yes"/>
      <point x="185" y="-40" type="line" smooth="yes"/>
      <point x="172" y="-140" type="line" smooth="yes"/>
      <point x="260" y="-140" type="line" smooth="yes"/>
      <point x="223" y="-164" type="line" smooth="yes"/>
      <point x="168" y="-170" type="line" smooth="yes"/>
      <point x="160" y="-230" type="line" smooth="yes"/>
      <point x="285" y="-201" type="line" smooth="yes"/>
      <point x="337" y="-100" type="line" smooth="yes"/>
    </contour>
  </outline>
</glyph>
<glyph name="scommaaccent" format="1">
  <advance width="527"/>
  <unicode hex="0219"/>
  <outline>
    <contour>
      <point x="235" y="124" type="line" smooth="yes"/>
      <point x="194" y="136" type="line" smooth="yes"/>
      <point x="184" y="170" type="line" smooth="yes"/>
      <point x="1" y="170" type="line" smooth="yes"/>
      <point x="0" y="162" type="line" smooth="yes"/>
      <point x="43" y="33" type="line" smooth="yes"/>
      <point x="222" y="-14" type="line" smooth="yes"/>
      <point x="397" y="31" type="line" smooth="yes"/>
      <point x="472" y="150" type="line" smooth="yes"/>
      <point x="474" y="165" type="line" smooth="yes"/>
      <point x="422" y="291" type="line" smooth="yes"/>
      <point x="267" y="332" type="line" smooth="yes"/>
      <point x="225" y="342" type="line" smooth="yes"/>
      <point x="213" y="365" type="line" smooth="yes"/>
      <point x="227" y="395" type="line" smooth="yes"/>
      <point x="265" y="406" type="line" smooth="yes"/>
      <point x="304" y="393" type="line" smooth="yes"/>
      <point x="312" y="355" type="line" smooth="yes"/>
      <point x="492" y="355" type="line" smooth="yes"/>
      <point x="493" y="363" type="line" smooth="yes"/>
      <point x="453" y="497" type="line" smooth="yes"/>
      <point x="278" y="544" type="line" smooth="yes"/>
      <point x="118" y="506" type="line" smooth="yes"/>
      <point x="36" y="384" type="line" smooth="yes"/>
      <point x="34" y="369" type="line" smooth="yes"/>
      <point x="76" y="247" type="line" smooth="yes"/>
      <point x="235" y="203" type="line" smooth="yes"/>
      <point x="279" y="191" type="line" smooth="yes"/>
      <point x="290" y="165" type="line" smooth="yes"/>
      <point x="279" y="137" type="line" smooth="yes"/>
    </contour>
    <contour>
      <point x="290" y="-40" type="line" smooth="yes"/>
      <point x="130" y="-40" type="line" smooth="yes"/>
      <point x="117" y="-140" type="line" smooth="yes"/>
      <point x="205" y="-140" type="line" smooth="yes"/>
      <point x="168" y="-164" type="line" smooth="yes"/>
      <point x="113" y="-170" type="line" smooth="yes"/>
      <point x="105" y="-230" type="line" smooth="yes"/>
      <point x="230" y="-201" type="line" smooth="yes"/>
      <point x="282" y="-100" type="line" smooth="yes"/>
    </contour>
  </outline>
</glyph>
<glyph name="ymacron" format="1">
  <advance width="570"/>
  <unicode hex="0233"/>
  <outline>
    <contour>
      <point x="155" y="605" type="line" smooth="yes"/>
      <point x="475" y="605" type="line" smooth="yes"/>
      <point x="496" y="765" type="line" smooth="yes"/>
      <point x="176" y="765" type="line" smooth="yes"/>
    </contour>
    <contour>
      <point x="264" y="220" type="line" smooth="yes"/>
      <point x="220" y="530" type="line" smooth="yes"/>
      <point x="20" y="530" type="line" smooth="yes"/>
      <point x="139" y="30" type="line" smooth="yes"/>
      <point x="23" y="-200" type="line" smooth="yes"/>
      <point x="243" y="-200" type="line" smooth="yes"/>
      <point x="339" y="30" type="line" smooth="yes"/>
      <point x="590" y="530" type="line" smooth="yes"/>
      <point x="390" y="530" type="line" smooth="yes"/>
    </contour>
  </outline>
</glyph>
<glyph name="dotlessj" format="1">
  <advance width="280"/>
  <unicode hex="0237"/>
  <outline>
    <contour>
      <point x="0" y="15" type="line" smooth="yes"/>
      <point x="-27" y="-43" type="line" smooth="yes"/>
      <point x="-79" y="-56" type="line" smooth="yes"/>
      <point x="-106" y="-54" type="line" smooth="yes"/>
      <point x="-124" y="-50" type="line" smooth="yes"/>
      <point x="-144" y="-200" type="line" smooth="yes"/>
      <point x="-116" y="-209" type="line" smooth="yes"/>
      <point x="-57" y="-214" type="line" smooth="yes"/>
      <point x="102" y="-168" type="line" smooth="yes"/>
      <point x="182" y="-5" type="line" smooth="yes"/>
      <point x="252" y="530" type="line" smooth="yes"/>
      <point x="68" y="530" type="line" smooth="yes"/>
    </contour>
  </outline>
</glyph>
